<?xml version="1.0" encoding="UTF-8" standalone="no"?><!DOCTYPE svg PUBLIC "-//W3C//DTD SVG 1.1//EN" "http://www.w3.org/Graphics/SVG/1.1/DTD/svg11.dtd"><svg width="100%" height="100%" viewBox="0 0 22 18" version="1.1" xmlns="http://www.w3.org/2000/svg" xmlns:xlink="http://www.w3.org/1999/xlink" xml:space="preserve" xmlns:serif="http://www.serif.com/" style="fill-rule:evenodd;clip-rule:evenodd;stroke-linejoin:round;stroke-miterlimit:2;"><rect id="Tavola-da-disegno6" serif:id="Tavola da disegno6" x="0" y="0.425" width="21.093" height="16.329" style="fill:none;"/><g><path d="M19.203,11.617c0.418,-0.609 0.555,-1.369 0.375,-2.086c-0.18,-0.717 -0.659,-1.322 -1.316,-1.661c-4.067,-2.099 -11.482,-5.927 -11.482,-5.927l-6.78,4.836c0,-0 4.657,4.171 8.588,7.692c1.354,1.213 3.164,1.784 4.969,1.568c1.805,-0.216 3.429,-1.198 4.459,-2.695c0.416,-0.606 0.82,-1.194 1.187,-1.727Z" style="fill:#ac8b58;"/><path d="M19.413,11.039c0.367,-0.465 0.519,-1.064 0.416,-1.648c-0.103,-0.583 -0.449,-1.095 -0.953,-1.407c-2.793,-1.727 -7.855,-4.859 -10.632,-6.577c-1.14,-0.705 -2.617,-0.522 -3.55,0.44c-1.825,1.883 -4.562,4.705 -4.562,4.705c0,0 3.254,2.817 6.573,5.69c1.822,1.578 4.21,2.342 6.61,2.115c2.4,-0.227 4.602,-1.425 6.097,-3.317c0,-0 0.001,-0.001 0.001,-0.001Z" style="fill:#e5cca6;"/><path d="M19.413,11.039c0.367,-0.465 0.519,-1.064 0.416,-1.648c-0.103,-0.583 -0.449,-1.095 -0.953,-1.407c-2.793,-1.727 -7.855,-4.859 -10.632,-6.577c-1.14,-0.705 -2.617,-0.522 -3.55,0.44c-1.825,1.883 -4.562,4.705 -4.562,4.705c0,0 3.254,2.817 6.573,5.69c1.822,1.578 4.21,2.342 6.61,2.115c2.4,-0.227 4.602,-1.425 6.097,-3.317c0,-0 0.001,-0.001 0.001,-0.001Zm-0.068,-0.054c-0,0.001 -0.001,0.001 -0.001,0.002c-1.48,1.873 -3.661,3.059 -6.037,3.284c-2.376,0.225 -4.741,-0.532 -6.546,-2.094c0,-0 -6.503,-5.63 -6.503,-5.63c0,-0 4.498,-4.639 4.498,-4.639c0.905,-0.934 2.337,-1.111 3.443,-0.427c2.776,1.717 7.839,4.849 10.631,6.577c0.483,0.299 0.815,0.789 0.914,1.348c0.098,0.559 -0.047,1.134 -0.399,1.579Z" style="fill:#f7ebd8;"/><path d="M4.135,5.464c-0.42,-0.245 -0.96,-0.103 -1.205,0.317c-0.245,0.42 -0.104,0.96 0.316,1.205c0.42,0.245 0.96,0.103 1.206,-0.316c0.245,-0.42 0.103,-0.96 -0.317,-1.206Z" style="fill:#ac8b58;"/><path d="M10.938,12.293c0.17,0.274 0.506,0.373 0.749,0.222c0.243,-0.152 0.302,-0.497 0.131,-0.771c-0.171,-0.274 -0.507,-0.373 -0.749,-0.221c-0.243,0.151 -0.302,0.496 -0.131,0.77Z" style="fill:#ac8b58;"/><path d="M12.786,14.833c-0.049,0.495 0.321,0.937 0.825,0.986c0.505,0.05 0.954,-0.312 1.002,-0.807c0.049,-0.495 -0.321,-0.937 -0.825,-0.987c-0.505,-0.049 -0.954,0.313 -1.002,0.808Z" style="fill:#ac8b58;"/><path d="M5.595,6.081c-0.202,-0.118 -0.462,-0.05 -0.58,0.152c-0.118,0.202 -0.05,0.462 0.152,0.581c0.202,0.118 0.462,0.049 0.581,-0.153c0.118,-0.202 0.049,-0.462 -0.153,-0.58Z" style="fill:#ac8b58;"/><path d="M10.284,11.472c0.082,0.132 0.244,0.18 0.361,0.107c0.117,-0.073 0.145,-0.24 0.063,-0.371c-0.082,-0.132 -0.244,-0.18 -0.361,-0.107c-0.117,0.073 -0.145,0.239 -0.063,0.371Z" style="fill:#ac8b58;"/><path d="M12.731,13.212c-0.023,0.238 0.155,0.451 0.398,0.475c0.243,0.024 0.459,-0.15 0.482,-0.389c0.024,-0.238 -0.154,-0.451 -0.397,-0.475c-0.243,-0.024 -0.459,0.15 -0.483,0.389Z" style="fill:#ac8b58;"/><path d="M17.115,9.1c-0.202,-0.118 -0.462,-0.05 -0.58,0.152c-0.118,0.202 -0.05,0.462 0.152,0.58c0.203,0.119 0.463,0.05 0.581,-0.152c0.118,-0.202 0.05,-0.462 -0.153,-0.58Z" style="fill:#ac8b58;"/><path d="M16.104,10.126c-0.202,-0.118 -0.462,-0.05 -0.58,0.152c-0.119,0.202 -0.05,0.463 0.152,0.581c0.202,0.118 0.462,0.049 0.58,-0.153c0.119,-0.202 0.05,-0.462 -0.152,-0.58Z" style="fill:#ac8b58;"/><path d="M8.925,7.581c-0.203,-0.118 -0.463,-0.049 -0.581,0.153c-0.118,0.202 -0.05,0.462 0.153,0.58c0.202,0.118 0.462,0.05 0.58,-0.152c0.118,-0.202 0.05,-0.463 -0.152,-0.581Z" style="fill:#ac8b58;"/><path d="M8.803,6.948c-0.097,-0.056 -0.222,-0.024 -0.279,0.074c-0.057,0.097 -0.024,0.222 0.073,0.279c0.097,0.057 0.222,0.024 0.279,-0.074c0.057,-0.097 0.024,-0.222 -0.073,-0.279Z" style="fill:#ac8b58;"/></g></svg>