<?xml version="1.0" encoding="UTF-8" standalone="no"?>
<!DOCTYPE svg PUBLIC "-//W3C//DTD SVG 1.1//EN" "http://www.w3.org/Graphics/SVG/1.1/DTD/svg11.dtd">
<svg width="23px" height="19px" version="1.1" xmlns="http://www.w3.org/2000/svg" xmlns:xlink="http://www.w3.org/1999/xlink" xml:space="preserve" xmlns:serif="http://www.serif.com/" style="fill-rule:evenodd;clip-rule:evenodd;stroke-linejoin:round;stroke-miterlimit:2;">
    <g>
        <ellipse cx="7.042" cy="8.271" rx="4.548" ry="4.407" style="fill:rgb(207,188,160);"/>
        <path d="M7.042,3.864C9.552,3.864 11.59,5.839 11.59,8.271C11.59,10.703 9.552,12.678 7.042,12.678C4.532,12.678 2.494,10.703 2.494,8.271C2.494,5.839 4.532,3.864 7.042,3.864ZM7.042,4.278C9.319,4.278 11.175,6.064 11.175,8.271C11.175,10.478 9.319,12.264 7.042,12.264C4.764,12.264 2.908,10.478 2.908,8.271C2.908,6.064 4.764,4.278 7.042,4.278Z" style="fill:rgb(118,72,45);"/>
        <path d="M4.004,7.97C3.845,10.034 5.316,10.612 4.8,10.612C4.284,10.612 3.528,9.557 3.547,7.926C3.561,6.742 4.38,5.602 4.896,5.602C5.412,5.602 4.156,5.995 4.004,7.97Z" style="fill:rgb(234,225,210);"/>
        <path d="M10.185,9.066C10.891,7.113 9.625,6.186 10.124,6.315C10.622,6.444 11.069,7.652 10.614,9.223C10.284,10.363 9.187,11.259 8.689,11.13C8.19,11.001 9.509,10.936 10.185,9.066Z" style="fill:rgb(234,225,210);"/>
        <path d="M7.951,5.128C6.393,4.717 5.737,5.685 5.812,5.316C5.886,4.947 6.804,4.56 8.05,4.808C8.955,4.989 9.71,5.738 9.635,6.107C9.561,6.476 9.442,5.522 7.951,5.128Z" style="fill:rgb(234,225,210);"/>
        <path d="M6.508,10.533C8.019,11.098 8.871,9.712 8.725,10.238C8.579,10.763 7.57,11.327 6.346,10.99C5.457,10.745 4.83,9.688 4.976,9.162C5.122,8.637 5.062,9.993 6.508,10.533Z" style="fill:rgb(234,225,210);"/>
        <path d="M7.01,9.156C9.064,9.989 10.384,7.539 10.13,8.453C9.877,9.366 8.416,10.421 6.741,9.952C5.524,9.612 4.749,7.857 5.003,6.943C5.256,6.03 5.044,8.358 7.01,9.156Z" style="fill:rgb(234,225,210);"/>
        <ellipse cx="7.558" cy="8.012" rx="0.736" ry="0.711" style="fill:rgb(234,225,210);"/>
        <ellipse cx="5.406" cy="9.59" rx="4.548" ry="4.407" style="fill:rgb(207,188,160);"/>
        <path d="M5.406,5.183C7.916,5.183 9.954,7.158 9.954,9.59C9.954,12.023 7.916,13.998 5.406,13.998C2.896,13.998 0.858,12.023 0.858,9.59C0.858,7.158 2.896,5.183 5.406,5.183ZM5.406,5.598C7.684,5.598 9.539,7.383 9.539,9.59C9.539,11.798 7.684,13.583 5.406,13.583C3.129,13.583 1.273,11.798 1.273,9.59C1.273,7.383 3.129,5.598 5.406,5.598Z" style="fill:rgb(118,72,45);"/>
        <path d="M2.368,9.289C2.209,11.353 3.681,11.932 3.164,11.932C2.648,11.932 1.893,10.876 1.912,9.246C1.925,8.061 2.745,6.922 3.261,6.922C3.777,6.922 2.52,7.314 2.368,9.289Z" style="fill:rgb(234,225,210);"/>
        <path d="M8.549,10.386C9.256,8.432 7.99,7.505 8.488,7.634C8.987,7.763 9.434,8.972 8.979,10.542C8.648,11.683 7.552,12.579 7.053,12.45C6.555,12.32 7.873,12.256 8.549,10.386Z" style="fill:rgb(234,225,210);"/>
        <path d="M6.315,6.448C4.757,6.037 4.102,7.005 4.176,6.636C4.251,6.267 5.168,5.879 6.414,6.128C7.32,6.308 8.074,7.058 8,7.427C7.926,7.795 7.806,6.841 6.315,6.448Z" style="fill:rgb(234,225,210);"/>
        <path d="M4.873,11.853C6.384,12.417 7.235,11.032 7.09,11.557C6.944,12.083 5.935,12.646 4.711,12.309C3.822,12.064 3.195,11.007 3.34,10.482C3.486,9.956 3.427,11.312 4.873,11.853Z" style="fill:rgb(234,225,210);"/>
        <path d="M5.374,10.475C7.428,11.308 8.748,8.859 8.495,9.772C8.241,10.686 6.78,11.741 5.105,11.272C3.888,10.931 3.114,9.176 3.367,8.263C3.621,7.349 3.409,9.678 5.374,10.475Z" style="fill:rgb(234,225,210);"/>
        <ellipse cx="5.923" cy="9.331" rx="0.736" ry="0.711" style="fill:rgb(234,225,210);"/>
        <path d="M21.579,5.735C21.395,5.383 21.069,5.128 20.683,5.033C20.298,4.939 19.891,5.015 19.565,5.241C16.786,7.176 10.469,11.571 10.469,11.571L11.353,18.161C11.353,18.161 14.432,17.023 17.704,15.813C19.643,15.097 21.179,13.581 21.921,11.652C22.663,9.723 22.539,7.569 21.58,5.738C21.58,5.737 21.579,5.736 21.579,5.735Z" style="fill:rgb(172,139,88);"/>
        <path d="M21.31,5.383C21.194,5.12 20.97,4.918 20.696,4.83C20.421,4.741 20.122,4.774 19.874,4.92C18.098,5.962 14.287,8.197 11.697,9.716C10.155,10.621 9.451,12.476 10.004,14.176C10.594,15.991 11.243,17.983 11.243,17.983C11.243,17.983 14.016,16.904 17.034,15.731C19.004,14.964 20.576,13.426 21.384,11.472C22.191,9.518 22.165,7.319 21.311,5.384C21.31,5.384 21.31,5.384 21.31,5.383Z" style="fill:rgb(229,204,166);"/>
        <path d="M21.31,5.383C21.194,5.12 20.97,4.918 20.696,4.83C20.421,4.741 20.122,4.774 19.874,4.92C18.098,5.962 14.287,8.197 11.697,9.716C10.155,10.621 9.451,12.476 10.004,14.176C10.594,15.991 11.243,17.983 11.243,17.983C11.243,17.983 14.016,16.904 17.034,15.731C19.004,14.964 20.576,13.426 21.384,11.472C22.191,9.518 22.165,7.319 21.311,5.384C21.31,5.384 21.31,5.384 21.31,5.383ZM21.247,5.411L21.247,5.412C22.094,7.329 22.12,9.509 21.32,11.445C20.519,13.382 18.962,14.907 17.009,15.666C17.009,15.666 11.286,17.892 11.286,17.892C11.286,17.892 10.069,14.154 10.069,14.154C9.526,12.486 10.218,10.664 11.732,9.776C14.322,8.257 18.133,6.021 19.909,4.979C20.14,4.843 20.419,4.813 20.675,4.895C20.93,4.978 21.138,5.166 21.247,5.411Z" style="fill:rgb(247,235,216);"/>
        <path d="M11.968,14.752C11.638,14.957 11.537,15.391 11.742,15.721C11.947,16.05 12.381,16.152 12.711,15.947C13.041,15.742 13.142,15.308 12.937,14.978C12.732,14.648 12.298,14.547 11.968,14.752Z" style="fill:rgb(172,139,88);"/>
        <path d="M19.327,12.498C19.583,12.48 19.779,12.28 19.763,12.052C19.746,11.824 19.525,11.654 19.268,11.672C19.011,11.69 18.815,11.89 18.832,12.118C18.848,12.346 19.07,12.517 19.327,12.498Z" style="fill:rgb(172,139,88);"/>
        <path d="M12.948,13.951C12.789,14.05 12.74,14.259 12.839,14.418C12.938,14.577 13.147,14.626 13.306,14.527C13.465,14.428 13.513,14.219 13.415,14.06C13.316,13.901 13.107,13.853 12.948,13.951Z" style="fill:rgb(172,139,88);"/>
        <path d="M18.503,12.653C18.627,12.644 18.721,12.548 18.713,12.438C18.705,12.328 18.598,12.246 18.475,12.255C18.351,12.264 18.257,12.36 18.265,12.47C18.273,12.58 18.379,12.662 18.503,12.653Z" style="fill:rgb(172,139,88);"/>
        <path d="M20.644,11.575C20.804,11.68 21.021,11.634 21.128,11.472C21.236,11.309 21.193,11.091 21.034,10.986C20.874,10.88 20.657,10.927 20.55,11.089C20.443,11.252 20.485,11.469 20.644,11.575Z" style="fill:rgb(172,139,88);"/>
        <path d="M19.378,6.946C19.219,7.045 19.17,7.254 19.269,7.413C19.367,7.571 19.576,7.62 19.735,7.522C19.894,7.423 19.943,7.214 19.844,7.055C19.745,6.896 19.536,6.847 19.378,6.946Z" style="fill:rgb(172,139,88);"/>
        <path d="M19.724,8.043C19.566,8.142 19.517,8.351 19.616,8.509C19.714,8.668 19.923,8.717 20.082,8.618C20.241,8.52 20.29,8.311 20.191,8.152C20.092,7.993 19.883,7.944 19.724,8.043Z" style="fill:rgb(172,139,88);"/>
        <path d="M15.25,12.161C15.091,12.26 15.042,12.469 15.141,12.628C15.239,12.786 15.448,12.835 15.607,12.737C15.766,12.638 15.815,12.429 15.716,12.27C15.618,12.111 15.409,12.062 15.25,12.161Z" style="fill:rgb(172,139,88);"/>
        <path d="M14.757,12.011C14.681,12.058 14.658,12.159 14.705,12.235C14.753,12.312 14.853,12.335 14.929,12.288C15.006,12.24 15.029,12.14 14.982,12.063C14.934,11.987 14.834,11.963 14.757,12.011Z" style="fill:rgb(172,139,88);"/>
        <path d="M19.786,4.691C19.565,4.361 19.213,4.143 18.82,4.091C18.426,4.04 18.03,4.16 17.731,4.42C15.179,6.647 9.382,11.707 9.382,11.707L10.982,18.161C10.982,18.161 13.918,16.693 17.038,15.132C18.886,14.208 20.247,12.533 20.774,10.535C21.3,8.537 20.941,6.408 19.788,4.693C19.788,4.692 19.787,4.692 19.786,4.691Z" style="fill:rgb(172,139,88);"/>
        <path d="M19.481,4.371C19.336,4.121 19.092,3.945 18.81,3.887C18.527,3.83 18.233,3.895 18.002,4.067C16.351,5.297 12.807,7.936 10.399,9.729C8.966,10.797 8.469,12.718 9.204,14.347C9.99,16.087 10.852,17.996 10.852,17.996C10.852,17.996 13.491,16.621 16.362,15.124C18.237,14.146 19.631,12.445 20.22,10.414C20.809,8.384 20.542,6.201 19.481,4.372C19.481,4.371 19.481,4.371 19.481,4.371Z" style="fill:rgb(229,204,166);"/>
        <path d="M19.481,4.371C19.336,4.121 19.092,3.945 18.81,3.887C18.527,3.83 18.233,3.895 18.002,4.067C16.351,5.297 12.807,7.936 10.399,9.729C8.966,10.797 8.469,12.718 9.204,14.347C9.99,16.087 10.852,17.996 10.852,17.996C10.852,17.996 13.491,16.621 16.362,15.124C18.237,14.146 19.631,12.445 20.22,10.414C20.809,8.384 20.542,6.201 19.481,4.372C19.481,4.371 19.481,4.371 19.481,4.371ZM19.421,4.405L19.422,4.406C20.473,6.219 20.737,8.383 20.153,10.395C19.57,12.408 18.188,14.094 16.33,15.063C16.33,15.063 10.885,17.901 10.885,17.901C10.885,17.901 9.267,14.319 9.267,14.319C8.545,12.72 9.033,10.833 10.44,9.785C12.849,7.991 16.392,5.352 18.044,4.122C18.259,3.962 18.533,3.901 18.796,3.955C19.059,4.009 19.286,4.173 19.421,4.405Z" style="fill:rgb(247,235,216);"/>
        <path d="M11.22,14.705C10.915,14.945 10.861,15.387 11.101,15.693C11.341,15.998 11.783,16.052 12.089,15.812C12.394,15.572 12.448,15.129 12.208,14.824C11.968,14.519 11.525,14.465 11.22,14.705Z" style="fill:rgb(172,139,88);"/>
        <path d="M18.288,11.66C18.541,11.614 18.713,11.393 18.672,11.169C18.631,10.944 18.392,10.799 18.139,10.845C17.885,10.891 17.713,11.112 17.754,11.336C17.795,11.561 18.034,11.706 18.288,11.66Z" style="fill:rgb(172,139,88);"/>
        <path d="M12.106,13.802C11.959,13.918 11.934,14.131 12.049,14.278C12.165,14.425 12.378,14.45 12.525,14.335C12.672,14.22 12.698,14.006 12.582,13.859C12.467,13.712 12.253,13.687 12.106,13.802Z" style="fill:rgb(172,139,88);"/>
        <path d="M17.486,11.904C17.608,11.882 17.691,11.776 17.671,11.667C17.651,11.559 17.536,11.489 17.414,11.512C17.292,11.534 17.209,11.64 17.229,11.748C17.249,11.856 17.364,11.926 17.486,11.904Z" style="fill:rgb(172,139,88);"/>
        <path d="M19.496,10.598C19.667,10.685 19.877,10.616 19.966,10.442C20.055,10.269 19.989,10.057 19.819,9.97C19.649,9.882 19.439,9.952 19.35,10.126C19.26,10.299 19.326,10.51 19.496,10.598Z" style="fill:rgb(172,139,88);"/>
        <path d="M17.731,6.135C17.584,6.251 17.558,6.464 17.674,6.611C17.789,6.758 18.002,6.784 18.149,6.668C18.296,6.553 18.322,6.34 18.206,6.193C18.091,6.046 17.878,6.02 17.731,6.135Z" style="fill:rgb(172,139,88);"/>
        <path d="M18.196,7.188C18.049,7.303 18.023,7.516 18.138,7.663C18.254,7.81 18.467,7.836 18.614,7.721C18.761,7.605 18.787,7.392 18.671,7.245C18.556,7.098 18.343,7.072 18.196,7.188Z" style="fill:rgb(172,139,88);"/>
        <path d="M14.198,11.771C14.051,11.886 14.026,12.099 14.141,12.246C14.256,12.394 14.47,12.419 14.617,12.304C14.764,12.188 14.789,11.975 14.674,11.828C14.558,11.681 14.345,11.655 14.198,11.771Z" style="fill:rgb(172,139,88);"/>
        <path d="M13.693,11.675C13.622,11.731 13.61,11.833 13.665,11.904C13.721,11.975 13.823,11.987 13.894,11.932C13.964,11.876 13.977,11.774 13.921,11.703C13.866,11.632 13.763,11.62 13.693,11.675Z" style="fill:rgb(172,139,88);"/>
        <g>
            <path d="M11.092,9.536C13.23,10.79 13.935,13.566 12.664,15.733C11.394,17.899 8.626,18.64 6.487,17.386C4.348,16.133 3.643,13.356 4.914,11.19C6.185,9.024 8.953,8.283 11.092,9.536Z" style="fill:rgb(117,37,35);"/>
            <path d="M11.092,9.536C13.23,10.79 13.935,13.566 12.664,15.733C11.394,17.899 8.626,18.64 6.487,17.386C4.348,16.133 3.643,13.356 4.914,11.19C6.185,9.024 8.953,8.283 11.092,9.536ZM11.009,9.678C13.07,10.886 13.747,13.562 12.523,15.65C11.298,17.737 8.631,18.453 6.57,17.245C4.509,16.037 3.831,13.361 5.056,11.273C6.28,9.185 8.947,8.47 11.009,9.678L11.009,9.678Z" style="fill:rgb(212,147,146);"/>
            <path d="M7.183,14.297C7.642,14.565 8.08,14.67 7.808,15.134C7.536,15.598 7.094,15.657 6.636,15.388C6.178,15.12 5.875,14.624 6.147,14.16C6.42,13.696 6.725,14.028 7.183,14.297Z" style="fill:rgb(212,147,146);"/>
            <path d="M7.141,12.119C6.801,12.699 6.637,13.236 6.179,12.967C5.72,12.698 5.711,12.178 6.052,11.598C6.392,11.017 6.954,10.596 7.412,10.864C7.87,11.133 7.482,11.538 7.141,12.119Z" style="fill:rgb(212,147,146);"/>
            <path d="M11.745,15.591C11.911,15.689 11.965,15.904 11.867,16.072C11.769,16.239 11.554,16.297 11.388,16.2C11.223,16.103 11.274,15.949 11.372,15.782C11.471,15.614 11.579,15.494 11.745,15.591Z" style="fill:rgb(212,147,146);"/>
            <path d="M10.305,16.581C10.32,16.293 10.39,15.889 10.676,15.901C10.962,15.912 11.183,16.156 11.168,16.444C11.153,16.732 10.909,16.957 10.623,16.945C10.337,16.934 10.29,16.869 10.305,16.581Z" style="fill:rgb(212,147,146);"/>
            <path d="M8.244,15.86C8.416,15.961 8.334,16.103 8.232,16.277C8.13,16.451 8.046,16.592 7.874,16.491C7.702,16.39 7.646,16.167 7.748,15.993C7.85,15.819 8.072,15.759 8.244,15.86Z" style="fill:rgb(212,147,146);"/>
            <path d="M5.931,15.102C6.088,14.975 6.19,15.101 6.314,15.257C6.438,15.413 6.538,15.541 6.381,15.668C6.224,15.795 5.996,15.771 5.872,15.615C5.748,15.458 5.774,15.229 5.931,15.102Z" style="fill:rgb(212,147,146);"/>
            <path d="M12.234,15.151C12.28,15.179 12.295,15.242 12.266,15.291C12.237,15.341 12.175,15.359 12.128,15.331C12.081,15.304 12.067,15.241 12.096,15.192C12.125,15.142 12.187,15.124 12.234,15.151Z" style="fill:rgb(212,147,146);"/>
            <path d="M8.015,13.258C8.091,13.302 8.117,13.402 8.071,13.479C8.026,13.556 7.927,13.583 7.851,13.538C7.774,13.493 7.749,13.394 7.794,13.317C7.84,13.239 7.939,13.213 8.015,13.258Z" style="fill:rgb(212,147,146);"/>
            <path d="M11.909,15.191C11.956,15.219 11.971,15.281 11.941,15.331C11.912,15.38 11.851,15.398 11.804,15.371C11.757,15.343 11.742,15.281 11.772,15.231C11.801,15.182 11.862,15.164 11.909,15.191Z" style="fill:rgb(212,147,146);"/>
            <path d="M7.494,13.31C7.57,13.355 7.595,13.454 7.55,13.531C7.504,13.609 7.406,13.635 7.329,13.59C7.253,13.545 7.228,13.446 7.273,13.369C7.318,13.292 7.417,13.265 7.494,13.31Z" style="fill:rgb(212,147,146);"/>
            <path d="M12.106,15.43C12.153,15.457 12.168,15.52 12.138,15.57C12.109,15.619 12.048,15.637 12.001,15.61C11.954,15.582 11.94,15.52 11.969,15.47C11.998,15.42 12.059,15.402 12.106,15.43Z" style="fill:rgb(212,147,146);"/>
            <path d="M7.819,13.693C7.895,13.737 7.92,13.837 7.875,13.914C7.83,13.991 7.731,14.018 7.654,13.973C7.578,13.928 7.553,13.829 7.598,13.752C7.644,13.674 7.742,13.648 7.819,13.693Z" style="fill:rgb(212,147,146);"/>
            <path d="M10.698,15.47C10.705,15.323 10.842,15.39 11.018,15.397C11.194,15.404 11.344,15.348 11.336,15.496C11.329,15.643 11.18,15.757 11.004,15.75C10.827,15.743 10.69,15.617 10.698,15.47Z" style="fill:rgb(212,147,146);"/>
            <path d="M9.397,8.521C11.536,9.775 12.24,12.551 10.97,14.717C9.699,16.884 6.931,17.625 4.792,16.371C2.653,15.117 1.948,12.341 3.219,10.175C4.49,8.008 7.258,7.267 9.397,8.521Z" style="fill:rgb(117,37,35);"/>
            <path d="M9.397,8.521C11.536,9.775 12.24,12.551 10.97,14.717C9.699,16.884 6.931,17.625 4.792,16.371C2.653,15.117 1.948,12.341 3.219,10.175C4.49,8.008 7.258,7.267 9.397,8.521ZM9.314,8.663C11.375,9.871 12.053,12.547 10.828,14.634C9.603,16.722 6.936,17.437 4.875,16.229C2.814,15.021 2.136,12.345 3.361,10.258C4.585,8.17 7.253,7.454 9.314,8.663L9.314,8.663Z" style="fill:rgb(212,147,146);"/>
            <path d="M5.489,13.281C5.947,13.55 6.386,13.654 6.113,14.118C5.841,14.583 5.399,14.642 4.941,14.373C4.483,14.104 4.18,13.609 4.453,13.145C4.725,12.681 5.03,13.013 5.489,13.281Z" style="fill:rgb(212,147,146);"/>
            <path d="M5.446,11.103C5.106,11.683 4.942,12.22 4.484,11.952C4.025,11.683 4.017,11.163 4.357,10.582C4.697,10.002 5.259,9.58 5.717,9.849C6.176,10.118 5.787,10.523 5.446,11.103Z" style="fill:rgb(212,147,146);"/>
            <path d="M8.562,12.27C8.887,12.46 8.994,12.882 8.801,13.21C8.608,13.539 8.188,13.652 7.863,13.461C7.539,13.271 7.639,12.971 7.832,12.643C8.025,12.314 8.238,12.08 8.562,12.27Z" style="fill:rgb(212,147,146);"/>
            <path d="M8.61,15.565C8.625,15.277 8.695,14.874 8.981,14.886C9.267,14.897 9.488,15.14 9.473,15.428C9.459,15.717 9.214,15.941 8.928,15.93C8.642,15.918 8.596,15.854 8.61,15.565Z" style="fill:rgb(212,147,146);"/>
            <path d="M6.549,14.845C6.721,14.946 6.639,15.088 6.537,15.262C6.435,15.436 6.351,15.576 6.179,15.476C6.007,15.375 5.951,15.152 6.053,14.978C6.155,14.804 6.377,14.744 6.549,14.845Z" style="fill:rgb(212,147,146);"/>
            <path d="M4.236,14.087C4.393,13.96 4.495,14.086 4.619,14.242C4.743,14.398 4.843,14.526 4.686,14.652C4.53,14.779 4.302,14.755 4.177,14.599C4.053,14.443 4.08,14.213 4.236,14.087Z" style="fill:rgb(212,147,146);"/>
            <path d="M6.32,12.242C6.397,12.287 6.422,12.386 6.376,12.464C6.331,12.541 6.232,12.567 6.156,12.523C6.079,12.478 6.054,12.379 6.1,12.301C6.145,12.224 6.244,12.198 6.32,12.242Z" style="fill:rgb(212,147,146);"/>
            <path d="M5.799,12.295C5.875,12.339 5.9,12.438 5.855,12.516C5.81,12.593 5.711,12.62 5.634,12.575C5.558,12.53 5.533,12.431 5.578,12.354C5.624,12.276 5.722,12.25 5.799,12.295Z" style="fill:rgb(212,147,146);"/>
            <path d="M9.27,11.954C9.362,12.007 9.39,12.13 9.333,12.227C9.276,12.325 9.155,12.36 9.063,12.306C8.971,12.252 8.943,12.13 9,12.032C9.057,11.935 9.178,11.9 9.27,11.954Z" style="fill:rgb(212,147,146);"/>
            <path d="M6.124,12.677C6.2,12.722 6.226,12.821 6.18,12.899C6.135,12.976 6.036,13.002 5.96,12.958C5.883,12.913 5.858,12.814 5.903,12.736C5.949,12.659 6.048,12.633 6.124,12.677Z" style="fill:rgb(212,147,146);"/>
            <path d="M9.003,14.455C9.011,14.308 9.147,14.374 9.323,14.381C9.499,14.389 9.649,14.333 9.642,14.48C9.634,14.628 9.485,14.741 9.309,14.734C9.133,14.727 8.996,14.602 9.003,14.455Z" style="fill:rgb(212,147,146);"/>
        </g>
        <g>
            <path d="M14.441,2.962C14.667,2.981 14.868,2.803 14.888,2.564C14.908,2.326 14.74,2.117 14.513,2.098C14.287,2.079 14.086,2.257 14.066,2.495C14.046,2.734 14.214,2.943 14.441,2.962Z" style="fill:rgb(213,164,109);"/>
            <path d="M14.441,2.962C14.667,2.981 14.868,2.803 14.888,2.564C14.908,2.326 14.74,2.117 14.513,2.098C14.287,2.079 14.086,2.257 14.066,2.495C14.046,2.734 14.214,2.943 14.441,2.962Z" style="fill:rgb(201,162,119);"/>
            <path d="M15.239,3.17C15.375,3.182 15.495,3.075 15.507,2.932C15.519,2.789 15.419,2.663 15.283,2.652C15.147,2.641 15.026,2.748 15.014,2.891C15.002,3.034 15.103,3.159 15.239,3.17Z" style="fill:rgb(213,164,109);"/>
            <path d="M15.239,3.17C15.375,3.182 15.495,3.075 15.507,2.932C15.519,2.789 15.419,2.663 15.283,2.652C15.147,2.641 15.026,2.748 15.014,2.891C15.002,3.034 15.103,3.159 15.239,3.17Z" style="fill:rgb(201,162,119);"/>
            <path d="M15.135,2.489C15.223,2.497 15.301,2.427 15.309,2.334C15.317,2.241 15.252,2.16 15.163,2.152C15.075,2.145 14.997,2.214 14.989,2.307C14.981,2.4 15.046,2.482 15.135,2.489Z" style="fill:rgb(201,162,119);"/>
            <path d="M17.182,3.07C17.327,2.906 17.454,2.549 17.324,2.375C16.338,1.077 14.767,0.322 13.063,0.179C11.315,0.033 9.675,0.693 8.48,1.867C8.294,2.053 8.248,2.381 8.447,2.555C9.159,3.176 9.896,4.315 9.896,4.315C10.607,5.547 11.301,6.754 12.159,7.687C12.19,7.72 12.233,7.74 12.278,7.741C12.324,7.742 12.362,7.716 12.4,7.694C13.136,7.263 16.277,4.099 17.182,3.07Z" style="fill:rgb(219,192,130);"/>
            <path d="M12.219,7.729C12.219,7.729 12.38,7.92 12.51,7.817C12.763,7.619 13.175,7.225 13.816,6.627C14.273,6.201 15.295,5.114 15.795,4.648C16.719,3.786 17.187,3.446 17.595,3.052C17.751,2.901 17.77,2.657 17.64,2.484C16.654,1.186 15.179,0.304 13.475,0.161C12.95,0.117 12.783,-0.013 11.058,0.367C11.383,0.328 12.595,0.208 12.931,0.236C14.635,0.379 16.206,1.134 17.192,2.432C17.322,2.606 17.304,2.851 17.146,3C15.354,4.706 13.516,6.912 12.376,7.708C12.342,7.732 12.252,7.707 12.219,7.729Z" style="fill:rgb(176,123,51);"/>
            <path d="M16.907,2.648C16.946,2.479 16.861,2.315 16.719,2.282C16.576,2.249 16.721,2.467 16.682,2.636C16.644,2.805 16.436,2.862 16.578,2.895C16.721,2.928 16.868,2.817 16.907,2.648Z" style="fill:rgb(255,208,146);"/>
            <path d="M9.16,2.022C9.02,2.323 9.462,2.588 9.541,2.62C9.62,2.652 9.514,2.219 9.695,2.036C9.769,1.962 9.909,1.478 9.83,1.446C9.75,1.413 9.204,1.926 9.16,2.022Z" style="fill:rgb(255,208,146);"/>
            <path d="M12.899,6.722C12.899,6.722 14.721,4.883 14.858,4.618C14.995,4.353 16.06,3.337 16.06,3.337C16.06,3.337 16.428,3.253 16.09,3.559C15.753,3.866 15.24,4.394 15.005,4.73C14.672,5.204 12.496,7.243 12.899,6.722Z" style="fill:rgb(255,208,146);"/>
            <path d="M15.103,1.449C15.103,1.449 13.374,1.193 13.219,1.238C11.879,1.62 12.673,2.354 12.766,2.551C13.078,3.211 12.309,3.485 12.037,3.39C11.552,3.22 10.446,2.017 11.291,1.191C11.291,1.191 11.541,0.89 12.11,1.023C12.318,1.072 12.669,1.089 12.821,0.995C13.744,0.426 15.382,1.38 15.103,1.449Z" style="fill:rgb(255,208,146);"/>
        </g>
    </g>
</svg>
