<?xml version="1.0" encoding="UTF-8" standalone="no"?>
<!DOCTYPE svg PUBLIC "-//W3C//DTD SVG 1.1//EN" "http://www.w3.org/Graphics/SVG/1.1/DTD/svg11.dtd">
<svg width="25px" height="22px" version="1.1" xmlns="http://www.w3.org/2000/svg" xmlns:xlink="http://www.w3.org/1999/xlink" xml:space="preserve" xmlns:serif="http://www.serif.com/" style="fill-rule:evenodd;clip-rule:evenodd;stroke-linecap:round;stroke-linejoin:round;stroke-miterlimit:1.5;">
    <g transform="matrix(1,0,0,1,-2877,-927)">
        <g transform="matrix(1,0,0,1,-0.428643,-0.430113)">
            <g transform="matrix(1,0,0,1,-36.9804,-2.822)">
                <path d="M2927.29,932.454C2928.27,932.285 2928.46,932.377 2928.88,932.413C2930.59,932.556 2932.06,933.438 2933.05,934.736C2933.18,934.909 2933.16,935.153 2933,935.304C2932.6,935.698 2932.13,936.039 2931.2,936.9C2930.7,937.366 2929.68,938.454 2929.22,938.879C2928.58,939.477 2928.17,939.871 2927.92,940.07C2927.79,940.172 2927.63,939.981 2927.63,939.981C2927.61,939.971 2927.59,939.957 2927.57,939.939C2927.21,939.55 2926.88,939.112 2926.57,938.644L2926.57,938.649C2926.59,938.69 2926.61,938.73 2926.62,938.771C2926.66,938.851 2926.69,938.933 2926.72,939.015C2926.8,939.221 2926.86,939.433 2926.91,939.649C2926.99,940.019 2927.01,940.4 2926.99,940.778C2926.99,940.855 2926.98,940.932 2926.97,941.008C2926.97,941.047 2926.96,941.086 2926.96,941.125L2926.96,941.126L2933.41,936.319C2933.64,936.147 2933.94,936.082 2934.22,936.14C2934.5,936.197 2934.74,936.369 2934.88,936.613C2935,936.704 2935.11,936.815 2935.2,936.943C2935.2,936.944 2935.2,936.945 2935.2,936.946C2935.24,937.012 2935.28,937.079 2935.33,937.147C2935.57,937.023 2935.85,936.999 2936.11,937.082C2936.38,937.169 2936.6,937.366 2936.71,937.625C2936.82,937.729 2936.92,937.851 2936.99,937.987C2936.99,937.988 2936.99,937.989 2936.99,937.99C2937.95,939.821 2938.07,941.975 2937.33,943.904C2936.59,945.833 2935.05,947.349 2933.11,948.065C2929.84,949.275 2926.76,950.413 2926.76,950.413L2926.74,950.239L2926.39,950.413L2926.34,950.207L2926.26,950.248L2926.07,949.818L2926.06,949.82C2926.02,949.841 2925.97,949.861 2925.93,949.881C2925.83,949.921 2925.74,949.958 2925.64,949.992C2925.38,950.083 2925.11,950.151 2924.84,950.194C2924.55,950.24 2924.25,950.257 2923.95,950.244C2923.66,950.232 2923.37,950.191 2923.09,950.123C2922.9,950.076 2922.71,950.016 2922.53,949.944C2922.35,949.875 2922.18,949.794 2922.01,949.703C2921.8,949.585 2921.59,949.451 2921.4,949.3C2921.32,949.241 2921.25,949.179 2921.18,949.115C2921.14,949.083 2921.11,949.049 2921.07,949.016L2921.07,949.014C2920.77,948.917 2920.48,948.787 2920.2,948.623C2918.06,947.369 2917.36,944.593 2918.63,942.427L2918.03,945.328C2916.96,944.522 2916.27,943.26 2916.27,941.843C2916.27,939.41 2918.3,937.435 2920.82,937.435L2917.9,940.523C2917.9,938.091 2919.94,936.116 2922.45,936.116C2924.96,936.116 2927,938.091 2927,940.523L2926.04,937.813C2925.79,937.407 2925.55,936.989 2925.3,936.567C2925.3,936.567 2924.57,935.428 2923.86,934.807C2923.66,934.633 2923.7,934.306 2923.89,934.119C2925.08,932.945 2926.72,932.285 2928.47,932.431L2926.47,932.619L2926.47,932.618C2926.6,932.581 2926.74,932.549 2926.88,932.521C2927.01,932.494 2927.15,932.472 2927.28,932.455L2927.29,932.454ZM2927.78,939.963L2927.78,939.96C2927.78,939.961 2927.78,939.962 2927.78,939.963Z" style="fill:rgb(207,188,160);stroke:white;stroke-width:3px;"/>
            </g>
            <g transform="matrix(1,0,0,1,-9.07385,-2.59764)">
                <g transform="matrix(0.0812131,-2.31112e-33,1.54074e-33,0.0787009,2676.08,864.431)">
                    <circle cx="2690" cy="964" r="56" style="fill:rgb(207,188,160);"/>
                    <path d="M2690,908C2720.91,908 2746,933.093 2746,964C2746,994.907 2720.91,1020 2690,1020C2659.09,1020 2634,994.907 2634,964C2634,933.093 2659.09,908 2690,908ZM2690,913.269C2718.05,913.269 2740.89,935.954 2740.89,964C2740.89,992.046 2718.05,1014.73 2690,1014.73C2661.95,1014.73 2639.11,992.046 2639.11,964C2639.11,935.954 2661.95,913.269 2690,913.269Z" style="fill:rgb(118,72,45);"/>
                </g>
                <g transform="matrix(5.96414e-18,0.0940871,-0.0779215,4.60894e-18,2968.17,688.879)">
                    <path d="M2669,983.796C2690.94,985.835 2697.09,966.956 2697.09,973.579C2697.09,980.202 2685.87,989.896 2668.54,989.656C2655.95,989.482 2643.84,978.967 2643.84,972.344C2643.84,965.721 2648.01,981.845 2669,983.796Z" style="fill:rgb(234,225,210);"/>
                </g>
                <g transform="matrix(0.0252094,-0.0908811,0.0752664,0.0194812,2756.36,1164.49)">
                    <path d="M2669,983.796C2690.94,985.835 2697.09,966.956 2697.09,973.579C2697.09,980.202 2685.87,989.896 2668.54,989.656C2655.95,989.482 2643.84,978.967 2643.84,972.344C2643.84,965.721 2648.01,981.845 2669,983.796Z" style="fill:rgb(234,225,210);"/>
                </g>
                <g transform="matrix(-0.0720665,-0.0135627,0.0112324,-0.0556911,3076.75,1028.14)">
                    <path d="M2669,983.796C2690.94,985.835 2697.09,966.956 2697.09,973.579C2697.09,980.202 2685.87,989.896 2668.54,989.656C2655.95,989.482 2643.84,978.967 2643.84,972.344C2643.84,965.721 2648.01,981.845 2669,983.796Z" style="fill:rgb(234,225,210);"/>
                </g>
                <g transform="matrix(0.0709197,0.0183562,-0.0220131,0.0793581,2726.38,815.496)">
                    <path d="M2669,983.796C2690.94,985.835 2697.09,966.956 2697.09,973.579C2697.09,980.202 2685.87,989.896 2668.54,989.656C2655.95,989.482 2643.84,978.967 2643.84,972.344C2643.84,965.721 2648.01,981.845 2669,983.796Z" style="fill:rgb(234,225,210);"/>
                </g>
                <g transform="matrix(0.0971802,0.0251532,-0.0382601,0.137929,2672.78,738.355)">
                    <path d="M2669,983.796C2690.94,985.835 2697.09,966.956 2697.09,973.579C2697.09,980.202 2685.87,989.896 2668.54,989.656C2655.95,989.482 2643.84,978.967 2643.84,972.344C2643.84,965.721 2648.01,981.845 2669,983.796Z" style="fill:rgb(234,225,210);"/>
                </g>
                <g transform="matrix(0.142444,0,0,0.137596,1976.42,811.501)">
                    <circle cx="6449.17" cy="934.168" r="5.168" style="fill:rgb(234,225,210);"/>
                </g>
                <g transform="matrix(0.0812131,-2.31112e-33,1.54074e-33,0.0787009,2674.45,865.751)">
                    <circle cx="2690" cy="964" r="56" style="fill:rgb(207,188,160);"/>
                    <path d="M2690,908C2720.91,908 2746,933.093 2746,964C2746,994.907 2720.91,1020 2690,1020C2659.09,1020 2634,994.907 2634,964C2634,933.093 2659.09,908 2690,908ZM2690,913.269C2718.05,913.269 2740.89,935.954 2740.89,964C2740.89,992.046 2718.05,1014.73 2690,1014.73C2661.95,1014.73 2639.11,992.046 2639.11,964C2639.11,935.954 2661.95,913.269 2690,913.269Z" style="fill:rgb(118,72,45);"/>
                </g>
                <g transform="matrix(5.96414e-18,0.0940871,-0.0779215,4.60894e-18,2966.53,690.199)">
                    <path d="M2669,983.796C2690.94,985.835 2697.09,966.956 2697.09,973.579C2697.09,980.202 2685.87,989.896 2668.54,989.656C2655.95,989.482 2643.84,978.967 2643.84,972.344C2643.84,965.721 2648.01,981.845 2669,983.796Z" style="fill:rgb(234,225,210);"/>
                </g>
                <g transform="matrix(0.0252094,-0.0908811,0.0752664,0.0194812,2754.72,1165.81)">
                    <path d="M2669,983.796C2690.94,985.835 2697.09,966.956 2697.09,973.579C2697.09,980.202 2685.87,989.896 2668.54,989.656C2655.95,989.482 2643.84,978.967 2643.84,972.344C2643.84,965.721 2648.01,981.845 2669,983.796Z" style="fill:rgb(234,225,210);"/>
                </g>
                <g transform="matrix(-0.0720665,-0.0135627,0.0112324,-0.0556911,3075.11,1029.46)">
                    <path d="M2669,983.796C2690.94,985.835 2697.09,966.956 2697.09,973.579C2697.09,980.202 2685.87,989.896 2668.54,989.656C2655.95,989.482 2643.84,978.967 2643.84,972.344C2643.84,965.721 2648.01,981.845 2669,983.796Z" style="fill:rgb(234,225,210);"/>
                </g>
                <g transform="matrix(0.0709197,0.0183562,-0.0220131,0.0793581,2724.75,816.815)">
                    <path d="M2669,983.796C2690.94,985.835 2697.09,966.956 2697.09,973.579C2697.09,980.202 2685.87,989.896 2668.54,989.656C2655.95,989.482 2643.84,978.967 2643.84,972.344C2643.84,965.721 2648.01,981.845 2669,983.796Z" style="fill:rgb(234,225,210);"/>
                </g>
                <g transform="matrix(0.0971802,0.0251532,-0.0382601,0.137929,2671.14,739.675)">
                    <path d="M2669,983.796C2690.94,985.835 2697.09,966.956 2697.09,973.579C2697.09,980.202 2685.87,989.896 2668.54,989.656C2655.95,989.482 2643.84,978.967 2643.84,972.344C2643.84,965.721 2648.01,981.845 2669,983.796Z" style="fill:rgb(234,225,210);"/>
                </g>
                <g transform="matrix(0.142444,0,0,0.137596,1974.78,812.821)">
                    <circle cx="6449.17" cy="934.168" r="5.168" style="fill:rgb(234,225,210);"/>
                </g>
                <g transform="matrix(-0.0609626,0.0378758,0.0385591,0.0620624,3033.64,774.497)">
                    <path d="M2674.61,998.398C2674.2,992.983 2676.18,987.657 2680.05,983.776C2683.92,979.895 2689.29,977.833 2694.81,978.115C2741.93,980.525 2849,986 2849,986L2887,1069C2887,1069 2842.19,1078.01 2794.57,1087.58C2766.36,1093.25 2737.03,1086.72 2714.07,1069.65C2691.11,1052.59 2676.73,1026.65 2674.61,998.442C2674.61,998.427 2674.61,998.412 2674.61,998.398Z" style="fill:rgb(172,139,88);"/>
                </g>
                <g transform="matrix(-0.0597565,0.0371264,0.036569,0.0588592,3030.75,779.484)">
                    <path d="M2656.93,1007.22C2656.36,1003.1 2657.55,998.933 2660.19,995.758C2662.84,992.584 2666.7,990.708 2670.8,990.602C2700.06,989.847 2762.84,988.225 2805.5,987.123C2830.9,986.467 2853.33,1003.85 2859.4,1028.89C2865.88,1055.64 2873,1085 2873,1085C2873,1085 2831.42,1092.9 2786.18,1101.5C2756.64,1107.11 2726.12,1100.21 2701.72,1082.41C2677.3,1064.61 2661.13,1037.45 2656.93,1007.24C2656.93,1007.24 2656.93,1007.23 2656.93,1007.22Z" style="fill:rgb(229,204,166);"/>
                    <path d="M2656.93,1007.22C2656.36,1003.1 2657.55,998.933 2660.19,995.758C2662.84,992.584 2666.7,990.708 2670.8,990.602C2700.06,989.847 2762.84,988.225 2805.5,987.123C2830.9,986.467 2853.33,1003.85 2859.4,1028.89C2865.88,1055.64 2873,1085 2873,1085C2873,1085 2831.42,1092.9 2786.18,1101.5C2756.64,1107.11 2726.12,1100.21 2701.72,1082.41C2677.3,1064.61 2661.13,1037.45 2656.93,1007.24C2656.93,1007.24 2656.93,1007.23 2656.93,1007.22ZM2657.9,1007.08L2657.91,1007.1C2662.06,1037.05 2678.1,1063.96 2702.29,1081.6C2726.48,1099.25 2756.72,1106.08 2786,1100.52C2786,1100.52 2871.8,1084.21 2871.8,1084.21C2871.8,1084.21 2858.44,1029.13 2858.44,1029.13C2852.48,1004.54 2830.47,987.477 2805.53,988.12C2762.86,989.222 2700.08,990.844 2670.82,991.599C2667,991.698 2663.41,993.446 2660.94,996.403C2658.48,999.36 2657.37,1003.25 2657.9,1007.08Z" style="fill:rgb(247,235,216);"/>
                </g>
                <g transform="matrix(-0.0597565,0.0371264,0.0371264,0.0597565,3030.12,778.477)">
                    <circle cx="2840" cy="1062" r="10" style="fill:rgb(172,139,88);"/>
                </g>
                <g transform="matrix(0.0465546,-0.00332074,-0.0029468,-0.0413122,2777.71,997.417)">
                    <circle cx="2840" cy="1062" r="10" style="fill:rgb(172,139,88);"/>
                </g>
                <g transform="matrix(-0.0287768,0.0178789,0.0178789,0.0287768,2963.37,864.93)">
                    <circle cx="2840" cy="1062" r="10" style="fill:rgb(172,139,88);"/>
                </g>
                <g transform="matrix(0.0224192,-0.00159916,-0.00141908,-0.0198946,2843.83,970.152)">
                    <circle cx="2840" cy="1062" r="10" style="fill:rgb(172,139,88);"/>
                </g>
                <g transform="matrix(0.0289086,0.0191149,0.0194718,-0.0294484,2805.56,920.296)">
                    <circle cx="2840" cy="1062" r="10" style="fill:rgb(172,139,88);"/>
                </g>
                <g transform="matrix(-0.0287768,0.0178789,0.0178789,0.0287768,2969.8,857.925)">
                    <circle cx="2840" cy="1062" r="10" style="fill:rgb(172,139,88);"/>
                </g>
                <g transform="matrix(-0.0287768,0.0178789,0.0178789,0.0287768,2970.14,859.021)">
                    <circle cx="2840" cy="1062" r="10" style="fill:rgb(172,139,88);"/>
                </g>
                <g transform="matrix(-0.0287768,0.0178789,0.0178789,0.0287768,2965.67,863.14)">
                    <circle cx="2840" cy="1062" r="10" style="fill:rgb(172,139,88);"/>
                </g>
                <g transform="matrix(-0.0138377,0.00859728,0.00859728,0.0138377,2932.51,905.065)">
                    <circle cx="2840" cy="1062" r="10" style="fill:rgb(172,139,88);"/>
                </g>
                <g transform="matrix(-0.0564525,0.0443185,0.0451181,0.0574709,3013.23,760.805)">
                    <path d="M2674.61,998.398C2674.2,992.983 2676.18,987.657 2680.05,983.776C2683.92,979.895 2689.29,977.833 2694.81,978.115C2741.93,980.525 2849,986 2849,986L2887,1069C2887,1069 2842.19,1078.01 2794.57,1087.58C2766.36,1093.25 2737.03,1086.72 2714.07,1069.65C2691.11,1052.59 2676.73,1026.65 2674.61,998.442C2674.61,998.427 2674.61,998.412 2674.61,998.398Z" style="fill:rgb(172,139,88);"/>
                </g>
                <g transform="matrix(-0.0553356,0.0434417,0.0427894,0.0545047,3010.91,766.078)">
                    <path d="M2656.93,1007.22C2656.36,1003.1 2657.55,998.933 2660.19,995.758C2662.84,992.584 2666.7,990.708 2670.8,990.602C2700.06,989.847 2762.84,988.225 2805.5,987.123C2830.9,986.467 2853.33,1003.85 2859.4,1028.89C2865.88,1055.64 2873,1085 2873,1085C2873,1085 2831.42,1092.9 2786.18,1101.5C2756.64,1107.11 2726.12,1100.21 2701.72,1082.41C2677.3,1064.61 2661.13,1037.45 2656.93,1007.24C2656.93,1007.24 2656.93,1007.23 2656.93,1007.22Z" style="fill:rgb(229,204,166);"/>
                    <path d="M2656.93,1007.22C2656.36,1003.1 2657.55,998.933 2660.19,995.758C2662.84,992.584 2666.7,990.708 2670.8,990.602C2700.06,989.847 2762.84,988.225 2805.5,987.123C2830.9,986.467 2853.33,1003.85 2859.4,1028.89C2865.88,1055.64 2873,1085 2873,1085C2873,1085 2831.42,1092.9 2786.18,1101.5C2756.64,1107.11 2726.12,1100.21 2701.72,1082.41C2677.3,1064.61 2661.13,1037.45 2656.93,1007.24C2656.93,1007.24 2656.93,1007.23 2656.93,1007.22ZM2657.9,1007.08L2657.91,1007.1C2662.06,1037.05 2678.1,1063.96 2702.29,1081.6C2726.48,1099.25 2756.72,1106.08 2786,1100.52C2786,1100.52 2871.8,1084.21 2871.8,1084.21C2871.8,1084.21 2858.44,1029.13 2858.44,1029.13C2852.48,1004.54 2830.47,987.477 2805.53,988.12C2762.86,989.222 2700.08,990.844 2670.82,991.599C2667,991.698 2663.41,993.446 2660.94,996.403C2658.48,999.36 2657.37,1003.25 2657.9,1007.08Z" style="fill:rgb(247,235,216);"/>
                </g>
                <g transform="matrix(-0.0553356,0.0434417,0.0434417,0.0553356,3010.17,765.145)">
                    <circle cx="2840" cy="1062" r="10" style="fill:rgb(172,139,88);"/>
                </g>
                <g transform="matrix(0.0459117,-0.00839452,-0.00744924,-0.0407417,2783.24,1010.39)">
                    <circle cx="2840" cy="1062" r="10" style="fill:rgb(172,139,88);"/>
                </g>
                <g transform="matrix(-0.0266478,0.0209201,0.0209201,0.0266478,2953.28,858.383)">
                    <circle cx="2840" cy="1062" r="10" style="fill:rgb(172,139,88);"/>
                </g>
                <g transform="matrix(0.0221096,-0.00404253,-0.00358731,-0.0196199,2845.97,976.053)">
                    <circle cx="2840" cy="1062" r="10" style="fill:rgb(172,139,88);"/>
                </g>
                <g transform="matrix(0.0308264,0.0158371,0.0161329,-0.0314021,2802.48,930.683)">
                    <circle cx="2840" cy="1062" r="10" style="fill:rgb(172,139,88);"/>
                </g>
                <g transform="matrix(-0.0266478,0.0209201,0.0209201,0.0266478,2958.91,850.717)">
                    <circle cx="2840" cy="1062" r="10" style="fill:rgb(172,139,88);"/>
                </g>
                <g transform="matrix(-0.0266478,0.0209201,0.0209201,0.0266478,2959.37,851.769)">
                    <circle cx="2840" cy="1062" r="10" style="fill:rgb(172,139,88);"/>
                </g>
                <g transform="matrix(-0.0266478,0.0209201,0.0209201,0.0266478,2955.37,856.352)">
                    <circle cx="2840" cy="1062" r="10" style="fill:rgb(172,139,88);"/>
                </g>
                <g transform="matrix(-0.0128139,0.0100597,0.0100597,0.0128139,2927,901.653)">
                    <circle cx="2840" cy="1062" r="10" style="fill:rgb(172,139,88);"/>
                </g>
                <g transform="matrix(0.883626,0,0,0.883626,338.341,111.243)">
                    <g transform="matrix(0.0783137,0.0459036,-0.0465301,0.079321,2729.03,744.171)">
                        <circle cx="2690" cy="964" r="56" style="fill:rgb(117,37,35);"/>
                        <path d="M2690,908C2720.91,908 2746,933.093 2746,964C2746,994.907 2720.91,1020 2690,1020C2659.09,1020 2634,994.907 2634,964C2634,933.093 2659.09,908 2690,908ZM2690,910.021C2719.78,910.021 2743.95,934.215 2743.95,963.999C2743.95,993.785 2719.78,1017.98 2690,1017.98C2660.22,1017.98 2636.05,993.785 2636.05,964.001C2636.05,934.216 2660.22,910.021 2690,910.021L2690,910.021Z" style="fill:rgb(212,147,146);"/>
                    </g>
                    <g transform="matrix(0.0783137,0.0459036,-0.0465301,0.079321,2729.18,745.525)">
                        <path d="M2669,971C2675.62,971 2681,969.377 2681,976C2681,982.623 2676.62,986 2670,986C2663.38,986 2657,982.623 2657,976C2657,969.377 2662.38,971 2669,971Z" style="fill:rgb(212,147,146);"/>
                    </g>
                    <g transform="matrix(-0.0581627,0.0991512,-0.0783137,-0.0459036,3124.25,722.535)">
                        <path d="M2669,971C2675.62,971 2681,969.377 2681,976C2681,982.623 2676.62,986 2670,986C2663.38,986 2657,982.623 2657,976C2657,969.377 2662.38,971 2669,971Z" style="fill:rgb(212,147,146);"/>
                    </g>
                    <g transform="matrix(0.0283173,0.0165982,-0.0168247,0.0286815,2838.82,874.578)">
                        <path d="M2669,964C2675.62,964 2681,969.377 2681,976C2681,982.623 2675.62,988 2669,988C2662.38,988 2661.24,982.623 2661.24,976C2661.24,969.377 2662.38,964 2669,964Z" style="fill:rgb(212,147,146);"/>
                    </g>
                    <g transform="matrix(0.00250785,-0.0492358,0.0489136,0.00195737,2842.51,1076.97)">
                        <path d="M2665.07,968.234C2671.69,968.234 2681,969.377 2681,976C2681,982.623 2675.62,988 2669,988C2662.38,988 2657,982.623 2657,976C2657,969.377 2658.44,968.234 2665.07,968.234Z" style="fill:rgb(212,147,146);"/>
                    </g>
                    <g transform="matrix(0.0293676,0.0172138,-0.0174488,0.0297454,2832.66,872.213)">
                        <path d="M2669,964C2675.62,964 2675.67,969.377 2675.67,976C2675.67,982.623 2675.62,988 2669,988C2662.38,988 2657,982.623 2657,976C2657,969.377 2662.38,964 2669,964Z" style="fill:rgb(212,147,146);"/>
                    </g>
                    <g transform="matrix(0.0267672,-0.0216601,0.0212235,0.0266823,2799.7,978.063)">
                        <path d="M2669,964C2675.62,964 2675.67,969.377 2675.67,976C2675.67,982.623 2675.62,988 2669,988C2662.38,988 2657,982.623 2657,976C2657,969.377 2662.38,964 2669,964Z" style="fill:rgb(212,147,146);"/>
                    </g>
                    <g transform="matrix(0.00800743,0.00469356,-0.00497588,0.0084825,2882.16,925.325)">
                        <circle cx="2669" cy="976" r="12" style="fill:rgb(212,147,146);"/>
                    </g>
                    <g transform="matrix(0.0130523,0.00765059,-0.00775502,0.0132202,2866.6,910.722)">
                        <circle cx="2669" cy="976" r="12" style="fill:rgb(212,147,146);"/>
                    </g>
                    <g transform="matrix(0.00800743,0.00469356,-0.00497588,0.0084825,2881.79,925.37)">
                        <circle cx="2669" cy="976" r="12" style="fill:rgb(212,147,146);"/>
                    </g>
                    <g transform="matrix(0.0130523,0.00765059,-0.00775502,0.0132202,2866.01,910.782)">
                        <circle cx="2669" cy="976" r="12" style="fill:rgb(212,147,146);"/>
                    </g>
                    <g transform="matrix(0.00800743,0.00469356,-0.00497588,0.0084825,2882.01,925.64)">
                        <circle cx="2669" cy="976" r="12" style="fill:rgb(212,147,146);"/>
                    </g>
                    <g transform="matrix(0.0130523,0.00765059,-0.00775502,0.0132202,2866.38,911.215)">
                        <circle cx="2669" cy="976" r="12" style="fill:rgb(212,147,146);"/>
                    </g>
                    <g transform="matrix(0.00128179,-0.0251648,0.0301032,0.00120463,2864.55,1012.39)">
                        <path d="M2669,964C2675.62,964 2672.87,969.234 2672.87,975.857C2672.87,982.48 2675.62,988 2669,988C2662.38,988 2657,982.623 2657,976C2657,969.377 2662.38,964 2669,964Z" style="fill:rgb(212,147,146);"/>
                    </g>
                    <g transform="matrix(0.0783137,0.0459036,-0.0465301,0.079321,2727.11,743.022)">
                        <circle cx="2690" cy="964" r="56" style="fill:rgb(117,37,35);"/>
                        <path d="M2690,908C2720.91,908 2746,933.093 2746,964C2746,994.907 2720.91,1020 2690,1020C2659.09,1020 2634,994.907 2634,964C2634,933.093 2659.09,908 2690,908ZM2690,910.021C2719.78,910.021 2743.95,934.215 2743.95,963.999C2743.95,993.785 2719.78,1017.98 2690,1017.98C2660.22,1017.98 2636.05,993.785 2636.05,964.001C2636.05,934.216 2660.22,910.021 2690,910.021L2690,910.021Z" style="fill:rgb(212,147,146);"/>
                    </g>
                    <g transform="matrix(0.0783137,0.0459036,-0.0465301,0.079321,2727.26,744.376)">
                        <path d="M2669,971C2675.62,971 2681,969.377 2681,976C2681,982.623 2676.62,986 2670,986C2663.38,986 2657,982.623 2657,976C2657,969.377 2662.38,971 2669,971Z" style="fill:rgb(212,147,146);"/>
                    </g>
                    <g transform="matrix(-0.0581627,0.0991512,-0.0783137,-0.0459036,3122.33,721.386)">
                        <path d="M2669,971C2675.62,971 2681,969.377 2681,976C2681,982.623 2676.62,986 2670,986C2663.38,986 2657,982.623 2657,976C2657,969.377 2662.38,971 2669,971Z" style="fill:rgb(212,147,146);"/>
                    </g>
                    <g transform="matrix(0.0554722,0.032515,-0.0329588,0.0561857,2778.3,801.823)">
                        <path d="M2669,964C2675.62,964 2681,969.377 2681,976C2681,982.623 2675.62,988 2669,988C2662.38,988 2661.24,982.623 2661.24,976C2661.24,969.377 2662.38,964 2669,964Z" style="fill:rgb(212,147,146);"/>
                    </g>
                    <g transform="matrix(0.00250785,-0.0492358,0.0489136,0.00195737,2840.59,1075.82)">
                        <path d="M2665.07,968.234C2671.69,968.234 2681,969.377 2681,976C2681,982.623 2675.62,988 2669,988C2662.38,988 2657,982.623 2657,976C2657,969.377 2658.44,968.234 2665.07,968.234Z" style="fill:rgb(212,147,146);"/>
                    </g>
                    <g transform="matrix(0.0293676,0.0172138,-0.0174488,0.0297454,2830.74,871.064)">
                        <path d="M2669,964C2675.62,964 2675.67,969.377 2675.67,976C2675.67,982.623 2675.62,988 2669,988C2662.38,988 2657,982.623 2657,976C2657,969.377 2662.38,964 2669,964Z" style="fill:rgb(212,147,146);"/>
                    </g>
                    <g transform="matrix(0.0267672,-0.0216601,0.0212235,0.0266823,2797.78,976.913)">
                        <path d="M2669,964C2675.62,964 2675.67,969.377 2675.67,976C2675.67,982.623 2675.62,988 2669,988C2662.38,988 2657,982.623 2657,976C2657,969.377 2662.38,964 2669,964Z" style="fill:rgb(212,147,146);"/>
                    </g>
                    <g transform="matrix(0.0130523,0.00765059,-0.00775502,0.0132202,2864.68,909.573)">
                        <circle cx="2669" cy="976" r="12" style="fill:rgb(212,147,146);"/>
                    </g>
                    <g transform="matrix(0.0130523,0.00765059,-0.00775502,0.0132202,2864.09,909.633)">
                        <circle cx="2669" cy="976" r="12" style="fill:rgb(212,147,146);"/>
                    </g>
                    <g transform="matrix(0.0156862,0.00919446,-0.00974752,0.0166168,2862.91,901.852)">
                        <circle cx="2669" cy="976" r="12" style="fill:rgb(212,147,146);"/>
                    </g>
                    <g transform="matrix(0.0130523,0.00765059,-0.00775502,0.0132202,2864.46,910.066)">
                        <circle cx="2669" cy="976" r="12" style="fill:rgb(212,147,146);"/>
                    </g>
                    <g transform="matrix(0.00128179,-0.0251648,0.0301032,0.00120463,2862.64,1011.24)">
                        <path d="M2669,964C2675.62,964 2672.87,969.234 2672.87,975.857C2672.87,982.48 2675.62,988 2669,988C2662.38,988 2657,982.623 2657,976C2657,969.377 2662.38,964 2669,964Z" style="fill:rgb(212,147,146);"/>
                    </g>
                </g>
                <g transform="matrix(0.979511,-0.201389,0.201389,0.979511,-129.084,603.29)">
                    <g transform="matrix(0.0790568,0.0232772,0.0244876,-0.0831678,2354.51,1010.39)">
                        <circle cx="6117" cy="2619.64" r="5" style="fill:rgb(213,164,109);"/>
                    </g>
                    <g transform="matrix(0.0790568,0.0232772,0.0244876,-0.0831678,2354.51,1010.39)">
                        <circle cx="6117" cy="2619.64" r="5" style="fill:rgb(201,162,119);"/>
                    </g>
                    <g transform="matrix(0.0474341,0.0139663,0.0146926,-0.0499007,2574.3,980.724)">
                        <circle cx="6117" cy="2619.64" r="5" style="fill:rgb(213,164,109);"/>
                    </g>
                    <g transform="matrix(0.0474341,0.0139663,0.0146926,-0.0499007,2574.3,980.724)">
                        <circle cx="6117" cy="2619.64" r="5" style="fill:rgb(201,162,119);"/>
                    </g>
                    <g transform="matrix(0.0308395,0.00908026,0.00955243,-0.0324431,2689.28,964.278)">
                        <circle cx="6117" cy="2619.64" r="5" style="fill:rgb(201,162,119);"/>
                    </g>
                    <g transform="matrix(0.0790568,0.0232772,0.0244876,-0.0831678,2348.85,1009.71)">
                        <path d="M6218.39,2627.04C6219.97,2629.06 6221.15,2633.29 6219.4,2635.16C6206.16,2649.13 6186.4,2656.3 6165.65,2656.3C6144.36,2656.3 6125.2,2647.13 6111.95,2632.48C6109.88,2630.16 6109.66,2626.35 6112.24,2624.55C6121.47,2618.09 6131.55,2605.71 6131.55,2605.71C6141.39,2592.24 6151,2579.03 6162.33,2569.13C6162.73,2568.78 6163.27,2568.6 6163.82,2568.63C6164.37,2568.66 6164.8,2568.99 6165.25,2569.29C6173.71,2574.95 6208.48,2614.34 6218.39,2627.04Z" style="fill:rgb(219,192,130);"/>
                    </g>
                    <g transform="matrix(0.0790568,0.0232772,0.0244876,-0.0831678,2349.26,1009.78)">
                        <path d="M6158.12,2568.11C6158.12,2568.11 6160.27,2566.07 6161.74,2567.37C6164.59,2569.89 6169.18,2574.82 6176.32,2582.31C6181.41,2587.64 6192.67,2601.12 6198.24,2606.96C6208.55,2617.75 6213.86,2622.12 6218.39,2627.04C6220.12,2628.92 6220.11,2631.74 6218.36,2633.62C6205.13,2647.59 6186.4,2656.3 6165.65,2656.3C6159.25,2656.3 6157.1,2657.64 6136.63,2651.61C6140.53,2652.36 6155.06,2654.91 6159.15,2654.91C6179.89,2654.91 6199.65,2647.74 6212.89,2633.77C6214.64,2631.9 6214.67,2629.07 6212.92,2627.2C6192.98,2605.87 6172.99,2578.74 6160.01,2568.5C6159.61,2568.19 6158.5,2568.39 6158.12,2568.11Z" style="fill:rgb(176,123,51);"/>
                    </g>
                    <g transform="matrix(0.0289815,-0.0635498,-0.096566,-0.0440383,2978.95,1436.5)">
                        <path d="M6084.5,2596C6086.98,2596 6089,2597.12 6089,2598.5C6089,2599.88 6086.42,2598.09 6083.94,2598.09C6081.46,2598.09 6080,2599.88 6080,2598.5C6080,2597.12 6082.02,2596 6084.5,2596Z" style="fill:rgb(255,208,146);"/>
                    </g>
                    <g transform="matrix(-0.0236308,0.0353713,0.0515246,0.0344225,2907.17,628.757)">
                        <path d="M6084.5,2596C6092.28,2595.74 6094.14,2603.96 6094.14,2605.34C6094.14,2606.72 6085.64,2602.5 6080.07,2604.09C6077.79,2604.74 6066.02,2603.89 6066.02,2602.51C6066.02,2601.14 6082.02,2596.08 6084.5,2596Z" style="fill:rgb(255,208,146);"/>
                    </g>
                    <g transform="matrix(0.104748,0.119426,0.119426,-0.104748,1948.98,479.97)">
                        <path d="M6118,2596C6118,2596 6120.16,2612.16 6119.84,2614.01C6119.52,2615.85 6121,2625 6121,2625C6121,2625 6122.53,2626.82 6122,2624C6121.47,2621.18 6120.91,2616.58 6121,2614C6121.13,2610.36 6117.96,2591.86 6118,2596Z" style="fill:rgb(255,208,146);"/>
                    </g>
                    <g transform="matrix(-0.00994067,-0.158543,-0.069237,0.00434116,3142.77,1892.16)">
                        <path d="M6114.47,2583.98C6114.47,2583.98 6118.88,2607.07 6118.87,2609.39C6118.76,2629.48 6112.99,2621.2 6111.63,2620.65C6107.11,2618.82 6106.72,2630.55 6107.75,2633.97C6109.58,2640.07 6118.71,2650.91 6122.33,2636.03C6122.33,2636.03 6123.75,2631.42 6122,2624C6121.36,2621.3 6120.68,2616.48 6121,2614C6122.93,2599.02 6114.43,2579.84 6114.47,2583.98Z" style="fill:rgb(255,208,146);"/>
                    </g>
                </g>
            </g>
        </g>
    </g>
</svg>
