<?xml version="1.0" encoding="UTF-8" standalone="no"?><!DOCTYPE svg PUBLIC "-//W3C//DTD SVG 1.1//EN" "http://www.w3.org/Graphics/SVG/1.1/DTD/svg11.dtd"><svg width="100%" height="100%" viewBox="0 0 35 17" version="1.1" xmlns="http://www.w3.org/2000/svg" xmlns:xlink="http://www.w3.org/1999/xlink" xml:space="preserve" xmlns:serif="http://www.serif.com/" style="fill-rule:evenodd;clip-rule:evenodd;stroke-linejoin:round;stroke-miterlimit:2;"><rect id="Tavola-da-disegno5" serif:id="Tavola da disegno5" x="0.094" y="0" width="33.808" height="16.329" style="fill:none;"/><g><g><path d="M7.411,9.706c1.495,0.858 1.655,2.377 0.358,3.392c-1.297,1.014 -3.563,1.141 -5.058,0.284c-1.495,-0.858 -1.656,-2.377 -0.359,-3.392c1.297,-1.014 3.564,-1.141 5.059,-0.284Z" style="fill:#752523;"/><path d="M7.411,9.706c1.495,0.858 1.655,2.377 0.358,3.392c-1.297,1.014 -3.563,1.141 -5.058,0.284c-1.495,-0.858 -1.656,-2.377 -0.359,-3.392c1.297,-1.014 3.564,-1.141 5.059,-0.284Zm-0.044,0.076c0.719,0.412 1.121,0.98 1.183,1.57c0.062,0.587 -0.214,1.191 -0.835,1.677c-1.272,0.994 -3.495,1.118 -4.961,0.277c-0.718,-0.412 -1.12,-0.98 -1.183,-1.57c-0.062,-0.588 0.215,-1.191 0.835,-1.677c1.272,-0.994 3.495,-1.118 4.961,-0.277l0,0Z" style="fill:#d49392;"/><path d="M3.689,11.83c0.32,0.184 0.648,0.28 0.37,0.497c-0.278,0.217 -0.631,0.207 -0.951,0.023c-0.321,-0.184 -0.487,-0.471 -0.21,-0.689c0.278,-0.217 0.47,-0.015 0.791,0.169Z" style="fill:#d49392;"/><path d="M3.962,10.686c-0.348,0.272 -0.551,0.537 -0.872,0.354c-0.32,-0.184 -0.254,-0.457 0.094,-0.729c0.347,-0.272 0.845,-0.44 1.165,-0.256c0.321,0.184 -0.04,0.359 -0.387,0.631Z" style="fill:#d49392;"/><path d="M6.232,11.59c0.227,0.13 0.252,0.361 0.055,0.515c-0.197,0.154 -0.541,0.173 -0.768,0.043c-0.227,-0.13 -0.106,-0.278 0.091,-0.432c0.196,-0.154 0.395,-0.256 0.622,-0.126Z" style="fill:#d49392;"/><path d="M7.435,10.349c0.228,0.163 0.235,0.409 0.015,0.548c-0.221,0.139 -0.441,-0.03 -0.669,-0.194c-0.228,-0.163 -0.379,-0.258 -0.159,-0.397c0.22,-0.14 0.584,-0.12 0.813,0.043Z" style="fill:#d49392;"/><path d="M5.807,13.319c0.052,-0.149 0.163,-0.353 0.385,-0.321c0.222,0.033 0.36,0.181 0.308,0.331c-0.052,0.149 -0.274,0.244 -0.496,0.211c-0.222,-0.033 -0.249,-0.071 -0.197,-0.221Z" style="fill:#d49392;"/><path d="M4.298,12.748c0.12,0.069 0.036,0.136 -0.068,0.217c-0.104,0.082 -0.19,0.148 -0.31,0.079c-0.12,-0.069 -0.133,-0.191 -0.029,-0.273c0.105,-0.081 0.287,-0.092 0.407,-0.023Z" style="fill:#d49392;"/><path d="M6.632,10.067c0.12,0.069 0.036,0.136 -0.068,0.217c-0.104,0.082 -0.189,0.148 -0.31,0.079c-0.12,-0.069 -0.133,-0.191 -0.028,-0.273c0.104,-0.081 0.286,-0.092 0.406,-0.023Z" style="fill:#d49392;"/><path d="M2.597,12.134c0.14,-0.052 0.202,0.024 0.277,0.117c0.075,0.094 0.136,0.17 -0.005,0.221c-0.14,0.052 -0.315,0.018 -0.39,-0.075c-0.075,-0.094 -0.022,-0.212 0.118,-0.263Z" style="fill:#d49392;"/><path d="M7.101,11.229c0.064,0.037 0.069,0.104 0.01,0.149c-0.058,0.046 -0.157,0.053 -0.221,0.016c-0.064,-0.037 -0.069,-0.104 -0.011,-0.149c0.058,-0.046 0.158,-0.053 0.222,-0.016Z" style="fill:#d49392;"/><path d="M4.484,11.364c0.054,0.031 0.06,0.085 0.013,0.122c-0.046,0.036 -0.127,0.04 -0.18,0.01c-0.054,-0.031 -0.06,-0.085 -0.013,-0.121c0.046,-0.037 0.127,-0.041 0.18,-0.011Z" style="fill:#d49392;"/><path d="M6.594,11.21c0.064,0.036 0.068,0.103 0.01,0.149c-0.058,0.045 -0.157,0.052 -0.221,0.016c-0.065,-0.037 -0.069,-0.104 -0.011,-0.15c0.058,-0.045 0.157,-0.052 0.222,-0.015Z" style="fill:#d49392;"/><path d="M4.07,11.343c0.053,0.03 0.059,0.085 0.013,0.121c-0.047,0.036 -0.128,0.041 -0.181,0.01c-0.054,-0.031 -0.059,-0.085 -0.013,-0.121c0.046,-0.036 0.127,-0.041 0.181,-0.01Z" style="fill:#d49392;"/><path d="M6.829,11.491c0.065,0.037 0.069,0.104 0.011,0.149c-0.058,0.046 -0.157,0.053 -0.222,0.016c-0.064,-0.037 -0.069,-0.104 -0.01,-0.149c0.058,-0.046 0.157,-0.053 0.221,-0.016Z" style="fill:#d49392;"/><path d="M4.27,11.574c0.053,0.03 0.059,0.085 0.013,0.121c-0.047,0.036 -0.127,0.041 -0.181,0.01c-0.053,-0.031 -0.059,-0.085 -0.013,-0.121c0.047,-0.036 0.128,-0.041 0.181,-0.01Z" style="fill:#d49392;"/><path d="M6.27,12.775c0.026,-0.076 0.123,-0.029 0.26,-0.008c0.137,0.02 0.261,0.005 0.235,0.081c-0.027,0.077 -0.159,0.122 -0.296,0.102c-0.136,-0.02 -0.226,-0.099 -0.199,-0.175Z" style="fill:#d49392;"/></g><g><path d="M6.229,9.015c1.495,0.858 1.656,2.377 0.359,3.392c-1.297,1.014 -3.564,1.141 -5.059,0.284c-1.495,-0.858 -1.655,-2.377 -0.358,-3.392c1.297,-1.014 3.563,-1.141 5.058,-0.284Z" style="fill:#752523;"/><path d="M6.229,9.015c1.495,0.858 1.656,2.377 0.359,3.392c-1.297,1.014 -3.564,1.141 -5.059,0.284c-1.495,-0.858 -1.655,-2.377 -0.358,-3.392c1.297,-1.014 3.563,-1.141 5.058,-0.284Zm-0.043,0.076c0.718,0.412 1.12,0.98 1.182,1.57c0.062,0.588 -0.214,1.191 -0.834,1.677c-1.272,0.994 -3.495,1.118 -4.961,0.277c-0.719,-0.412 -1.121,-0.98 -1.183,-1.57c-0.062,-0.588 0.214,-1.191 0.835,-1.677c1.272,-0.994 3.495,-1.118 4.961,-0.277l-0,0Z" style="fill:#d49392;"/><path d="M2.507,11.139c0.321,0.184 0.649,0.28 0.371,0.497c-0.278,0.217 -0.632,0.207 -0.952,0.023c-0.32,-0.184 -0.487,-0.471 -0.209,-0.689c0.278,-0.217 0.47,-0.015 0.79,0.169Z" style="fill:#d49392;"/><path d="M2.78,9.995c-0.347,0.272 -0.551,0.537 -0.871,0.354c-0.32,-0.184 -0.254,-0.457 0.093,-0.729c0.348,-0.272 0.846,-0.44 1.166,-0.256c0.32,0.184 -0.04,0.359 -0.388,0.631Z" style="fill:#d49392;"/><path d="M5.051,10.899c0.227,0.13 0.251,0.361 0.054,0.515c-0.197,0.154 -0.541,0.173 -0.768,0.043c-0.227,-0.13 -0.106,-0.278 0.091,-0.432c0.197,-0.154 0.396,-0.256 0.623,-0.126Z" style="fill:#d49392;"/><path d="M6.253,9.658c0.229,0.163 0.235,0.409 0.015,0.548c-0.22,0.139 -0.44,-0.03 -0.669,-0.194c-0.228,-0.163 -0.379,-0.258 -0.159,-0.397c0.221,-0.139 0.585,-0.12 0.813,0.043Z" style="fill:#d49392;"/><path d="M4.625,12.628c0.052,-0.149 0.164,-0.353 0.386,-0.32c0.222,0.032 0.36,0.181 0.308,0.33c-0.052,0.149 -0.275,0.244 -0.497,0.211c-0.222,-0.033 -0.249,-0.071 -0.197,-0.221Z" style="fill:#d49392;"/><path d="M3.116,12.057c0.12,0.069 0.037,0.136 -0.068,0.217c-0.104,0.082 -0.189,0.148 -0.309,0.079c-0.12,-0.069 -0.133,-0.191 -0.029,-0.273c0.104,-0.081 0.286,-0.092 0.406,-0.023Z" style="fill:#d49392;"/><path d="M5.451,9.376c0.12,0.069 0.036,0.136 -0.068,0.217c-0.105,0.082 -0.19,0.148 -0.31,0.079c-0.12,-0.069 -0.133,-0.191 -0.029,-0.273c0.104,-0.081 0.286,-0.092 0.407,-0.023Z" style="fill:#d49392;"/><path d="M1.416,11.443c0.14,-0.052 0.202,0.024 0.277,0.117c0.075,0.094 0.135,0.17 -0.005,0.221c-0.14,0.052 -0.315,0.018 -0.39,-0.075c-0.075,-0.094 -0.023,-0.212 0.118,-0.263Z" style="fill:#d49392;"/><path d="M5.919,10.538c0.064,0.037 0.069,0.104 0.011,0.149c-0.058,0.046 -0.158,0.053 -0.222,0.016c-0.064,-0.037 -0.069,-0.104 -0.011,-0.149c0.059,-0.046 0.158,-0.053 0.222,-0.016Z" style="fill:#d49392;"/><path d="M3.303,10.674c0.053,0.03 0.059,0.084 0.013,0.121c-0.047,0.036 -0.128,0.04 -0.181,0.01c-0.053,-0.031 -0.059,-0.085 -0.013,-0.121c0.047,-0.037 0.128,-0.041 0.181,-0.01Z" style="fill:#d49392;"/><path d="M5.412,10.519c0.064,0.037 0.069,0.103 0.011,0.149c-0.058,0.045 -0.158,0.053 -0.222,0.016c-0.064,-0.037 -0.069,-0.104 -0.011,-0.149c0.058,-0.046 0.158,-0.053 0.222,-0.016Z" style="fill:#d49392;"/><path d="M2.888,10.652c0.054,0.03 0.059,0.085 0.013,0.121c-0.046,0.036 -0.127,0.041 -0.181,0.01c-0.053,-0.03 -0.059,-0.085 -0.012,-0.121c0.046,-0.036 0.127,-0.041 0.18,-0.01Z" style="fill:#d49392;"/><path d="M5.648,10.8c0.064,0.037 0.069,0.104 0.011,0.149c-0.059,0.046 -0.158,0.053 -0.222,0.016c-0.064,-0.037 -0.069,-0.104 -0.011,-0.149c0.058,-0.046 0.158,-0.053 0.222,-0.016Z" style="fill:#d49392;"/><path d="M3.088,10.883c0.054,0.03 0.06,0.085 0.013,0.121c-0.046,0.036 -0.127,0.041 -0.18,0.01c-0.054,-0.031 -0.06,-0.085 -0.013,-0.121c0.046,-0.036 0.127,-0.041 0.18,-0.01Z" style="fill:#d49392;"/><path d="M5.088,12.084c0.027,-0.076 0.124,-0.028 0.26,-0.008c0.137,0.02 0.262,0.005 0.235,0.082c-0.026,0.076 -0.159,0.121 -0.295,0.101c-0.137,-0.02 -0.226,-0.099 -0.2,-0.175Z" style="fill:#d49392;"/></g><g><g><g><path d="M6.928,10.923c0,0 -1.982,-0.517 -1.971,-3.8c0,-0.015 -0.01,-2.064 2.546,-2.674c1.531,-0.365 5.959,-0.803 6.915,-0.816c2.572,-0.034 15.743,-0.432 16.153,2.831c0.089,0.703 0.059,1.181 -0.053,1.758c-0.406,2.104 -0.92,3.125 -6.673,3.646c-4.846,0.439 -10.483,0.032 -13.434,-0.237c-1.552,-0.141 -3.483,-0.708 -3.483,-0.708Z" style="fill:#5a1513;"/><path d="M10.968,10.38c-0,-0 -3.457,0.875 -4.527,0.05c-0.686,-0.529 -1.448,-1.932 -1.481,-3.279c-0.086,-3.395 1,-5.136 4.22,-5.443c1.791,-0.17 4.926,0.648 7.251,0.567c1.182,-0.041 5.122,-0.456 8.059,-0.183c3.451,0.32 5.874,1.52 6.084,4.376c0.086,1.168 0.181,2.619 -0.652,3.3c-2.025,1.655 -3.984,1.373 -9.006,1.521c-6.76,0.2 -9.948,-0.909 -9.948,-0.909Z" style="fill:#752523;"/><path d="M10.964,10.475c0.317,0.104 3.526,1.096 9.955,0.905c2.514,-0.074 4.262,-0.041 5.634,-0.196c1.39,-0.157 2.4,-0.506 3.427,-1.346c0.349,-0.285 0.544,-0.698 0.645,-1.17c0.146,-0.685 0.093,-1.498 0.04,-2.207c-0.213,-2.9 -2.662,-4.135 -6.166,-4.46c-2.942,-0.273 -6.888,0.141 -8.071,0.183c-2.327,0.081 -5.464,-0.737 -7.257,-0.567c-1.642,0.157 -2.738,0.684 -3.414,1.6c-0.673,0.912 -0.932,2.214 -0.889,3.936c0.035,1.376 0.817,2.808 1.517,3.349c0.334,0.257 0.888,0.361 1.504,0.372c1.293,0.024 2.855,-0.345 3.075,-0.399Zm0.004,-0.095c-0,-0 -3.457,0.875 -4.527,0.05c-0.686,-0.529 -1.448,-1.932 -1.481,-3.279c-0.086,-3.395 1,-5.136 4.22,-5.443c1.791,-0.17 4.926,0.648 7.251,0.567c1.182,-0.041 5.122,-0.456 8.059,-0.183c3.451,0.32 5.874,1.52 6.084,4.376c0.086,1.168 0.181,2.619 -0.652,3.3c-2.025,1.655 -3.984,1.373 -9.006,1.521c-6.76,0.2 -9.948,-0.909 -9.948,-0.909Z" style="fill:#752523;"/></g></g><path d="M10.75,1.87c0,-0 0.215,0.276 0.452,0.862c0.142,0.35 0.287,0.81 0.403,1.39c0.054,0.272 0.1,0.567 0.138,0.891c0.033,0.279 0.057,0.578 0.076,0.898c0.016,0.284 0.027,0.584 0.031,0.902c0.005,0.287 0.009,0.588 -0.001,0.905c-0.014,0.904 -0.193,1.61 -0.43,2.161c-0.546,1.267 -1.409,1.708 -1.409,1.708c-0,-0 0.949,-0.349 1.638,-1.596c0.308,-0.557 0.554,-1.292 0.65,-2.247c0.028,-0.326 0.047,-0.637 0.05,-0.933c0.002,-0.216 -0.003,-0.424 -0.016,-0.625c-0.037,-0.579 -0.12,-1.094 -0.227,-1.547c-0.108,-0.459 -0.241,-0.854 -0.381,-1.191c-0.463,-1.115 -0.974,-1.578 -0.974,-1.578Z" style="fill:#d49392;"/><path d="M15.763,2.281c0,-0 0.215,0.273 0.452,0.853c0.142,0.347 0.287,0.802 0.403,1.377c0.055,0.269 0.101,0.562 0.139,0.883c0.034,0.277 0.058,0.573 0.076,0.89c0.017,0.281 0.027,0.579 0.032,0.894c0.004,0.285 0.009,0.583 -0.002,0.897c-0.014,0.898 -0.194,1.599 -0.432,2.145c-0.546,1.253 -1.408,1.689 -1.408,1.689c-0,0 0.947,-0.344 1.635,-1.576c0.309,-0.553 0.556,-1.283 0.652,-2.232c0.028,-0.323 0.047,-0.631 0.05,-0.925c0.002,-0.214 -0.003,-0.421 -0.016,-0.62c-0.038,-0.574 -0.121,-1.084 -0.227,-1.533c-0.108,-0.456 -0.242,-0.847 -0.382,-1.181c-0.462,-1.104 -0.972,-1.561 -0.972,-1.561Z" style="fill:#d49392;"/><path d="M23.094,2.025c0,0 0.216,0.282 0.453,0.88c0.141,0.357 0.286,0.824 0.401,1.415c0.054,0.276 0.1,0.576 0.138,0.906c0.033,0.283 0.056,0.587 0.075,0.912c0.016,0.289 0.026,0.594 0.031,0.916c0.005,0.292 0.009,0.598 -0.001,0.92c-0.013,0.916 -0.191,1.633 -0.426,2.193c-0.545,1.293 -1.411,1.742 -1.411,1.742c-0,0 0.952,-0.357 1.642,-1.631c0.307,-0.566 0.551,-1.311 0.648,-2.278c0.027,-0.331 0.047,-0.646 0.05,-0.948c0.002,-0.219 -0.004,-0.43 -0.016,-0.634c-0.009,-0.163 -0.022,-0.321 -0.039,-0.474c-0.045,-0.399 -0.109,-0.764 -0.187,-1.096c-0.109,-0.468 -0.242,-0.869 -0.381,-1.212c-0.464,-1.138 -0.977,-1.611 -0.977,-1.611Z" style="fill:#d49392;"/><path d="M28.208,2.954c0,-0 0.209,0.23 0.445,0.714c0.144,0.296 0.293,0.685 0.414,1.177c0.068,0.274 0.124,0.578 0.167,0.916c0.025,0.195 0.044,0.4 0.06,0.617c0.018,0.244 0.028,0.502 0.032,0.776c0.004,0.247 0.007,0.506 -0.005,0.779c-0.019,0.797 -0.214,1.414 -0.467,1.89c-0.553,1.038 -1.386,1.41 -1.386,1.41c-0,-0 0.911,-0.276 1.591,-1.286c0.325,-0.483 0.586,-1.131 0.683,-1.985c0.022,-0.234 0.039,-0.459 0.044,-0.675c0.005,-0.237 0,-0.463 -0.016,-0.679c-0.039,-0.503 -0.125,-0.948 -0.233,-1.339c-0.078,-0.286 -0.17,-0.542 -0.269,-0.77c-0.477,-1.1 -1.06,-1.545 -1.06,-1.545Z" style="fill:#d49392;"/><path d="M7.611,2.025c0,0 0.399,0.069 0.819,0.552c0.243,0.278 0.491,0.695 0.677,1.319c0.079,0.265 0.147,0.568 0.199,0.913c0.043,0.281 0.075,0.591 0.096,0.932c0.018,0.29 0.028,0.603 0.028,0.94c0,0.295 -0.004,0.608 -0.02,0.942c-0.023,0.52 -0.09,0.957 -0.185,1.325c-0.139,0.532 -0.338,0.918 -0.562,1.199c-0.674,0.844 -1.558,0.739 -1.558,0.739c-0,0 0.899,0.152 1.633,-0.676c0.248,-0.28 0.477,-0.671 0.645,-1.217c0.115,-0.375 0.199,-0.822 0.242,-1.357c0.026,-0.337 0.043,-0.655 0.046,-0.954c0.004,-0.344 -0.006,-0.662 -0.029,-0.957c-0.026,-0.349 -0.07,-0.666 -0.124,-0.952c-0.068,-0.354 -0.153,-0.662 -0.249,-0.93c-0.227,-0.634 -0.513,-1.048 -0.783,-1.318c-0.462,-0.462 -0.875,-0.5 -0.875,-0.5Z" style="fill:#d49392;"/><path d="M9.551,6.634c-0,0 2.114,0.057 4.283,0.104c0.895,0.02 1.799,0.036 2.567,0.05c0.74,0.014 1.352,0.022 1.704,0.039c0.382,0.013 1.097,0.034 2.001,0.04c0.869,0.005 1.911,-0.002 2.997,-0.011c0.996,-0.009 2.027,-0.023 2.996,-0.039c2.453,-0.04 4.494,-0.089 4.494,-0.089c-0,0 -2.04,-0.08 -4.492,-0.166c-0.968,-0.035 -1.998,-0.07 -2.994,-0.101c-1.085,-0.033 -2.126,-0.066 -2.993,-0.086c-0.9,-0.021 -1.612,-0.027 -1.992,-0.04c-0.356,-0.007 -0.974,-0.007 -1.721,0.009c-0.524,0.01 -1.11,0.027 -1.714,0.049c-1.057,0.037 -2.165,0.088 -3.082,0.132c-1.191,0.058 -2.054,0.109 -2.054,0.109Z" style="fill:#d49392;"/><path d="M9.135,3.227c0.423,-0.274 0.954,-0.365 1.899,-0.369c0.596,-0.002 1.356,0.032 2.357,0.074c0.671,0.028 1.45,0.061 2.36,0.089c0.486,0.015 1.01,0.029 1.575,0.039c0.493,0.008 1.017,0.012 1.574,0.016c0.444,-0 0.869,-0.003 1.277,-0.009c0.684,-0.01 1.319,-0.028 1.912,-0.045c1.982,-0.058 3.488,-0.11 4.761,0.093c1.156,0.184 2.12,0.575 3.074,1.357c-0.939,-0.814 -1.899,-1.236 -3.058,-1.451c-1.274,-0.236 -2.788,-0.224 -4.781,-0.205c-0.592,0.006 -1.227,0.013 -1.911,0.016c-0.406,0.001 -0.83,0.003 -1.273,-0.001c-0.557,-0 -1.08,-0.005 -1.573,-0.008c-0.563,-0.004 -1.087,-0.009 -1.572,-0.014c-0.91,-0.01 -1.689,-0.022 -2.361,-0.031c-1.003,-0.013 -1.766,-0.019 -2.363,0.005c-0.951,0.038 -1.482,0.152 -1.897,0.444Z" style="fill:#d49392;"/><path d="M9.202,9.992c-0.388,0.13 0.87,0.663 3.713,1.041c0.862,0.114 1.87,0.213 3.021,0.279c0.48,0.028 0.986,0.049 1.516,0.062c0.484,0.013 0.99,0.016 1.516,0.015c1.151,-0.014 2.204,-0.022 3.167,-0.046c1.924,-0.049 3.486,-0.142 4.744,-0.357c1.376,-0.236 2.388,-0.622 3.111,-1.272c-0.739,0.62 -1.757,0.964 -3.129,1.153c-1.259,0.173 -2.815,0.211 -4.729,0.214c-0.963,0.002 -2.015,-0 -3.165,-0.006c-0.615,0.004 -1.202,-0.002 -1.761,-0.012c-0.622,-0.01 -1.209,-0.026 -1.76,-0.049c-0.773,-0.032 -1.476,-0.077 -2.109,-0.13c-0.514,-0.042 -0.981,-0.09 -1.402,-0.142c-2.132,-0.262 -3.064,-0.621 -2.733,-0.75Z" style="fill:#d49392;"/><path d="M30.764,6.729c0.117,0.035 0.522,0.147 0.954,0.188c0.245,0.023 0.493,0.017 0.705,-0.029c0.364,-0.08 0.597,-0.302 0.636,-0.65c0.012,-0.161 -0.036,-0.278 -0.105,-0.362c-0.099,-0.121 -0.269,-0.19 -0.491,-0.168c-0.132,0.013 -0.288,0.056 -0.452,0.126c-0.125,0.054 -0.255,0.119 -0.382,0.196c-0.228,0.137 -0.442,0.293 -0.619,0.431c-0.232,0.182 -0.381,0.321 -0.381,0.321c-0,0 0.05,-0.02 0.135,-0.053Zm1.806,-0.527c-0.012,-0.001 -0.028,0.001 -0.038,0.001c-0.025,-0.001 -0.052,-0.001 -0.08,0.002c-0.037,0.003 -0.076,0.008 -0.117,0.015c-0.085,0.015 -0.176,0.037 -0.272,0.063c-0.185,0.05 -0.38,0.113 -0.569,0.178c-0.288,0.1 -0.55,0.199 -0.709,0.26c0.188,0.006 0.828,0.013 1.326,-0.124c0.113,-0.031 0.215,-0.072 0.303,-0.122c0.101,-0.057 0.166,-0.138 0.161,-0.255l0.001,-0.011l-0.005,-0.005l-0.001,-0.002Zm0.005,-0c-0,-0.01 -0.002,-0.019 -0.008,-0.016c-0.004,0.002 -0.002,0.009 0.003,0.016l0.005,-0l0.001,0.007c0.004,0.004 0.009,0.006 0.011,0.002c0.002,-0.006 -0.003,-0.009 -0.012,-0.009Z" style="fill:#d49392;"/><path d="M30.731,6.797l0,-0c0.002,0.002 0.407,0.445 0.9,0.84c0.229,0.183 0.475,0.35 0.706,0.465c0.221,0.109 0.433,0.159 0.606,0.149c0.202,-0.011 0.359,-0.111 0.469,-0.292c0.122,-0.22 0.093,-0.423 -0.05,-0.6c-0.106,-0.132 -0.298,-0.256 -0.545,-0.342c-0.245,-0.085 -0.542,-0.145 -0.838,-0.18c-0.27,-0.032 -0.532,-0.043 -0.75,-0.047c-0.296,-0.005 -0.496,0.007 -0.498,0.007Zm0,-0c0,-0 0,-0 0,-0c0.003,0.001 0.476,0.124 1.013,0.3c0.217,0.071 0.439,0.15 0.645,0.234c0.221,0.089 0.414,0.185 0.535,0.291c0.038,0.034 0.078,0.06 0.056,0.103c-0.042,0.088 -0.138,0.089 -0.251,0.073c-0.15,-0.021 -0.322,-0.075 -0.502,-0.151c-0.704,-0.294 -1.494,-0.848 -1.496,-0.85Z" style="fill:#d49392;"/></g><g><ellipse cx="7.105" cy="6.634" rx="2.031" ry="4.104" style="fill:#752523;"/><path d="M7.105,2.53c1.12,0 2.03,1.839 2.03,4.104c0,2.265 -0.91,4.105 -2.03,4.105c-1.121,-0 -2.031,-1.84 -2.031,-4.105c0,-2.265 0.91,-4.104 2.031,-4.104Zm-0,0.118c0.414,-0 0.791,0.28 1.101,0.74c0.494,0.732 0.812,1.915 0.812,3.246c-0,1.332 -0.318,2.514 -0.812,3.246c-0.31,0.46 -0.687,0.741 -1.101,0.741c-0.414,-0 -0.791,-0.281 -1.102,-0.741c-0.494,-0.732 -0.811,-1.914 -0.811,-3.246c-0,-1.331 0.317,-2.514 0.811,-3.246c0.311,-0.46 0.688,-0.74 1.102,-0.74Z" style="fill:#d49392;"/><path d="M6.67,8.096c0.24,0 0.435,-0.126 0.435,0.388c-0,0.513 -0.159,0.775 -0.399,0.775c-0.24,-0 -0.472,-0.262 -0.472,-0.775c0,-0.514 0.195,-0.388 0.436,-0.388Z" style="fill:#d49392;"/><path d="M6.155,6.324c0,0.642 0.059,1.163 -0.181,1.163c-0.24,-0 -0.363,-0.424 -0.363,-1.066c0,-0.641 0.123,-1.259 0.363,-1.259c0.24,-0 0.181,0.521 0.181,1.162Z" style="fill:#d49392;"/><path d="M7.637,5.781c0.17,0 0.308,0.296 0.308,0.659c0,0.364 -0.138,0.659 -0.308,0.659c-0.17,0 -0.2,-0.295 -0.2,-0.659c0,-0.363 0.03,-0.659 0.2,-0.659Z" style="fill:#d49392;"/><path d="M7.471,3.152c0.189,0.043 0.327,0.372 0.309,0.734c-0.018,0.361 -0.207,0.303 -0.396,0.259c-0.189,-0.044 -0.307,-0.056 -0.289,-0.418c0.018,-0.361 0.187,-0.619 0.376,-0.575Z" style="fill:#d49392;"/><path d="M8.409,8.47c-0.06,-0.244 -0.125,-0.61 -0.011,-0.738c0.115,-0.129 0.256,-0.035 0.317,0.209c0.06,0.244 0.016,0.547 -0.098,0.676c-0.115,0.128 -0.147,0.097 -0.208,-0.147Z" style="fill:#d49392;"/><path d="M7.441,8.871c0.09,0 0.091,0.157 0.091,0.349c-0,0.192 -0.001,0.349 -0.091,0.349c-0.09,-0 -0.163,-0.157 -0.163,-0.349c-0,-0.192 0.073,-0.349 0.163,-0.349Z" style="fill:#d49392;"/><path d="M6.968,3.395c0.09,-0 0.09,0.156 0.09,0.348c0,0.193 -0,0.349 -0.09,0.349c-0.09,0 -0.163,-0.156 -0.163,-0.349c-0,-0.192 0.073,-0.348 0.163,-0.348Z" style="fill:#d49392;"/><path d="M6.366,9.363c0.032,-0.18 0.1,-0.125 0.184,-0.057c0.084,0.069 0.153,0.126 0.12,0.306c-0.032,0.179 -0.126,0.27 -0.21,0.201c-0.084,-0.068 -0.127,-0.27 -0.094,-0.45Z" style="fill:#d49392;"/><ellipse cx="7.813" cy="4.806" rx="0.087" ry="0.195" style="fill:#d49392;"/><ellipse cx="6.756" cy="6.995" rx="0.073" ry="0.155" style="fill:#d49392;"/><ellipse cx="7.583" cy="5.176" rx="0.087" ry="0.195" style="fill:#d49392;"/><ellipse cx="6.565" cy="7.29" rx="0.073" ry="0.155" style="fill:#d49392;"/><ellipse cx="7.84" cy="5.375" rx="0.087" ry="0.195" style="fill:#d49392;"/><ellipse cx="6.779" cy="7.448" rx="0.073" ry="0.155" style="fill:#d49392;"/><path d="M8.309,7.367c-0.031,-0.125 0.037,-0.136 0.107,-0.215c0.071,-0.079 0.117,-0.197 0.147,-0.072c0.031,0.125 -0.001,0.29 -0.071,0.369c-0.071,0.08 -0.153,0.043 -0.183,-0.082Z" style="fill:#d49392;"/></g></g></svg>