<?xml version="1.0" encoding="UTF-8" standalone="no"?>
<!DOCTYPE svg PUBLIC "-//W3C//DTD SVG 1.1//EN" "http://www.w3.org/Graphics/SVG/1.1/DTD/svg11.dtd">
<svg width="100%" height="100%" viewBox="0 0 146 90" version="1.1" xmlns="http://www.w3.org/2000/svg" xmlns:xlink="http://www.w3.org/1999/xlink" xml:space="preserve" xmlns:serif="http://www.serif.com/" style="fill-rule:evenodd;clip-rule:evenodd;stroke-linecap:round;stroke-linejoin:round;stroke-miterlimit:1.5;">
    <g transform="matrix(1,0,0,1,-488,-2421)">
        <g transform="matrix(1,0,0,1,-5833.11,2250)">
            <g transform="matrix(0.319857,0,0,0.0601875,6285.16,220.2)">
                <circle cx="344.755" cy="447.755" r="221.755" style="fill:rgb(210,189,175);"/>
            </g>
            <g transform="matrix(0.446027,0,0,0.562649,6050.4,-343.28)">
                <g transform="matrix(-0.143076,-0.113476,-0.0660202,0.0456574,908.063,1041.82)">
                    <path d="M214.086,582.813C216.022,497.318 247.196,389.784 279,470.274C262.476,519.704 237.762,551.034 214.086,582.813Z" style="fill:rgb(251,246,238);"/>
                </g>
                <g transform="matrix(0.281559,0.241138,0.0522596,-0.0334586,611.71,1002.49)">
                    <path d="M214.086,582.813C190.322,548.411 185.959,390.727 265.243,452.597C248.719,502.027 237.762,551.034 214.086,582.813Z" style="fill:rgb(251,246,238);"/>
                </g>
                <g transform="matrix(-0.560251,-4.63287e-17,5.41295e-17,-0.298456,977.176,1144.89)">
                    <path d="M508,383.675C532.614,390.744 549.879,423.899 548.333,461.132C546.787,498.365 526.91,528.105 501.898,530.61C498.591,530.882 495.289,531.137 492,531.286C463.34,580.588 293.674,603.157 234,523.286C225.88,523.088 218.375,522.48 211.438,521.516C190.051,518.288 173.584,491.968 172.948,459.992C172.311,428.017 187.701,400.292 208.923,395.186C208.937,395.015 208.968,395.008 209,395C238.064,388.037 250.564,392.025 271,355.803C286.116,329.01 308.455,296.362 371,295C479.511,292.638 459.754,369.814 508,383.675C508,383.675 508,383.675 508,383.675Z" style="fill:rgb(251,246,238);"/>
                </g>
                <g transform="matrix(0.559936,0,0,0.361515,544.863,667.635)">
                    <path d="M162.097,870.677C166.033,894.652 186.042,942.2 266.768,943.749C326.442,1006.76 495.21,982.94 523.87,944.044C579.474,942.062 639.522,908.126 649.874,874.512C663.096,917.663 591.388,954.422 524.768,956.797C496.108,995.693 326.442,1013.5 266.768,950.485C155.761,948.354 159.564,885.749 162.097,870.677Z" style="fill:rgb(255,236,193);fill-opacity:0.56;"/>
                </g>
                <g transform="matrix(-0.224391,0.035613,-0.0275788,-0.121421,1003.29,1106)">
                    <path d="M580.645,756.476C651.443,742.762 732.257,681.043 855.587,679.487C1054.22,676.98 1207.75,827.718 1207.75,932.762C1207.75,1040.08 1055.23,1064.38 853.429,1035.01C766.852,1022.4 597.336,1093.61 545.972,1100.77C268.865,1139.39 210,1016.6 210,884.313C210,752.027 308.971,809.101 580.645,756.476Z" style="fill:rgb(130,40,17);stroke:rgb(233,183,182);stroke-width:11.7px;"/>
                </g>
                <g transform="matrix(-0.164929,0.0332129,0.0274376,0.126745,1110.85,880.08)">
                    <path d="M1290.5,672.836C1309,678.237 1308.35,702.84 1343,708.465C1407.92,719.003 1514.53,664.361 1514.53,675.004C1514.53,686.088 1391.61,728.168 1353.25,728.168C1314.89,728.168 1261.07,713.514 1253,705.918C1238.32,692.104 1253.68,662.085 1290.5,672.836Z" style="fill:rgb(233,183,182);"/>
                </g>
                <g transform="matrix(-0.302788,0.128619,-0.0608986,-0.14277,1179.66,959.56)">
                    <path d="M1288.9,666.193C1306.6,686.43 1298.66,733.408 1347.59,729.023C1383.76,725.782 1392,695.274 1392,705.918C1392,717.002 1376.16,745.015 1337.8,745.015C1299.44,745.015 1261.07,713.514 1253,705.918C1238.32,692.104 1247.7,619.077 1288.9,666.193Z" style="fill:rgb(233,183,182);"/>
                </g>
                <g transform="matrix(-0.493551,-0.228502,-0.293449,0.39831,2514.73,1235.89)">
                    <path d="M2674.12,991.965C2673.84,988.178 2675.23,984.453 2677.93,981.739C2680.63,979.025 2684.39,977.583 2688.26,977.78C2731.03,979.967 2849,986 2849,986L2887,1069C2887,1069 2778.6,1090.79 2719.83,1102.6C2710.52,1104.47 2700.84,1102.31 2693.26,1096.68C2685.68,1091.05 2680.93,1082.48 2680.23,1073.17C2678.22,1046.38 2675.6,1011.51 2674.12,991.965Z" style="fill:rgb(172,139,88);"/>
                </g>
                <g transform="matrix(-0.483786,-0.223981,-0.278303,0.377752,2468.87,1234.49)">
                    <path d="M2656.73,1005.77C2656.21,1002.02 2657.29,998.225 2659.7,995.335C2662.11,992.444 2665.62,990.736 2669.35,990.639C2706.29,989.686 2802.59,987.199 2836.76,986.316C2843.91,986.132 2850.22,991.024 2851.93,998.076C2858.33,1024.48 2873,1085 2873,1085C2873,1085 2782.77,1102.14 2723.52,1113.4C2710.33,1115.91 2696.71,1112.83 2685.82,1104.88C2674.92,1096.94 2667.7,1084.82 2665.83,1071.33C2662.56,1047.77 2658.93,1021.64 2656.73,1005.77Z" style="fill:rgb(229,204,166);"/>
                    <path d="M2656.73,1005.77C2656.21,1002.02 2657.29,998.225 2659.7,995.335C2662.11,992.444 2665.62,990.736 2669.35,990.639C2706.29,989.686 2802.59,987.199 2836.76,986.316C2843.91,986.132 2850.22,991.024 2851.93,998.076C2858.33,1024.48 2873,1085 2873,1085C2873,1085 2782.77,1102.14 2723.52,1113.4C2710.33,1115.91 2696.71,1112.83 2685.82,1104.88C2674.92,1096.94 2667.7,1084.82 2665.83,1071.33C2662.56,1047.77 2658.93,1021.64 2656.73,1005.77ZM2657.7,1005.63L2666.8,1071.19C2668.64,1084.41 2675.71,1096.29 2686.39,1104.07C2697.07,1111.86 2710.42,1114.88 2723.34,1112.42C2723.34,1112.42 2871.8,1084.21 2871.8,1084.21C2871.8,1084.21 2850.97,998.314 2850.97,998.314C2849.37,991.718 2843.47,987.141 2836.78,987.313C2802.61,988.196 2706.31,990.683 2669.38,991.637C2665.93,991.726 2662.68,993.306 2660.45,995.979C2658.22,998.653 2657.22,1002.17 2657.7,1005.63Z" style="fill:rgb(247,235,216);"/>
                </g>
                <g transform="matrix(-0.483786,-0.223981,-0.282545,0.383511,2473.63,1228.03)">
                    <circle cx="2840" cy="1062" r="10" style="fill:rgb(172,139,88);"/>
                </g>
                <g transform="matrix(0.196642,0.250035,0.279894,-0.13833,-7.21789,465.216)">
                    <circle cx="2840" cy="1062" r="10" style="fill:rgb(172,139,88);"/>
                </g>
                <g transform="matrix(-0.0560471,0.452149,0.581022,0.0452597,405.384,-289.122)">
                    <circle cx="2840" cy="1062" r="10" style="fill:rgb(172,139,88);"/>
                </g>
                <g transform="matrix(-0.232976,-0.107862,-0.136065,0.184686,1616.52,1110.52)">
                    <circle cx="2840" cy="1062" r="10" style="fill:rgb(172,139,88);"/>
                </g>
                <g transform="matrix(0.0946965,0.120409,0.134788,-0.0666153,430.804,753.772)">
                    <circle cx="2840" cy="1062" r="10" style="fill:rgb(172,139,88);"/>
                </g>
                <g transform="matrix(-0.0269905,0.21774,0.279801,0.0217956,639.401,393.112)">
                    <circle cx="2840" cy="1062" r="10" style="fill:rgb(172,139,88);"/>
                </g>
                <g transform="matrix(-0.232976,-0.107862,-0.136065,0.184686,1689.77,1125.74)">
                    <circle cx="2840" cy="1062" r="10" style="fill:rgb(172,139,88);"/>
                </g>
                <g transform="matrix(-0.232976,-0.107862,-0.136065,0.184686,1683.34,1130.91)">
                    <circle cx="2840" cy="1062" r="10" style="fill:rgb(172,139,88);"/>
                </g>
                <g transform="matrix(-0.232976,-0.107862,-0.136065,0.184686,1637.69,1118.08)">
                    <circle cx="2840" cy="1062" r="10" style="fill:rgb(172,139,88);"/>
                </g>
                <g transform="matrix(-0.112029,-0.0518669,-0.0654284,0.0888087,1219.11,1056.73)">
                    <circle cx="2840" cy="1062" r="10" style="fill:rgb(172,139,88);"/>
                </g>
                <g transform="matrix(-0.563121,-0.077569,-0.0996161,0.454455,2530.54,739.565)">
                    <path d="M2674.12,991.965C2673.84,988.178 2675.23,984.453 2677.93,981.739C2680.63,979.025 2684.39,977.583 2688.26,977.78C2731.03,979.967 2849,986 2849,986L2887,1069C2887,1069 2778.6,1090.79 2719.83,1102.6C2710.52,1104.47 2700.84,1102.31 2693.26,1096.68C2685.68,1091.05 2680.93,1082.48 2680.23,1073.17C2678.22,1046.38 2675.6,1011.51 2674.12,991.965Z" style="fill:rgb(172,139,88);"/>
                </g>
                <g transform="matrix(-0.55198,-0.0760343,-0.0944746,0.430999,2486.95,750.944)">
                    <path d="M2656.73,1005.77C2656.21,1002.02 2657.29,998.225 2659.7,995.335C2662.11,992.444 2665.62,990.736 2669.35,990.639C2706.29,989.686 2802.59,987.199 2836.76,986.316C2843.91,986.132 2850.22,991.024 2851.93,998.076C2858.33,1024.48 2873,1085 2873,1085C2873,1085 2782.77,1102.14 2723.52,1113.4C2710.33,1115.91 2696.71,1112.83 2685.82,1104.88C2674.92,1096.94 2667.7,1084.82 2665.83,1071.33C2662.56,1047.77 2658.93,1021.64 2656.73,1005.77Z" style="fill:rgb(229,204,166);"/>
                    <path d="M2656.73,1005.77C2656.21,1002.02 2657.29,998.225 2659.7,995.335C2662.11,992.444 2665.62,990.736 2669.35,990.639C2706.29,989.686 2802.59,987.199 2836.76,986.316C2843.91,986.132 2850.22,991.024 2851.93,998.076C2858.33,1024.48 2873,1085 2873,1085C2873,1085 2782.77,1102.14 2723.52,1113.4C2710.33,1115.91 2696.71,1112.83 2685.82,1104.88C2674.92,1096.94 2667.7,1084.82 2665.83,1071.33C2662.56,1047.77 2658.93,1021.64 2656.73,1005.77ZM2657.7,1005.63L2666.8,1071.19C2668.64,1084.41 2675.71,1096.29 2686.39,1104.07C2697.07,1111.86 2710.42,1114.88 2723.34,1112.42C2723.34,1112.42 2871.8,1084.21 2871.8,1084.21C2871.8,1084.21 2850.97,998.314 2850.97,998.314C2849.37,991.718 2843.47,987.141 2836.78,987.313C2802.61,988.196 2706.31,990.683 2669.38,991.637C2665.93,991.726 2662.68,993.306 2660.45,995.979C2658.22,998.653 2657.22,1002.17 2657.7,1005.63Z" style="fill:rgb(247,235,216);"/>
                </g>
                <g transform="matrix(-0.55198,-0.0760343,-0.0959148,0.437569,2488.57,743.566)">
                    <circle cx="2840" cy="1062" r="10" style="fill:rgb(172,139,88);"/>
                </g>
                <g transform="matrix(0.294366,0.1799,0.201384,-0.207075,-172.126,715.165)">
                    <circle cx="2840" cy="1062" r="10" style="fill:rgb(172,139,88);"/>
                </g>
                <g transform="matrix(0.14656,0.43922,0.564408,-0.118352,-117.611,-105.896)">
                    <circle cx="2840" cy="1062" r="10" style="fill:rgb(172,139,88);"/>
                </g>
                <g transform="matrix(-0.265816,-0.0366156,-0.0461895,0.210719,1633.62,870.606)">
                    <circle cx="2840" cy="1062" r="10" style="fill:rgb(172,139,88);"/>
                </g>
                <g transform="matrix(0.141757,0.0866342,0.0969798,-0.0997206,365.399,864.375)">
                    <circle cx="2840" cy="1062" r="10" style="fill:rgb(172,139,88);"/>
                </g>
                <g transform="matrix(0.0705786,0.211514,0.271801,-0.0569943,402.078,468.68)">
                    <circle cx="2840" cy="1062" r="10" style="fill:rgb(172,139,88);"/>
                </g>
                <g transform="matrix(-0.265816,-0.0366156,-0.0461895,0.210719,1708.96,864.598)">
                    <circle cx="2840" cy="1062" r="10" style="fill:rgb(172,139,88);"/>
                </g>
                <g transform="matrix(-0.265816,-0.0366156,-0.0461895,0.210719,1705.21,871.224)">
                    <circle cx="2840" cy="1062" r="10" style="fill:rgb(172,139,88);"/>
                </g>
                <g transform="matrix(-0.265816,-0.0366156,-0.0461895,0.210719,1656.79,871.837)">
                    <circle cx="2840" cy="1062" r="10" style="fill:rgb(172,139,88);"/>
                </g>
                <g transform="matrix(-0.127821,-0.0176071,-0.0222108,0.101327,1237.52,930.157)">
                    <circle cx="2840" cy="1062" r="10" style="fill:rgb(172,139,88);"/>
                </g>
                <g transform="matrix(-0.257975,0.0200355,-0.016139,-0.139495,935.679,1118.77)">
                    <path d="M580.645,756.476C651.443,742.762 732.257,681.043 855.587,679.487C1054.22,676.98 1207.75,827.718 1207.75,932.762C1207.75,1040.08 1055.23,1064.38 853.429,1035.01C766.852,1022.4 597.336,1093.61 545.972,1100.77C268.865,1139.39 210,1016.6 210,884.313C210,752.027 308.971,809.101 580.645,756.476Z" style="fill:rgb(130,40,17);stroke:rgb(233,183,182);stroke-width:11.7px;"/>
                </g>
                <g transform="matrix(-0.190485,0.0226672,0.0153207,0.14549,1085.18,873.498)">
                    <path d="M1290.5,672.836C1309,678.237 1308.35,702.84 1343,708.465C1407.92,719.003 1514.53,664.361 1514.53,675.004C1514.53,686.088 1391.61,728.168 1353.25,728.168C1314.89,728.168 1261.07,713.514 1253,705.918C1238.32,692.104 1253.68,662.085 1290.5,672.836Z" style="fill:rgb(233,183,182);"/>
                </g>
                <g transform="matrix(-0.358076,0.117948,-0.0511495,-0.166578,1153.11,969.368)">
                    <path d="M1288.9,666.193C1306.6,686.43 1298.66,733.408 1347.59,729.023C1383.76,725.782 1392,695.274 1392,705.918C1392,717.002 1376.16,745.015 1337.8,745.015C1299.44,745.015 1261.07,713.514 1253,705.918C1238.32,692.104 1247.7,619.077 1288.9,666.193Z" style="fill:rgb(233,183,182);"/>
                </g>
                <g transform="matrix(-0.257975,0.0200355,-0.016139,-0.139495,935.679,1097)">
                    <path d="M580.645,756.476C651.443,742.762 732.257,681.043 855.587,679.487C1054.22,676.98 1207.75,827.718 1207.75,932.762C1207.75,1040.08 1055.23,1064.38 853.429,1035.01C766.852,1022.4 597.336,1093.61 545.972,1100.77C268.865,1139.39 210,1016.6 210,884.313C210,752.027 308.971,809.101 580.645,756.476Z" style="fill:rgb(130,40,17);stroke:rgb(233,183,182);stroke-width:11.7px;"/>
                </g>
                <g transform="matrix(-0.190485,0.0226672,0.0153207,0.14549,1085.18,851.729)">
                    <path d="M1290.5,672.836C1309,678.237 1308.35,702.84 1343,708.465C1407.92,719.003 1514.53,664.361 1514.53,675.004C1514.53,686.088 1391.61,728.168 1353.25,728.168C1314.89,728.168 1261.07,713.514 1253,705.918C1238.32,692.104 1253.68,662.085 1290.5,672.836Z" style="fill:rgb(233,183,182);"/>
                </g>
                <g transform="matrix(-0.358076,0.117948,-0.0511495,-0.166578,1153.11,947.599)">
                    <path d="M1288.9,666.193C1306.6,686.43 1298.66,733.408 1347.59,729.023C1383.76,725.782 1392,695.274 1392,705.918C1392,717.002 1376.16,745.015 1337.8,745.015C1299.44,745.015 1261.07,713.514 1253,705.918C1238.32,692.104 1247.7,619.077 1288.9,666.193Z" style="fill:rgb(233,183,182);"/>
                </g>
                <g transform="matrix(0.09749,0.0137936,-0.057506,0.165198,732.369,948.252)">
                    <path d="M365.906,180.003C365.906,180.003 -106.389,375.002 71,478C89.464,488.721 104.968,506.316 143.145,517.284C170.715,525.205 224.895,505.049 264.047,510.888C307.833,517.419 337.837,549.692 391.766,553.808C430.449,556.76 481.152,527.539 523.027,529.336C594.734,532.414 659.88,565.43 734.215,565.414C805.431,565.399 852.903,531.86 918.893,529.336C999.309,526.261 1096.07,553.631 1156.41,547.364C1193.02,543.561 1212.69,517.225 1237.91,512.421C1264.14,507.425 1295.4,523.922 1305.97,517.987C1335.03,475.191 1109.95,249.635 767.983,198.398C573.263,169.223 365.906,180.003 365.906,180.003Z" style="fill:url(#_Linear1);"/>
                </g>
                <g transform="matrix(0.0981969,0.0138936,-0.080409,0.230991,772.36,774.198)">
                    <path d="M1476.45,1070.85C1502.47,1089.62 1516.05,1107.95 1505.4,1119.18C1494.82,1123.42 1463.57,1111.62 1437.34,1115.2C1412.11,1118.63 1392.44,1137.47 1355.83,1140.19C1295.49,1144.67 1198.73,1125.09 1118.32,1127.29C1052.33,1129.1 1004.85,1153.09 933.638,1153.1C859.303,1153.11 794.157,1129.5 722.449,1127.29C680.574,1126.01 629.872,1146.91 591.188,1144.8C537.26,1141.85 507.255,1118.77 463.469,1114.1C424.318,1109.92 370.137,1124.34 342.568,1118.67C304.391,1110.83 278.891,1101.51 270.423,1090.58C267.218,1086.44 267.054,1081.95 269.206,1077.25C280.854,1081.39 295.467,1085.22 312.647,1088.75C340.216,1094.42 394.396,1080 433.548,1084.18C477.334,1088.85 507.338,1111.93 561.267,1114.87C599.95,1116.99 650.653,1096.09 692.528,1097.37C764.235,1099.57 829.381,1123.19 903.716,1123.17C974.933,1123.16 1022.4,1099.18 1088.39,1097.37C1168.81,1095.17 1265.57,1114.75 1325.91,1110.27C1362.52,1107.55 1382.19,1088.71 1407.41,1085.28C1433.64,1081.7 1464.9,1093.5 1475.48,1089.26C1480.17,1084.31 1480.16,1077.99 1476.45,1070.85Z" style="fill:rgb(167,211,201);"/>
                </g>
                <g transform="matrix(-0.0629154,-0.0303351,-0.103007,0.153578,810.799,980.781)">
                    <path d="M369.934,187.317C369.934,187.317 -152.426,395.371 24.963,498.369C43.428,509.09 104.968,506.316 143.145,517.284C170.715,525.205 224.895,505.049 264.047,510.888C307.833,517.419 337.837,549.692 391.766,553.808C430.449,556.76 481.152,527.539 523.027,529.336C594.734,532.414 659.88,565.43 734.215,565.414C805.431,565.399 852.903,531.86 918.893,529.336C999.309,526.261 1096.07,553.631 1156.41,547.364C1193.02,543.561 1212.69,517.225 1237.91,512.421C1264.14,507.425 1295.4,523.922 1305.97,517.987C1335.03,475.191 1102.6,192.511 753.179,154.518C526.105,129.827 369.934,187.317 369.934,187.317Z" style="fill:url(#_Linear2);"/>
                </g>
                <g transform="matrix(-0.0661677,-0.0319032,-0.144032,0.214744,934.485,829.695)">
                    <path d="M1476.45,1070.85C1502.47,1089.62 1516.05,1107.95 1505.4,1119.18C1494.82,1123.42 1463.57,1111.62 1437.34,1115.2C1412.11,1118.63 1392.44,1137.47 1355.83,1140.19C1295.49,1144.67 1198.73,1125.09 1118.32,1127.29C1052.33,1129.1 1004.85,1153.09 933.638,1153.1C859.303,1153.11 794.157,1129.5 722.449,1127.29C680.574,1126.01 629.872,1146.91 591.188,1144.8C537.26,1141.85 507.255,1118.77 463.469,1114.1C424.318,1109.92 370.137,1124.34 342.568,1118.67C304.391,1110.83 269.501,1101.09 261.032,1090.16C257.828,1086.02 248.274,1081.11 250.426,1076.42C262.074,1080.56 295.467,1085.22 312.647,1088.75C340.216,1094.42 394.396,1080 433.548,1084.18C477.334,1088.85 507.338,1111.93 561.267,1114.87C599.95,1116.99 650.653,1096.09 692.528,1097.37C764.235,1099.57 829.381,1123.19 903.716,1123.17C974.933,1123.16 1022.4,1099.18 1088.39,1097.37C1168.81,1095.17 1265.57,1114.75 1325.91,1110.27C1362.52,1107.55 1382.19,1088.71 1407.41,1085.28C1433.64,1081.7 1464.9,1093.5 1475.48,1089.26C1480.17,1084.31 1480.16,1077.99 1476.45,1070.85Z" style="fill:rgb(167,211,201);"/>
                </g>
                <g transform="matrix(-0.0758696,-0.010203,-0.0536736,0.157393,818.104,966.02)">
                    <path d="M369.934,187.317C369.934,187.317 -152.426,395.371 24.963,498.369C43.428,509.09 104.968,506.316 143.145,517.284C170.715,525.205 224.895,505.049 264.047,510.888C307.833,517.419 337.837,549.692 391.766,553.808C430.449,556.76 481.152,527.539 523.027,529.336C594.734,532.414 659.88,565.43 734.215,565.414C805.431,565.399 852.903,531.86 918.893,529.336C999.309,526.261 1096.07,553.631 1156.41,547.364C1193.02,543.561 1212.69,517.225 1237.91,512.421C1264.14,507.425 1295.4,523.922 1305.97,517.987C1335.03,475.191 1102.6,192.511 753.179,154.518C526.105,129.827 369.934,187.317 369.934,187.317Z" style="fill:url(#_Linear3);"/>
                </g>
                <g transform="matrix(-0.0797915,-0.0107304,-0.0750502,0.220078,894.118,805.575)">
                    <path d="M1476.45,1070.85C1502.47,1089.62 1516.05,1107.95 1505.4,1119.18C1494.82,1123.42 1463.57,1111.62 1437.34,1115.2C1412.11,1118.63 1392.44,1137.47 1355.83,1140.19C1295.49,1144.67 1198.73,1125.09 1118.32,1127.29C1052.33,1129.1 1004.85,1153.09 933.638,1153.1C859.303,1153.11 794.157,1129.5 722.449,1127.29C680.574,1126.01 629.872,1146.91 591.188,1144.8C537.26,1141.85 507.255,1118.77 463.469,1114.1C424.318,1109.92 370.137,1124.34 342.568,1118.67C304.391,1110.83 269.501,1101.09 261.032,1090.16C257.828,1086.02 248.274,1081.11 250.426,1076.42C262.074,1080.56 295.467,1085.22 312.647,1088.75C340.216,1094.42 394.396,1080 433.548,1084.18C477.334,1088.85 507.338,1111.93 561.267,1114.87C599.95,1116.99 650.653,1096.09 692.528,1097.37C764.235,1099.57 829.381,1123.19 903.716,1123.17C974.933,1123.16 1022.4,1099.18 1088.39,1097.37C1168.81,1095.17 1265.57,1114.75 1325.91,1110.27C1362.52,1107.55 1382.19,1088.71 1407.41,1085.28C1433.64,1081.7 1464.9,1093.5 1475.48,1089.26C1480.17,1084.31 1480.16,1077.99 1476.45,1070.85Z" style="fill:rgb(167,211,201);"/>
                </g>
                <g transform="matrix(-0.0692606,0.00560616,-0.0179169,0.158256,823.536,958.806)">
                    <path d="M369.934,187.317C369.934,187.317 -152.426,395.371 24.963,498.369C43.428,509.09 104.968,506.316 143.145,517.284C170.715,525.205 224.895,505.049 264.047,510.888C307.833,517.419 337.837,549.692 391.766,553.808C430.449,556.76 481.152,527.539 523.027,529.336C594.734,532.414 659.88,565.43 734.215,565.414C805.431,565.399 852.903,531.86 918.893,529.336C999.309,526.261 1096.07,553.631 1156.41,547.364C1193.02,543.561 1212.69,517.225 1237.91,512.421C1264.14,507.425 1295.4,523.922 1305.97,517.987C1335.03,475.191 1102.6,192.511 753.179,154.518C526.105,129.827 369.934,187.317 369.934,187.317Z" style="fill:url(#_Linear4);"/>
                </g>
                <g transform="matrix(-0.0728408,0.00589596,-0.0250526,0.221285,860.704,793.222)">
                    <path d="M1476.45,1070.85C1502.47,1089.62 1516.05,1107.95 1505.4,1119.18C1494.82,1123.42 1463.57,1111.62 1437.34,1115.2C1412.11,1118.63 1392.44,1137.47 1355.83,1140.19C1295.49,1144.67 1198.73,1125.09 1118.32,1127.29C1052.33,1129.1 1004.85,1153.09 933.638,1153.1C859.303,1153.11 794.157,1129.5 722.449,1127.29C680.574,1126.01 629.872,1146.91 591.188,1144.8C537.26,1141.85 507.255,1118.77 463.469,1114.1C424.318,1109.92 370.137,1124.34 342.568,1118.67C304.391,1110.83 269.501,1101.09 261.032,1090.16C257.828,1086.02 248.274,1081.11 250.426,1076.42C262.074,1080.56 295.467,1085.22 312.647,1088.75C340.216,1094.42 394.396,1080 433.548,1084.18C477.334,1088.85 507.338,1111.93 561.267,1114.87C599.95,1116.99 650.653,1096.09 692.528,1097.37C764.235,1099.57 829.381,1123.19 903.716,1123.17C974.933,1123.16 1022.4,1099.18 1088.39,1097.37C1168.81,1095.17 1265.57,1114.75 1325.91,1110.27C1362.52,1107.55 1382.19,1088.71 1407.41,1085.28C1433.64,1081.7 1464.9,1093.5 1475.48,1089.26C1480.17,1084.31 1480.16,1077.99 1476.45,1070.85Z" style="fill:rgb(167,211,201);"/>
                </g>
                <g transform="matrix(0.560251,0,0,0.313655,563.016,823.163)">
                    <path d="M130,487.732C130,487.732 107.766,589.929 234,593C293.674,672.871 463.34,650.302 492,601C563.327,597.778 640.487,544.595 613,485C585.513,425.405 556.246,397.537 508,383.675C459.754,369.814 479.511,292.638 371,295C308.455,296.362 286.116,329.01 271,355.803C250.564,392.025 240.909,383.204 209,395C168.816,409.856 134.029,449.501 130,487.732Z" style="fill:rgb(214,199,168);"/>
                </g>
                <g transform="matrix(0.545535,0,0,0.361515,551.513,661.101)">
                    <path d="M162.097,870.677C166.033,894.652 186.042,942.2 266.768,943.749C326.442,1006.76 495.21,982.94 523.87,944.044C579.474,942.062 639.522,908.126 649.874,874.512C663.096,917.663 591.388,954.422 524.768,956.797C496.108,995.693 326.442,1013.5 266.768,950.485C155.761,948.354 159.564,885.749 162.097,870.677Z" style="fill:rgb(177,158,118);"/>
                </g>
                <g transform="matrix(0.560251,0,0,0.335813,563.016,810.629)">
                    <path d="M237,548C237,548 274.28,440.178 308,436.087C291.476,485.517 260.676,516.222 237,548Z" style="fill:rgb(179,162,126);"/>
                </g>
                <g transform="matrix(0.559433,0.0181447,0.0302714,-0.335323,667.839,1148.62)">
                    <path d="M214.086,582.813C214.086,582.813 245.28,474.365 279,470.274C262.476,519.704 237.762,551.034 214.086,582.813Z" style="fill:rgb(224,201,167);"/>
                </g>
                <g transform="matrix(0.559433,0.0181447,0.0302714,-0.335323,667.839,1148.62)">
                    <path d="M214.086,582.813C214.086,582.813 245.28,474.365 279,470.274C262.476,519.704 237.762,551.034 214.086,582.813Z" style="fill:rgb(179,162,126);"/>
                </g>
                <g transform="matrix(-0.187687,0.376764,0.527602,0.127642,552.385,770.541)">
                    <path d="M230.967,559.572C230.967,559.572 214.232,488.272 276.751,450.051C256.406,483.626 242.237,505.465 230.967,559.572Z" style="fill:rgb(179,162,126);"/>
                </g>
                <g transform="matrix(-0.560251,-4.63287e-17,5.41295e-17,-0.298456,977.935,1161.13)">
                    <path d="M130,487.732C130,487.732 107.766,589.929 234,593C293.674,672.871 463.34,650.302 492,601C563.327,597.778 640.487,544.595 613,485C585.513,425.405 556.246,397.537 508,383.675C459.754,369.814 479.511,292.638 371,295C308.455,296.362 286.116,329.01 271,355.803C250.564,392.025 238.064,388.037 209,395C168.051,404.811 134.029,449.501 130,487.732Z" style="fill:url(#_Linear5);"/>
                </g>
                <g transform="matrix(-0.143076,-0.113476,-0.0660202,0.0456574,908.528,1041.82)">
                    <path d="M214.086,582.813C216.022,497.318 247.196,389.784 279,470.274C262.476,519.704 237.762,551.034 214.086,582.813Z" style="fill:rgb(251,246,238);"/>
                </g>
                <g transform="matrix(0.281559,0.241138,0.0522596,-0.0334586,612.175,1002.49)">
                    <path d="M214.086,582.813C190.322,548.411 185.959,390.727 265.243,452.597C248.719,502.027 237.762,551.034 214.086,582.813Z" style="fill:rgb(251,246,238);"/>
                </g>
                <g transform="matrix(-0.560251,-4.63287e-17,5.41295e-17,-0.298456,977.64,1144.89)">
                    <path d="M508,383.675C532.614,390.744 549.879,423.899 548.333,461.132C546.787,498.365 526.91,528.105 501.898,530.61C498.591,530.882 495.289,531.137 492,531.286C463.34,580.588 293.674,603.157 234,523.286C225.88,523.088 218.375,522.48 211.438,521.516C190.051,518.288 173.584,491.968 172.948,459.992C172.311,428.017 187.701,400.292 208.923,395.186C208.937,395.015 208.968,395.008 209,395C238.064,388.037 250.564,392.025 271,355.803C286.116,329.01 308.455,296.362 371,295C479.511,292.638 459.754,369.814 508,383.675C508,383.675 508,383.675 508,383.675Z" style="fill:rgb(251,246,238);"/>
                </g>
                <g transform="matrix(0.559936,0,0,0.361515,545.328,667.635)">
                    <path d="M162.097,870.677C166.033,894.652 186.042,942.2 266.768,943.749C326.442,1006.76 495.21,982.94 523.87,944.044C579.474,942.062 639.522,908.126 649.874,874.512C663.096,917.663 591.388,954.422 524.768,956.797C496.108,995.693 326.442,1013.5 266.768,950.485C155.761,948.354 159.564,885.749 162.097,870.677Z" style="fill:rgb(255,236,193);fill-opacity:0.56;"/>
                </g>
                <g transform="matrix(-0.224391,0.035613,-0.0275788,-0.121421,1003.75,1106)">
                    <path d="M580.645,756.476C651.443,742.762 732.257,681.043 855.587,679.487C1054.22,676.98 1207.75,827.718 1207.75,932.762C1207.75,1040.08 1055.23,1064.38 853.429,1035.01C766.852,1022.4 597.336,1093.61 545.972,1100.77C268.865,1139.39 210,1016.6 210,884.313C210,752.027 308.971,809.101 580.645,756.476Z" style="fill:rgb(130,40,17);stroke:rgb(233,183,182);stroke-width:11.7px;"/>
                </g>
                <g transform="matrix(-0.164929,0.0332129,0.0274376,0.126745,1111.31,880.08)">
                    <path d="M1290.5,672.836C1309,678.237 1308.35,702.84 1343,708.465C1407.92,719.003 1514.53,664.361 1514.53,675.004C1514.53,686.088 1391.61,728.168 1353.25,728.168C1314.89,728.168 1261.07,713.514 1253,705.918C1238.32,692.104 1253.68,662.085 1290.5,672.836Z" style="fill:rgb(233,183,182);"/>
                </g>
                <g transform="matrix(-0.302788,0.128619,-0.0608986,-0.14277,1180.12,959.56)">
                    <path d="M1288.9,666.193C1306.6,686.43 1298.66,733.408 1347.59,729.023C1383.76,725.782 1392,695.274 1392,705.918C1392,717.002 1376.16,745.015 1337.8,745.015C1299.44,745.015 1261.07,713.514 1253,705.918C1238.32,692.104 1247.7,619.077 1288.9,666.193Z" style="fill:rgb(233,183,182);"/>
                </g>
                <g transform="matrix(-0.493551,-0.228502,-0.293449,0.39831,2515.19,1235.89)">
                    <path d="M2674.12,991.965C2673.84,988.178 2675.23,984.453 2677.93,981.739C2680.63,979.025 2684.39,977.583 2688.26,977.78C2731.03,979.967 2849,986 2849,986L2887,1069C2887,1069 2778.6,1090.79 2719.83,1102.6C2710.52,1104.47 2700.84,1102.31 2693.26,1096.68C2685.68,1091.05 2680.93,1082.48 2680.23,1073.17C2678.22,1046.38 2675.6,1011.51 2674.12,991.965Z" style="fill:rgb(172,139,88);"/>
                </g>
                <g transform="matrix(-0.483786,-0.223981,-0.278303,0.377752,2469.33,1234.49)">
                    <path d="M2656.73,1005.77C2656.21,1002.02 2657.29,998.225 2659.7,995.335C2662.11,992.444 2665.62,990.736 2669.35,990.639C2706.29,989.686 2802.59,987.199 2836.76,986.316C2843.91,986.132 2850.22,991.024 2851.93,998.076C2858.33,1024.48 2873,1085 2873,1085C2873,1085 2782.77,1102.14 2723.52,1113.4C2710.33,1115.91 2696.71,1112.83 2685.82,1104.88C2674.92,1096.94 2667.7,1084.82 2665.83,1071.33C2662.56,1047.77 2658.93,1021.64 2656.73,1005.77Z" style="fill:url(#_Linear6);"/>
                </g>
                <g transform="matrix(-0.483786,-0.223981,-0.282545,0.383511,2474.1,1228.03)">
                    <circle cx="2840" cy="1062" r="10" style="fill:rgb(172,139,88);"/>
                </g>
                <g transform="matrix(0.196642,0.250035,0.279894,-0.13833,-6.75308,465.216)">
                    <circle cx="2840" cy="1062" r="10" style="fill:rgb(172,139,88);"/>
                </g>
                <g transform="matrix(-0.0560471,0.452149,0.581022,0.0452597,405.848,-289.122)">
                    <circle cx="2840" cy="1062" r="10" style="fill:rgb(172,139,88);"/>
                </g>
                <g transform="matrix(-0.232976,-0.107862,-0.136065,0.184686,1616.98,1110.52)">
                    <circle cx="2840" cy="1062" r="10" style="fill:rgb(172,139,88);"/>
                </g>
                <g transform="matrix(0.0946965,0.120409,0.134788,-0.0666153,431.268,753.772)">
                    <circle cx="2840" cy="1062" r="10" style="fill:rgb(172,139,88);"/>
                </g>
                <g transform="matrix(-0.0269905,0.21774,0.279801,0.0217956,639.866,393.112)">
                    <circle cx="2840" cy="1062" r="10" style="fill:rgb(172,139,88);"/>
                </g>
                <g transform="matrix(-0.232976,-0.107862,-0.136065,0.184686,1690.23,1125.74)">
                    <circle cx="2840" cy="1062" r="10" style="fill:rgb(172,139,88);"/>
                </g>
                <g transform="matrix(-0.232976,-0.107862,-0.136065,0.184686,1683.8,1130.91)">
                    <circle cx="2840" cy="1062" r="10" style="fill:rgb(172,139,88);"/>
                </g>
                <g transform="matrix(-0.232976,-0.107862,-0.136065,0.184686,1638.15,1118.08)">
                    <circle cx="2840" cy="1062" r="10" style="fill:rgb(172,139,88);"/>
                </g>
                <g transform="matrix(-0.112029,-0.0518669,-0.0654284,0.0888087,1219.58,1056.73)">
                    <circle cx="2840" cy="1062" r="10" style="fill:rgb(172,139,88);"/>
                </g>
                <g transform="matrix(-0.563121,-0.077569,-0.0996161,0.454455,2531.01,739.565)">
                    <path d="M2674.12,991.965C2673.84,988.178 2675.23,984.453 2677.93,981.739C2680.63,979.025 2684.39,977.583 2688.26,977.78C2731.03,979.967 2849,986 2849,986L2887,1069C2887,1069 2778.6,1090.79 2719.83,1102.6C2710.52,1104.47 2700.84,1102.31 2693.26,1096.68C2685.68,1091.05 2680.93,1082.48 2680.23,1073.17C2678.22,1046.38 2675.6,1011.51 2674.12,991.965Z" style="fill:rgb(172,139,88);"/>
                </g>
                <g transform="matrix(-0.55198,-0.0760343,-0.0944746,0.430999,2487.41,750.944)">
                    <path d="M2656.73,1005.77C2656.21,1002.02 2657.29,998.225 2659.7,995.335C2662.11,992.444 2665.62,990.736 2669.35,990.639C2706.29,989.686 2802.59,987.199 2836.76,986.316C2843.91,986.132 2850.22,991.024 2851.93,998.076C2858.33,1024.48 2873,1085 2873,1085C2873,1085 2782.77,1102.14 2723.52,1113.4C2710.33,1115.91 2696.71,1112.83 2685.82,1104.88C2674.92,1096.94 2667.7,1084.82 2665.83,1071.33C2662.56,1047.77 2658.93,1021.64 2656.73,1005.77Z" style="fill:url(#_Linear7);"/>
                </g>
                <g transform="matrix(-0.55198,-0.0760343,-0.0959148,0.437569,2489.03,743.566)">
                    <circle cx="2840" cy="1062" r="10" style="fill:rgb(172,139,88);"/>
                </g>
                <g transform="matrix(0.294366,0.1799,0.201384,-0.207075,-171.661,715.165)">
                    <circle cx="2840" cy="1062" r="10" style="fill:rgb(172,139,88);"/>
                </g>
                <g transform="matrix(0.14656,0.43922,0.564408,-0.118352,-117.146,-105.896)">
                    <circle cx="2840" cy="1062" r="10" style="fill:rgb(172,139,88);"/>
                </g>
                <g transform="matrix(-0.265816,-0.0366156,-0.0461895,0.210719,1634.08,870.606)">
                    <circle cx="2840" cy="1062" r="10" style="fill:rgb(172,139,88);"/>
                </g>
                <g transform="matrix(0.141757,0.0866342,0.0969798,-0.0997206,365.864,864.375)">
                    <circle cx="2840" cy="1062" r="10" style="fill:rgb(172,139,88);"/>
                </g>
                <g transform="matrix(0.0705786,0.211514,0.271801,-0.0569943,402.543,468.68)">
                    <circle cx="2840" cy="1062" r="10" style="fill:rgb(172,139,88);"/>
                </g>
                <g transform="matrix(-0.265816,-0.0366156,-0.0461895,0.210719,1709.42,864.598)">
                    <circle cx="2840" cy="1062" r="10" style="fill:rgb(172,139,88);"/>
                </g>
                <g transform="matrix(-0.265816,-0.0366156,-0.0461895,0.210719,1705.68,871.224)">
                    <circle cx="2840" cy="1062" r="10" style="fill:rgb(172,139,88);"/>
                </g>
                <g transform="matrix(-0.265816,-0.0366156,-0.0461895,0.210719,1657.25,871.837)">
                    <circle cx="2840" cy="1062" r="10" style="fill:rgb(172,139,88);"/>
                </g>
                <g transform="matrix(-0.127821,-0.0176071,-0.0222108,0.101327,1237.99,930.157)">
                    <circle cx="2840" cy="1062" r="10" style="fill:rgb(172,139,88);"/>
                </g>
                <g transform="matrix(-0.257975,0.0200355,-0.016139,-0.139495,936.144,1118.77)">
                    <path d="M580.645,756.476C651.443,742.762 732.257,681.043 855.587,679.487C1054.22,676.98 1207.75,827.718 1207.75,932.762C1207.75,1040.08 1055.23,1064.38 853.429,1035.01C766.852,1022.4 597.336,1093.61 545.972,1100.77C268.865,1139.39 210,1016.6 210,884.313C210,752.027 308.971,809.101 580.645,756.476Z" style="fill:url(#_Linear8);stroke:rgb(233,183,182);stroke-width:11.7px;"/>
                </g>
                <g transform="matrix(-0.190485,0.0226672,0.0153207,0.14549,1085.65,873.498)">
                    <path d="M1290.5,672.836C1309,678.237 1308.35,702.84 1343,708.465C1407.92,719.003 1514.53,664.361 1514.53,675.004C1514.53,686.088 1391.61,728.168 1353.25,728.168C1314.89,728.168 1261.07,713.514 1253,705.918C1238.32,692.104 1253.68,662.085 1290.5,672.836Z" style="fill:rgb(233,183,182);"/>
                </g>
                <g transform="matrix(-0.358076,0.117948,-0.0511495,-0.166578,1153.57,969.368)">
                    <path d="M1288.9,666.193C1306.6,686.43 1298.66,733.408 1347.59,729.023C1383.76,725.782 1392,695.274 1392,705.918C1392,717.002 1376.16,745.015 1337.8,745.015C1299.44,745.015 1261.07,713.514 1253,705.918C1238.32,692.104 1247.7,619.077 1288.9,666.193Z" style="fill:rgb(233,183,182);"/>
                </g>
                <g transform="matrix(-0.257975,0.0200355,-0.016139,-0.139495,936.144,1097)">
                    <path d="M580.645,756.476C651.443,742.762 732.257,681.043 855.587,679.487C1054.22,676.98 1207.75,827.718 1207.75,932.762C1207.75,1040.08 1055.23,1064.38 853.429,1035.01C766.852,1022.4 597.336,1093.61 545.972,1100.77C268.865,1139.39 210,1016.6 210,884.313C210,752.027 308.971,809.101 580.645,756.476Z" style="fill:url(#_Linear9);stroke:rgb(233,183,182);stroke-width:11.7px;"/>
                </g>
                <g transform="matrix(-0.190485,0.0226672,0.0153207,0.14549,1085.65,851.729)">
                    <path d="M1290.5,672.836C1309,678.237 1308.35,702.84 1343,708.465C1407.92,719.003 1514.53,664.361 1514.53,675.004C1514.53,686.088 1391.61,728.168 1353.25,728.168C1314.89,728.168 1261.07,713.514 1253,705.918C1238.32,692.104 1253.68,662.085 1290.5,672.836Z" style="fill:rgb(233,183,182);"/>
                </g>
                <g transform="matrix(-0.358076,0.117948,-0.0511495,-0.166578,1153.57,947.599)">
                    <path d="M1288.9,666.193C1306.6,686.43 1298.66,733.408 1347.59,729.023C1383.76,725.782 1392,695.274 1392,705.918C1392,717.002 1376.16,745.015 1337.8,745.015C1299.44,745.015 1261.07,713.514 1253,705.918C1238.32,692.104 1247.7,619.077 1288.9,666.193Z" style="fill:rgb(233,183,182);"/>
                </g>
                <g transform="matrix(0.09749,0.0137936,-0.057506,0.165198,732.834,948.252)">
                    <path d="M365.906,180.003C365.906,180.003 -106.389,375.002 71,478C89.464,488.721 104.968,506.316 143.145,517.284C170.715,525.205 224.895,505.049 264.047,510.888C307.833,517.419 337.837,549.692 391.766,553.808C430.449,556.76 481.152,527.539 523.027,529.336C594.734,532.414 659.88,565.43 734.215,565.414C805.431,565.399 852.903,531.86 918.893,529.336C999.309,526.261 1096.07,553.631 1156.41,547.364C1193.02,543.561 1212.69,517.225 1237.91,512.421C1264.14,507.425 1295.4,523.922 1305.97,517.987C1335.03,475.191 1109.95,249.635 767.983,198.398C573.263,169.223 365.906,180.003 365.906,180.003Z" style="fill:url(#_Linear10);"/>
                </g>
                <g transform="matrix(0.0981969,0.0138936,-0.080409,0.230991,772.825,774.198)">
                    <path d="M1476.45,1070.85C1502.47,1089.62 1516.05,1107.95 1505.4,1119.18C1494.82,1123.42 1463.57,1111.62 1437.34,1115.2C1412.11,1118.63 1392.44,1137.47 1355.83,1140.19C1295.49,1144.67 1198.73,1125.09 1118.32,1127.29C1052.33,1129.1 1004.85,1153.09 933.638,1153.1C859.303,1153.11 794.157,1129.5 722.449,1127.29C680.574,1126.01 629.872,1146.91 591.188,1144.8C537.26,1141.85 507.255,1118.77 463.469,1114.1C424.318,1109.92 370.137,1124.34 342.568,1118.67C304.391,1110.83 278.891,1101.51 270.423,1090.58C267.218,1086.44 267.054,1081.95 269.206,1077.25C280.854,1081.39 295.467,1085.22 312.647,1088.75C340.216,1094.42 394.396,1080 433.548,1084.18C477.334,1088.85 507.338,1111.93 561.267,1114.87C599.95,1116.99 650.653,1096.09 692.528,1097.37C764.235,1099.57 829.381,1123.19 903.716,1123.17C974.933,1123.16 1022.4,1099.18 1088.39,1097.37C1168.81,1095.17 1265.57,1114.75 1325.91,1110.27C1362.52,1107.55 1382.19,1088.71 1407.41,1085.28C1433.64,1081.7 1464.9,1093.5 1475.48,1089.26C1480.17,1084.31 1480.16,1077.99 1476.45,1070.85Z" style="fill:rgb(167,211,201);"/>
                </g>
                <g transform="matrix(-0.0629154,-0.0303351,-0.103007,0.153578,811.264,980.781)">
                    <path d="M369.934,187.317C369.934,187.317 -152.426,395.371 24.963,498.369C43.428,509.09 104.968,506.316 143.145,517.284C170.715,525.205 224.895,505.049 264.047,510.888C307.833,517.419 337.837,549.692 391.766,553.808C430.449,556.76 481.152,527.539 523.027,529.336C594.734,532.414 659.88,565.43 734.215,565.414C805.431,565.399 852.903,531.86 918.893,529.336C999.309,526.261 1096.07,553.631 1156.41,547.364C1193.02,543.561 1212.69,517.225 1237.91,512.421C1264.14,507.425 1295.4,523.922 1305.97,517.987C1335.03,475.191 1102.6,192.511 753.179,154.518C526.105,129.827 369.934,187.317 369.934,187.317Z" style="fill:url(#_Linear11);"/>
                </g>
                <g transform="matrix(-0.0661677,-0.0319032,-0.144032,0.214744,934.95,829.695)">
                    <path d="M1476.45,1070.85C1502.47,1089.62 1516.05,1107.95 1505.4,1119.18C1494.82,1123.42 1463.57,1111.62 1437.34,1115.2C1412.11,1118.63 1392.44,1137.47 1355.83,1140.19C1295.49,1144.67 1198.73,1125.09 1118.32,1127.29C1052.33,1129.1 1004.85,1153.09 933.638,1153.1C859.303,1153.11 794.157,1129.5 722.449,1127.29C680.574,1126.01 629.872,1146.91 591.188,1144.8C537.26,1141.85 507.255,1118.77 463.469,1114.1C424.318,1109.92 370.137,1124.34 342.568,1118.67C304.391,1110.83 269.501,1101.09 261.032,1090.16C257.828,1086.02 248.274,1081.11 250.426,1076.42C262.074,1080.56 295.467,1085.22 312.647,1088.75C340.216,1094.42 394.396,1080 433.548,1084.18C477.334,1088.85 507.338,1111.93 561.267,1114.87C599.95,1116.99 650.653,1096.09 692.528,1097.37C764.235,1099.57 829.381,1123.19 903.716,1123.17C974.933,1123.16 1022.4,1099.18 1088.39,1097.37C1168.81,1095.17 1265.57,1114.75 1325.91,1110.27C1362.52,1107.55 1382.19,1088.71 1407.41,1085.28C1433.64,1081.7 1464.9,1093.5 1475.48,1089.26C1480.17,1084.31 1480.16,1077.99 1476.45,1070.85Z" style="fill:rgb(167,211,201);"/>
                </g>
                <g transform="matrix(-0.0758696,-0.010203,-0.0536736,0.157393,818.569,966.02)">
                    <path d="M369.934,187.317C369.934,187.317 -152.426,395.371 24.963,498.369C43.428,509.09 104.968,506.316 143.145,517.284C170.715,525.205 224.895,505.049 264.047,510.888C307.833,517.419 337.837,549.692 391.766,553.808C430.449,556.76 481.152,527.539 523.027,529.336C594.734,532.414 659.88,565.43 734.215,565.414C805.431,565.399 852.903,531.86 918.893,529.336C999.309,526.261 1096.07,553.631 1156.41,547.364C1193.02,543.561 1212.69,517.225 1237.91,512.421C1264.14,507.425 1295.4,523.922 1305.97,517.987C1335.03,475.191 1102.6,192.511 753.179,154.518C526.105,129.827 369.934,187.317 369.934,187.317Z" style="fill:url(#_Linear12);"/>
                </g>
                <g transform="matrix(-0.0797915,-0.0107304,-0.0750502,0.220078,894.583,805.575)">
                    <path d="M1476.45,1070.85C1502.47,1089.62 1516.05,1107.95 1505.4,1119.18C1494.82,1123.42 1463.57,1111.62 1437.34,1115.2C1412.11,1118.63 1392.44,1137.47 1355.83,1140.19C1295.49,1144.67 1198.73,1125.09 1118.32,1127.29C1052.33,1129.1 1004.85,1153.09 933.638,1153.1C859.303,1153.11 794.157,1129.5 722.449,1127.29C680.574,1126.01 629.872,1146.91 591.188,1144.8C537.26,1141.85 507.255,1118.77 463.469,1114.1C424.318,1109.92 370.137,1124.34 342.568,1118.67C304.391,1110.83 269.501,1101.09 261.032,1090.16C257.828,1086.02 248.274,1081.11 250.426,1076.42C262.074,1080.56 295.467,1085.22 312.647,1088.75C340.216,1094.42 394.396,1080 433.548,1084.18C477.334,1088.85 507.338,1111.93 561.267,1114.87C599.95,1116.99 650.653,1096.09 692.528,1097.37C764.235,1099.57 829.381,1123.19 903.716,1123.17C974.933,1123.16 1022.4,1099.18 1088.39,1097.37C1168.81,1095.17 1265.57,1114.75 1325.91,1110.27C1362.52,1107.55 1382.19,1088.71 1407.41,1085.28C1433.64,1081.7 1464.9,1093.5 1475.48,1089.26C1480.17,1084.31 1480.16,1077.99 1476.45,1070.85Z" style="fill:rgb(167,211,201);"/>
                </g>
                <g transform="matrix(-0.0692606,0.00560616,-0.0179169,0.158256,824.001,958.806)">
                    <path d="M369.934,187.317C369.934,187.317 -152.426,395.371 24.963,498.369C43.428,509.09 104.968,506.316 143.145,517.284C170.715,525.205 224.895,505.049 264.047,510.888C307.833,517.419 337.837,549.692 391.766,553.808C430.449,556.76 481.152,527.539 523.027,529.336C594.734,532.414 659.88,565.43 734.215,565.414C805.431,565.399 852.903,531.86 918.893,529.336C999.309,526.261 1096.07,553.631 1156.41,547.364C1193.02,543.561 1212.69,517.225 1237.91,512.421C1264.14,507.425 1295.4,523.922 1305.97,517.987C1335.03,475.191 1102.6,192.511 753.179,154.518C526.105,129.827 369.934,187.317 369.934,187.317Z" style="fill:url(#_Linear13);"/>
                </g>
                <g transform="matrix(-0.0728408,0.00589596,-0.0250526,0.221285,861.168,793.222)">
                    <path d="M1476.45,1070.85C1502.47,1089.62 1516.05,1107.95 1505.4,1119.18C1494.82,1123.42 1463.57,1111.62 1437.34,1115.2C1412.11,1118.63 1392.44,1137.47 1355.83,1140.19C1295.49,1144.67 1198.73,1125.09 1118.32,1127.29C1052.33,1129.1 1004.85,1153.09 933.638,1153.1C859.303,1153.11 794.157,1129.5 722.449,1127.29C680.574,1126.01 629.872,1146.91 591.188,1144.8C537.26,1141.85 507.255,1118.77 463.469,1114.1C424.318,1109.92 370.137,1124.34 342.568,1118.67C304.391,1110.83 269.501,1101.09 261.032,1090.16C257.828,1086.02 248.274,1081.11 250.426,1076.42C262.074,1080.56 295.467,1085.22 312.647,1088.75C340.216,1094.42 394.396,1080 433.548,1084.18C477.334,1088.85 507.338,1111.93 561.267,1114.87C599.95,1116.99 650.653,1096.09 692.528,1097.37C764.235,1099.57 829.381,1123.19 903.716,1123.17C974.933,1123.16 1022.4,1099.18 1088.39,1097.37C1168.81,1095.17 1265.57,1114.75 1325.91,1110.27C1362.52,1107.55 1382.19,1088.71 1407.41,1085.28C1433.64,1081.7 1464.9,1093.5 1475.48,1089.26C1480.17,1084.31 1480.16,1077.99 1476.45,1070.85Z" style="fill:rgb(167,211,201);"/>
                </g>
                <g transform="matrix(0.560251,0,0,0.313655,563.481,823.163)">
                    <path d="M130,487.732C130,487.732 107.766,589.929 234,593C293.674,672.871 463.34,650.302 492,601C563.327,597.778 640.487,544.595 613,485C585.513,425.405 556.246,397.537 508,383.675C459.754,369.814 479.511,292.638 371,295C308.455,296.362 286.116,329.01 271,355.803C250.564,392.025 240.909,383.204 209,395C168.816,409.856 134.029,449.501 130,487.732Z" style="fill:url(#_Linear14);"/>
                </g>
                <g transform="matrix(0.545535,0,0,0.361515,551.978,661.101)">
                    <path d="M162.097,870.677C166.033,894.652 186.042,942.2 266.768,943.749C326.442,1006.76 495.21,982.94 523.87,944.044C579.474,942.062 639.522,908.126 649.874,874.512C663.096,917.663 591.388,954.422 524.768,956.797C496.108,995.693 326.442,1013.5 266.768,950.485C155.761,948.354 159.564,885.749 162.097,870.677Z" style="fill:rgb(128,104,92);"/>
                </g>
                <g transform="matrix(0.560251,0,0,0.335813,563.481,810.629)">
                    <path d="M237,548C237,548 274.28,440.178 308,436.087C291.476,485.517 260.676,516.222 237,548Z" style="fill:rgb(128,104,92);"/>
                </g>
                <g transform="matrix(0.559433,0.0181447,0.0302714,-0.335323,668.304,1148.62)">
                    <path d="M214.086,582.813C214.086,582.813 245.28,474.365 279,470.274C262.476,519.704 237.762,551.034 214.086,582.813Z" style="fill:rgb(224,201,167);"/>
                </g>
                <g transform="matrix(0.559433,0.0181447,0.0302714,-0.335323,668.304,1148.62)">
                    <path d="M214.086,582.813C214.086,582.813 245.28,474.365 279,470.274C262.476,519.704 237.762,551.034 214.086,582.813Z" style="fill:rgb(128,104,92);"/>
                </g>
            </g>
        </g>
    </g>
    <defs>
        <linearGradient id="_Linear1" x1="0" y1="0" x2="1" y2="0" gradientUnits="userSpaceOnUse" gradientTransform="matrix(-24.0449,-360.6,543.136,-15.9639,811.211,673.024)"><stop offset="0" style="stop-color:rgb(100,181,168);stop-opacity:1"/><stop offset="1" style="stop-color:rgb(0,150,126);stop-opacity:1"/></linearGradient>
        <linearGradient id="_Linear2" x1="0" y1="0" x2="1" y2="0" gradientUnits="userSpaceOnUse" gradientTransform="matrix(394.515,-284.627,-654.662,-171.523,988.917,505.26)"><stop offset="0" style="stop-color:rgb(100,181,168);stop-opacity:1"/><stop offset="1" style="stop-color:rgb(0,150,126);stop-opacity:1"/></linearGradient>
        <linearGradient id="_Linear3" x1="0" y1="0" x2="1" y2="0" gradientUnits="userSpaceOnUse" gradientTransform="matrix(-24.0449,-360.6,543.136,-15.9639,811.211,673.024)"><stop offset="0" style="stop-color:rgb(100,181,168);stop-opacity:1"/><stop offset="1" style="stop-color:rgb(0,150,126);stop-opacity:1"/></linearGradient>
        <linearGradient id="_Linear4" x1="0" y1="0" x2="1" y2="0" gradientUnits="userSpaceOnUse" gradientTransform="matrix(66.8452,-356.447,-855.779,-27.8422,712.343,514.268)"><stop offset="0" style="stop-color:rgb(100,181,168);stop-opacity:1"/><stop offset="1" style="stop-color:rgb(0,150,126);stop-opacity:1"/></linearGradient>
        <linearGradient id="_Linear5" x1="0" y1="0" x2="1" y2="0" gradientUnits="userSpaceOnUse" gradientTransform="matrix(-2.5193e-14,-182.869,122.889,-3.02734e-14,370.145,413.725)"><stop offset="0" style="stop-color:rgb(214,199,168);stop-opacity:1"/><stop offset="1" style="stop-color:rgb(170,139,67);stop-opacity:1"/></linearGradient>
        <linearGradient id="_Linear6" x1="0" y1="0" x2="1" y2="0" gradientUnits="userSpaceOnUse" gradientTransform="matrix(137.918,-31.1544,-30.6866,-140.02,2705.98,1065.21)"><stop offset="0" style="stop-color:rgb(229,204,166);stop-opacity:1"/><stop offset="1" style="stop-color:rgb(190,140,64);stop-opacity:1"/></linearGradient>
        <linearGradient id="_Linear7" x1="0" y1="0" x2="1" y2="0" gradientUnits="userSpaceOnUse" gradientTransform="matrix(156.472,-46.3242,-45.6286,-158.857,2661.04,1036.87)"><stop offset="0" style="stop-color:rgb(229,204,166);stop-opacity:1"/><stop offset="1" style="stop-color:rgb(208,158,84);stop-opacity:1"/></linearGradient>
        <linearGradient id="_Linear8" x1="0" y1="0" x2="1" y2="0" gradientUnits="userSpaceOnUse" gradientTransform="matrix(-465.164,20.7736,-17.0463,-682.486,1174.61,876.657)"><stop offset="0" style="stop-color:rgb(130,40,17);stop-opacity:1"/><stop offset="1" style="stop-color:rgb(67,8,1);stop-opacity:1"/></linearGradient>
        <linearGradient id="_Linear9" x1="0" y1="0" x2="1" y2="0" gradientUnits="userSpaceOnUse" gradientTransform="matrix(-452.272,90.4355,-64.4569,-664.006,1213.41,874.519)"><stop offset="0" style="stop-color:rgb(130,40,17);stop-opacity:1"/><stop offset="1" style="stop-color:rgb(67,8,1);stop-opacity:1"/></linearGradient>
        <linearGradient id="_Linear10" x1="0" y1="0" x2="1" y2="0" gradientUnits="userSpaceOnUse" gradientTransform="matrix(-24.0449,-360.6,543.136,-15.9639,811.211,673.024)"><stop offset="0" style="stop-color:rgb(100,181,168);stop-opacity:1"/><stop offset="1" style="stop-color:rgb(0,150,126);stop-opacity:1"/></linearGradient>
        <linearGradient id="_Linear11" x1="0" y1="0" x2="1" y2="0" gradientUnits="userSpaceOnUse" gradientTransform="matrix(394.515,-284.627,-654.662,-171.523,988.917,505.26)"><stop offset="0" style="stop-color:rgb(100,181,168);stop-opacity:1"/><stop offset="1" style="stop-color:rgb(0,150,126);stop-opacity:1"/></linearGradient>
        <linearGradient id="_Linear12" x1="0" y1="0" x2="1" y2="0" gradientUnits="userSpaceOnUse" gradientTransform="matrix(-24.0449,-360.6,543.136,-15.9639,811.211,673.024)"><stop offset="0" style="stop-color:rgb(100,181,168);stop-opacity:1"/><stop offset="1" style="stop-color:rgb(0,150,126);stop-opacity:1"/></linearGradient>
        <linearGradient id="_Linear13" x1="0" y1="0" x2="1" y2="0" gradientUnits="userSpaceOnUse" gradientTransform="matrix(66.8452,-356.447,-855.779,-27.8422,712.343,514.268)"><stop offset="0" style="stop-color:rgb(100,181,168);stop-opacity:1"/><stop offset="1" style="stop-color:rgb(0,150,126);stop-opacity:1"/></linearGradient>
        <linearGradient id="_Linear14" x1="0" y1="0" x2="1" y2="0" gradientUnits="userSpaceOnUse" gradientTransform="matrix(-14.2762,-248.104,175.219,-20.2147,357.905,463.664)"><stop offset="0" style="stop-color:rgb(214,199,168);stop-opacity:1"/><stop offset="1" style="stop-color:rgb(208,178,112);stop-opacity:1"/></linearGradient>
    </defs>
</svg>
