<?xml version="1.0" encoding="UTF-8" standalone="no"?>
<!DOCTYPE svg PUBLIC "-//W3C//DTD SVG 1.1//EN" "http://www.w3.org/Graphics/SVG/1.1/DTD/svg11.dtd">
<svg width="51px" height="34px" version="1.1" xmlns="http://www.w3.org/2000/svg" xmlns:xlink="http://www.w3.org/1999/xlink" xml:space="preserve" xmlns:serif="http://www.serif.com/" style="fill-rule:evenodd;clip-rule:evenodd;stroke-linejoin:round;stroke-miterlimit:2;">
    <g id="mano">
    </g>
    <g id="fausto">
    </g>
    <g id="blinkup">
    </g>
    <g id="blinkdwn">
    </g>
    <g id="ciglio">
    </g>
    <g id="barba">
    </g>
    <g id="logo">
    </g>
    <g id="baffo">
    </g>
    <rect id="Artboard2" x="-8" y="-8" width="69.514" height="43.106" style="fill:none;"/>
    <g>
        <path d="M25.893,5.866C34.173,5.871 32.692,10.132 36.513,10.907C40.395,11.695 42.75,13.278 44.961,16.665C45.332,17.232 45.466,17.789 45.405,18.324L45.405,18.324C45.338,18.921 45.029,19.49 44.537,20.016C44.42,20.158 44.294,20.284 44.159,20.381C43.98,20.537 43.785,20.69 43.575,20.837C43.273,21.548 42.774,22.497 42.064,23.496C41.226,24.834 39.901,26.388 37.54,27.63L36.904,27.956C36.554,28.122 36.176,28.268 35.775,28.395C32.702,29.473 29.9,29.25 29.593,29.337L29.566,29.356C29.566,29.349 29.575,29.342 29.593,29.337L29.742,29.234C28.726,29.267 27.697,29.267 26.693,29.253L26.713,29.262C26.695,29.259 26.676,29.256 26.658,29.253C26.172,29.246 25.692,29.236 25.222,29.224C24.156,29.198 22.965,29.23 21.752,29.235C20.548,29.394 19.343,29.496 16.908,28.882L16.908,28.882C16.315,28.756 15.758,28.586 15.254,28.358C15.116,28.296 14.98,28.232 14.845,28.165C12.804,27.251 11.231,25.903 10.092,24.644C8.969,23.457 8.167,22.26 7.761,21.314L7.67,21.088C7.371,20.861 7.122,20.623 6.917,20.379L6.917,20.379C5.516,18.72 6.102,16.82 6.102,16.82C6.426,14.648 9.224,12.395 12.457,11.551C15.025,10.881 15.801,11.382 17.446,9.324C18.662,7.801 20.459,5.946 25.491,5.869L25.893,5.866Z" style="fill:rgb(141,118,95);"/>
        <path d="M19.369,29.321C20.331,29.403 21.042,29.329 21.752,29.235C22.965,29.23 24.156,29.198 25.222,29.224C25.692,29.236 26.172,29.246 26.658,29.253C26.676,29.256 26.695,29.259 26.713,29.262L26.693,29.253L27.422,29.26C27.439,29.317 27.46,29.373 27.482,29.428C27.436,29.593 27.387,29.758 27.338,29.92C27.488,30.446 27.806,30.902 28.23,31.224C28.344,31.135 28.45,31.037 28.547,30.93C28.134,30.511 27.705,29.983 27.482,29.428L27.528,29.261L28.213,29.261L28.785,29.255L29.048,30.094C28.936,30.406 28.765,30.689 28.547,30.93C28.897,31.286 29.235,31.563 29.428,31.713L29.545,31.725L29.532,31.642L29.048,30.094L29.133,29.799L28.96,29.253L28.978,29.252L29.074,29.25C29.105,29.381 29.134,29.513 29.162,29.645C29.154,29.697 29.144,29.749 29.133,29.799L29.305,30.345C29.262,30.12 29.214,29.883 29.162,29.645C29.182,29.523 29.192,29.398 29.193,29.271L29.193,29.247L29.742,29.234L29.593,29.337C29.575,29.342 29.566,29.349 29.566,29.356L29.593,29.337C29.9,29.25 32.702,29.473 35.775,28.395C36.176,28.268 36.554,28.122 36.904,27.956L37.54,27.63C39.901,26.388 41.226,24.834 42.064,23.496C42.774,22.497 43.273,21.548 43.575,20.837C43.785,20.69 43.98,20.537 44.159,20.381C44.294,20.284 44.42,20.158 44.537,20.016L44.611,19.935L45.405,20.824L44.611,19.935L44.611,19.935L45.405,20.824C45.278,20.647 45.149,20.47 45.021,20.294L44.687,19.847C45.092,19.369 45.345,18.858 45.405,18.324L45.405,18.324C45.466,17.789 45.332,17.232 44.961,16.665C42.75,13.278 40.395,11.695 36.513,10.907C32.692,10.132 34.173,5.871 25.894,5.866L25.894,3.366C31.122,3.369 33.216,4.877 34.659,6.346C35.041,6.735 35.37,7.132 35.697,7.512C36.04,7.909 36.341,8.322 37.011,8.457C41.625,9.394 44.426,11.273 47.054,15.298C47.79,16.424 48.009,17.541 47.89,18.604L47.89,18.604C47.747,19.868 46.678,20.824 45.406,20.824L45.405,20.824C46.678,20.824 47.747,19.868 47.89,18.604C47.769,19.673 47.281,20.723 46.427,21.653C46.207,21.914 45.968,22.145 45.734,22.323C45.686,22.365 45.637,22.406 45.589,22.444C45.24,23.164 44.758,24.015 44.154,24.869C43.137,26.481 41.54,28.35 38.705,29.842L37.975,30.215C37.538,30.422 37.067,30.606 36.58,30.763C33.497,31.837 29.89,31.815 29.89,31.815C29.89,31.815 30.202,31.763 30.277,31.742L29.651,31.829L29.566,31.856C29.319,31.856 29.081,31.821 28.857,31.754L28.241,31.761C27.98,31.761 27.719,31.761 27.459,31.761L26.717,31.754L26.713,31.762L26.607,31.752C26.118,31.745 25.634,31.735 25.16,31.723C24.163,31.699 23.053,31.727 21.929,31.733C20.546,31.911 19.115,32.013 16.338,31.316C15.58,31.152 14.869,30.928 14.224,30.636C14.07,30.566 13.917,30.495 13.8,30.437C11.427,29.369 9.589,27.81 8.275,26.361C7.034,25.05 6.134,23.717 5.61,22.621C5.386,22.415 5.186,22.205 5.006,21.992C5.161,22.176 5.34,22.334 5.537,22.463L5.537,22.463C5.34,22.334 5.161,22.176 5.006,21.992L5.005,21.991C3.043,19.665 3.476,17.045 3.65,16.319C3.876,15.031 4.601,13.694 5.771,12.511C7.237,11.03 9.429,9.758 11.826,9.132C12.678,8.91 13.351,8.801 13.925,8.701C14.541,8.593 14.908,8.495 15.492,7.763C17.004,5.871 19.196,3.465 25.453,3.369C24.08,3.39 22.981,4.515 22.991,5.888C22.992,5.954 22.995,6.019 23.001,6.083C19.81,6.625 18.435,8.085 17.446,9.324C15.801,11.382 15.025,10.881 12.457,11.551C9.224,12.395 6.426,14.648 6.102,16.82C6.102,16.82 5.516,18.72 6.917,20.379L6.917,20.379C7.122,20.623 7.371,20.861 7.67,21.088L7.761,21.314C8.009,21.893 8.407,22.567 8.935,23.274C8.336,23.648 7.761,23.814 7.761,23.814C8.229,23.814 8.679,23.683 9.066,23.446C9.369,23.84 9.712,24.243 10.092,24.644C11.231,25.903 12.804,27.251 14.845,28.165C14.98,28.232 15.116,28.296 15.254,28.358C15.758,28.586 16.315,28.756 16.908,28.882L16.908,28.882C17.907,29.134 18.699,29.266 19.369,29.321ZM29.591,31.831L29.588,31.834L29.593,31.837L29.591,31.831ZM29.729,31.693L32.066,29.356C32.066,30.043 31.894,31.282 30.278,31.742L29.593,31.837L29.651,31.829L31.021,31.389L29.593,31.837C29.593,31.837 31.167,31.288 31.167,31.288L29.742,31.734L29.729,31.693ZM29.465,31.741L29.558,31.811L29.547,31.739L29.465,31.741ZM27.233,30.256C26.984,31.037 26.748,31.67 26.717,31.753C27.211,31.748 27.67,31.601 28.056,31.349C27.689,31.07 27.401,30.693 27.233,30.256ZM16.908,31.382L16.903,31.382L16.908,31.382ZM17.027,31.38L16.908,31.382L17.027,31.38ZM16.754,31.378L16.765,31.378L16.717,31.374L16.754,31.378ZM17.26,31.358L17.173,31.368L17.26,31.358ZM16.6,31.363L16.621,31.365L16.566,31.358L16.6,31.363ZM17.374,31.339L17.297,31.352L17.374,31.339ZM16.448,31.34L16.477,31.344L16.422,31.334L16.448,31.34ZM17.487,31.315L17.416,31.33L17.487,31.315ZM17.706,31.252L17.642,31.272L17.706,31.252ZM17.917,31.17L17.856,31.195L17.917,31.17ZM19.218,29.838L19.193,29.898L19.218,29.838ZM19.259,29.732L19.237,29.792L19.259,29.732ZM19.296,29.623L19.276,29.683L19.296,29.623ZM19.354,29.398L19.34,29.461L19.354,29.398ZM5.66,22.667C5.816,22.808 5.983,22.946 6.162,23.082C6.535,23.364 6.979,23.535 7.442,23.577L7.761,23.814C6.902,23.814 6.114,23.374 5.66,22.667ZM7.901,22.676L7.901,22.676C7.595,22.808 7.262,22.879 6.917,22.879L6.917,22.879C7.262,22.879 7.595,22.808 7.901,22.676ZM5.646,22.532L5.543,22.468L5.543,22.468L5.646,22.532L5.683,22.552C5.916,22.686 6.171,22.781 6.437,22.832L6.437,22.832C6.171,22.781 5.916,22.686 5.683,22.552L5.646,22.532ZM25.878,5.866L25.863,3.366C25.863,3.366 25.482,3.369 25.482,3.369L25.486,5.869L25.491,5.869L25.878,5.866Z" style="fill:white;"/>
        <g>
            <path d="M25.648,5.866C33.928,5.871 32.448,10.132 36.269,10.907C40.15,11.695 42.505,13.278 44.716,16.665C45.087,17.232 45.221,17.789 45.161,18.324L45.161,18.324L45.161,18.324C45.093,18.921 44.785,19.49 44.292,20.016C44.176,20.158 44.049,20.284 43.914,20.381C43.735,20.537 43.54,20.69 43.33,20.837C43.028,21.548 42.529,22.497 41.82,23.496C40.981,24.834 39.657,26.388 37.296,27.63L37.295,27.63C37.089,27.744 36.877,27.853 36.66,27.956C36.309,28.122 35.931,28.268 35.531,28.395C32.458,29.473 29.655,29.25 29.349,29.337L29.321,29.356C29.321,29.349 29.33,29.342 29.349,29.337L29.497,29.234C28.481,29.267 27.453,29.267 26.448,29.253L26.469,29.262C26.45,29.259 26.431,29.256 26.413,29.253C25.927,29.246 25.448,29.236 24.978,29.224C23.911,29.198 22.72,29.23 21.507,29.235C20.303,29.394 19.098,29.496 16.663,28.882L16.663,28.882C16.07,28.756 15.513,28.586 15.009,28.358C14.871,28.296 14.735,28.232 14.6,28.165C12.559,27.251 10.986,25.903 9.847,24.644C8.724,23.457 7.922,22.26 7.516,21.314L7.516,21.314L7.516,21.314C7.483,21.237 7.453,21.161 7.425,21.088C7.126,20.861 6.877,20.623 6.672,20.379L6.672,20.379L6.672,20.379L6.672,20.379C5.271,18.72 5.857,16.82 5.857,16.82C6.181,14.648 8.98,12.395 12.213,11.551C14.78,10.881 15.557,11.382 17.201,9.324C18.417,7.801 20.214,5.946 25.246,5.869C25.366,5.867 25.483,5.866 25.599,5.866L25.648,5.866Z" style="fill:rgb(141,118,95);"/>
        </g>
        <g>
            <g>
                <path d="M43.009,19.698C43.009,19.698 44.105,15.929 35.194,15.822C30.972,12.384 18.999,13.394 16.982,15.53C11.948,15.684 7.603,17.458 8.456,20.567C8.968,22.436 11.736,25.995 15.775,27.822C18.317,28.971 22.289,28.571 25.246,28.644C29.081,28.74 33.606,28.738 36.345,27.439C40.779,25.338 42.836,20.72 43.009,19.698Z" style="fill:url(#_Linear1);"/>
                <path d="M42.043,20.388C41.773,19.195 40.412,16.832 34.951,16.77C30.905,13.645 19.491,14.864 17.558,16.807C13.797,16.917 9.74,18.618 9.044,20.294C8.144,18.148 12.989,16.304 17.496,16.172C19.429,14.23 30.904,13.309 34.95,16.435C42.46,16.519 42.212,19.637 42.043,20.388Z" style="fill:rgb(141,118,95);"/>
                <path d="M35.109,17.82C35.109,17.82 32.534,22.815 30.192,23.011C31.333,20.722 33.468,19.295 35.109,17.82Z" style="fill:rgb(141,118,95);"/>
                <path d="M21.552,23.037C21.552,23.037 19.78,17.955 17.455,17.689C18.423,20.01 20.024,21.514 21.552,23.037Z" style="fill:rgb(141,118,95);"/>
            </g>
            <g>
                <path d="M7.08,16.859C7.08,16.859 5.38,22.376 15.029,22.542C19.591,26.854 32.56,25.635 34.751,22.974C40.203,22.8 46.101,19.929 44,16.712C41.899,13.495 39.662,11.99 35.974,11.242C32.286,10.494 33.796,6.327 25.502,6.455C20.721,6.529 19.013,8.291 17.858,9.737C16.295,11.693 15.557,11.217 13.118,11.853C10.047,12.655 7.388,14.796 7.08,16.859Z" style="fill:rgb(214,199,168);"/>
                <path d="M15.259,20.046C15.259,20.046 18.108,13.814 20.686,13.577C19.423,16.434 17.068,18.209 15.259,20.046Z" style="fill:rgb(141,118,95);"/>
                <path d="M30.192,13.577C30.192,13.577 32.125,19.934 34.682,20.275C33.625,17.371 31.868,15.485 30.192,13.577Z" style="fill:rgb(141,118,95);"/>
                <path d="M37.677,12.192C37.677,12.192 41.243,17.798 43.798,17.442C42.001,14.927 39.803,13.581 37.677,12.192Z" style="fill:rgb(141,118,95);"/>
                <path d="M12.945,13.137C12.299,12.558 7.158,15.941 8.555,18.525C9.574,16.463 10.66,14.631 12.945,13.137Z" style="fill:rgb(141,118,95);"/>
                <path d="M30.058,8.743C30.058,8.743 25.354,6.092 21.002,9.306C23.94,8.724 25.875,8.285 30.058,8.743Z" style="fill:rgb(141,118,95);"/>
                <path d="M17.713,22.438C17.713,22.438 26.52,25.175 33.687,22.665C24.885,23.408 20.545,22.55 17.713,22.438Z" style="fill:rgb(141,118,95);"/>
                <path d="M15.721,22.52C15.721,22.52 12.443,24.777 7.854,20.241C12.169,23.158 11.398,20.416 15.721,22.52Z" style="fill:rgb(141,118,95);"/>
            </g>
            <g>
                <path d="M7.08,16.859C7.08,16.859 5.38,22.376 15.029,22.542C19.591,26.854 32.56,25.635 34.751,22.974C40.203,22.8 46.101,19.929 44,16.712C41.899,13.495 39.662,11.99 35.974,11.242C32.286,10.494 33.796,6.327 25.502,6.455C20.721,6.529 19.013,8.291 17.858,9.737C16.295,11.693 15.557,11.217 13.118,11.853C10.047,12.655 7.388,14.796 7.08,16.859Z" style="fill:url(#_Linear2);"/>
                <path d="M15.259,20.046C15.259,20.046 18.108,13.814 20.686,13.577C19.423,16.434 17.068,18.209 15.259,20.046Z" style="fill:rgb(141,118,95);"/>
                <path d="M30.192,13.577C30.192,13.577 32.125,19.934 34.682,20.275C33.625,17.371 31.868,15.485 30.192,13.577Z" style="fill:rgb(141,118,95);"/>
                <path d="M37.677,12.192C37.677,12.192 41.243,17.798 43.798,17.442C42.001,14.927 39.803,13.581 37.677,12.192Z" style="fill:rgb(141,118,95);"/>
                <path d="M12.945,13.137C12.299,12.558 7.158,15.941 8.555,18.525C9.574,16.463 10.66,14.631 12.945,13.137Z" style="fill:rgb(141,118,95);"/>
                <path d="M30.058,8.743C30.058,8.743 25.354,6.092 21.002,9.306C23.94,8.724 25.875,8.285 30.058,8.743Z" style="fill:rgb(141,118,95);"/>
                <path d="M17.713,22.438C17.713,22.438 26.52,25.175 33.687,22.665C24.885,23.408 20.545,22.55 17.713,22.438Z" style="fill:rgb(141,118,95);"/>
                <path d="M15.405,19.871C15.405,19.871 19.297,17.268 20.6,13.723C17.728,17.093 16.358,18.834 15.405,19.871Z" style="fill:rgb(234,230,219);"/>
                <path d="M8.604,18.525C8.604,18.525 11.591,16.735 12.894,13.189C11.673,13.825 10.571,15.199 10.015,15.917C9.12,17.072 8.577,17.851 8.604,18.525Z" style="fill:rgb(234,230,219);"/>
                <path d="M28.577,7.635C28.56,7.196 23.907,5.993 20.6,8.711C22.097,8.515 23.345,7.78 24.386,7.633C26.396,7.349 27.652,7.721 28.577,7.635Z" style="fill:rgb(234,230,219);"/>
                <path d="M34.682,20.275C34.682,20.275 33.11,15.976 30.192,13.577C32.445,16.775 34.017,19.033 34.682,20.275Z" style="fill:rgb(234,230,219);"/>
                <path d="M43.798,17.458C43.798,17.458 41.737,14.267 37.677,12.192C39.382,13.715 43.133,16.216 43.798,17.458Z" style="fill:rgb(234,230,219);"/>
            </g>
            <path d="M8.656,21.129C8.656,21.129 9.011,21.995 9.797,23.162C10.345,23.975 11.098,24.932 12.086,25.838C12.901,26.585 13.872,27.299 15.011,27.862C15.697,28.202 16.448,28.476 17.255,28.686C18.468,28.962 19.366,29.071 20.111,29.075C21.154,29.08 21.888,28.9 22.762,28.754C23.702,28.597 24.802,28.474 26.663,28.68C24.804,28.276 23.679,28.277 22.713,28.347C21.859,28.41 21.14,28.523 20.134,28.453C19.427,28.404 18.579,28.27 17.439,27.953C16.678,27.768 15.975,27.506 15.318,27.211C14.214,26.713 13.25,26.098 12.423,25.443C9.906,23.449 8.656,21.129 8.656,21.129Z" style="fill:rgb(141,118,95);"/>
            <path d="M44.422,18.289C44.422,18.289 44.133,19.067 43.669,19.664C43.451,19.944 43.195,20.184 42.908,20.265C42.575,20.361 42.279,20.884 41.856,21.653C41.599,22.12 41.282,22.676 40.857,23.273C40.528,23.735 40.131,24.217 39.644,24.702C39.184,25.161 38.64,25.614 37.995,26.056C37.624,26.311 37.225,26.569 36.781,26.809C36.325,27.067 35.865,27.284 35.41,27.472C34.653,27.787 33.912,28.017 33.218,28.188C31.047,28.722 29.367,28.669 29.373,28.77C29.378,28.668 31.064,28.934 33.3,28.61C34.034,28.503 34.823,28.331 35.63,28.063C36.124,27.899 36.621,27.693 37.118,27.451C37.596,27.207 38.034,26.955 38.427,26.683C39.115,26.209 39.678,25.697 40.147,25.185C40.641,24.647 41.028,24.107 41.342,23.593C41.736,22.946 42.012,22.344 42.234,21.84C42.424,21.41 42.57,21.055 42.721,20.811C42.81,20.666 42.891,20.56 42.995,20.52C43.313,20.395 43.588,20.103 43.804,19.758C44.212,19.107 44.422,18.289 44.422,18.289Z" style="fill:rgb(141,118,95);"/>
        </g>
    </g>
    <defs>
        <linearGradient id="_Linear1" x1="0" y1="0" x2="1" y2="0" gradientUnits="userSpaceOnUse" gradientTransform="matrix(-0.0965263,4.11872,-4.11872,-0.0965263,30.9664,25.3812)"><stop offset="0" style="stop-color:rgb(214,196,168);stop-opacity:1"/><stop offset="1" style="stop-color:rgb(191,162,115);stop-opacity:1"/></linearGradient>
        <linearGradient id="_Linear2" x1="0" y1="0" x2="1" y2="0" gradientUnits="userSpaceOnUse" gradientTransform="matrix(8.53311e-16,13.9356,-13.9356,8.53311e-16,30.7072,10.6473)"><stop offset="0" style="stop-color:rgb(214,199,168);stop-opacity:1"/><stop offset="1" style="stop-color:rgb(198,173,132);stop-opacity:1"/></linearGradient>
    </defs>
</svg>
