<?xml version="1.0" encoding="UTF-8" standalone="no"?><!DOCTYPE svg PUBLIC "-//W3C//DTD SVG 1.1//EN" "http://www.w3.org/Graphics/SVG/1.1/DTD/svg11.dtd"><svg width="100%" height="100%" viewBox="0 0 31 14" version="1.1" xmlns="http://www.w3.org/2000/svg" xmlns:xlink="http://www.w3.org/1999/xlink" xml:space="preserve" xmlns:serif="http://www.serif.com/" style="fill-rule:evenodd;clip-rule:evenodd;stroke-linejoin:round;stroke-miterlimit:2;"><rect id="Tavola-da-disegno4" serif:id="Tavola da disegno4" x="-0" y="-0" width="30.696" height="13.329" style="fill:none;"/><g><g><g><path d="M2.314,9.408c-0,-0 -1.881,-0.513 -1.87,-3.768c-0,-0.015 -0.01,-2.046 2.415,-2.651c1.452,-0.363 5.652,-0.796 6.559,-0.809c2.439,-0.034 14.932,-0.429 15.322,2.807c0.084,0.697 0.055,1.17 -0.051,1.743c-0.385,2.086 -0.872,3.098 -6.329,3.615c-4.597,0.435 -9.944,0.032 -12.743,-0.235c-1.472,-0.14 -3.303,-0.702 -3.303,-0.702Z" style="fill:#8d765f;"/><path d="M6.145,8.869c0,0 -3.346,-0.124 -4.36,-0.942c-0.651,-0.525 -1.307,-0.924 -1.339,-2.259c-0.081,-3.366 1.136,-4.925 4.19,-5.229c1.699,-0.169 4.486,0.475 6.691,0.394c1.121,-0.041 4.858,-0.452 7.645,-0.182c3.273,0.318 5.571,1.508 5.771,4.34c0.081,1.158 0.171,2.596 -0.619,3.271c-1.921,1.641 -3.518,-0.074 -8.281,0.073c-6.413,0.198 -9.698,0.534 -9.698,0.534Z" style="fill:#c3b086;"/></g><path d="M8.941,1.067c0,0 0.99,2.051 2.299,2.162c-0.541,-0.938 -1.441,-1.546 -2.299,-2.162Z" style="fill:#8d765f;"/><path d="M12.026,1.067c0,0 0.99,2.051 2.3,2.162c-0.542,-0.938 -1.442,-1.546 -2.3,-2.162Z" style="fill:#8d765f;"/><path d="M15.301,1.067c0,0 0.99,2.051 2.3,2.162c-0.542,-0.938 -1.441,-1.546 -2.3,-2.162Z" style="fill:#8d765f;"/><path d="M21.032,1.324c1.909,1.097 0.895,2.805 0.71,2.84c1.487,-0.224 1.281,-2.63 -0.71,-2.84Z" style="fill:#8d765f;"/><path d="M3.568,4.741c-0.793,-0.724 -0.717,-3.479 -0.502,-3.416c-1.736,-0.083 -1.099,3.309 0.502,3.416Z" style="fill:#8d765f;"/></g><g><path d="M21.202,2.739c3.57,0.002 2.932,1.839 4.579,2.173c1.673,0.34 2.688,1.022 3.641,2.482c0.16,0.245 0.218,0.485 0.192,0.715l-0,0l-0,0c-0.029,0.258 -0.162,0.503 -0.375,0.73c-0.05,0.061 -0.104,0.115 -0.163,0.157c-0.077,0.067 -0.161,0.133 -0.251,0.197c-0.13,0.306 -0.345,0.715 -0.651,1.146c-0.362,0.577 -0.933,1.246 -1.951,1.782l0,0c-0.089,0.049 -0.18,0.096 -0.274,0.14c-0.151,0.072 -0.314,0.135 -0.486,0.19c-1.325,0.464 -2.533,0.368 -2.665,0.406l-0.012,0.008c-0,-0.003 0.004,-0.006 0.012,-0.008l0.064,-0.045c-0.438,0.014 -0.882,0.015 -1.315,0.009l0.009,0.003c-0.008,-0.001 -0.016,-0.002 -0.024,-0.003c-0.209,-0.003 -0.416,-0.008 -0.619,-0.013c-0.459,-0.011 -0.973,0.003 -1.496,0.005c-0.519,0.068 -1.038,0.112 -2.088,-0.152l0,-0c-0.256,-0.055 -0.496,-0.128 -0.713,-0.226c-0.059,-0.027 -0.118,-0.055 -0.176,-0.083c-0.88,-0.394 -1.558,-0.975 -2.049,-1.518c-0.484,-0.512 -0.83,-1.028 -1.005,-1.436l0,0l0,0c-0.014,-0.033 -0.027,-0.066 -0.039,-0.097c-0.129,-0.098 -0.236,-0.201 -0.325,-0.306l0,0l0,0l0,0c-0.604,-0.715 -0.351,-1.534 -0.351,-1.534c0.139,-0.937 1.346,-1.908 2.74,-2.271c1.106,-0.289 1.441,-0.073 2.15,-0.961c0.524,-0.656 1.299,-1.456 3.468,-1.489c0.052,-0.001 0.102,-0.001 0.152,-0.001l0.021,-0Z" style="fill:#8d765f;"/></g><g><g><path d="M29.864,8.749c-0,-0 0.497,-1.71 -3.546,-1.759c-1.915,-1.56 -7.348,-1.101 -8.263,-0.132c-2.284,0.07 -4.255,0.874 -3.869,2.285c0.233,0.848 1.488,2.463 3.321,3.292c1.154,0.521 2.956,0.34 4.298,0.373c1.74,0.043 3.793,0.042 5.036,-0.547c2.012,-0.953 2.945,-3.049 3.023,-3.512Z" style="fill:#d6c7a8;"/><path d="M29.426,9.062c-0.123,-0.541 -0.74,-1.614 -3.218,-1.641c-1.836,-1.419 -7.014,-0.865 -7.892,0.016c-1.706,0.05 -3.547,0.822 -3.863,1.582c-0.408,-0.973 1.79,-1.81 3.835,-1.87c0.877,-0.881 6.084,-1.299 7.92,0.119c3.407,0.039 3.294,1.453 3.218,1.794Z" style="fill:#8d765f;"/><path d="M26.28,7.897c-0,-0 -1.169,2.266 -2.231,2.355c0.517,-1.039 1.486,-1.686 2.231,-2.355Z" style="fill:#8d765f;"/><path d="M20.128,10.264c0,-0 -0.804,-2.306 -1.858,-2.427c0.439,1.053 1.165,1.736 1.858,2.427Z" style="fill:#8d765f;"/></g><g><path d="M13.562,7.461c-0,-0 -0.771,2.503 3.607,2.578c2.07,1.957 7.954,1.404 8.948,0.196c2.474,-0.079 5.15,-1.381 4.197,-2.841c-0.954,-1.46 -1.969,-2.142 -3.642,-2.482c-1.673,-0.339 -0.988,-2.23 -4.751,-2.172c-2.17,0.033 -2.944,0.833 -3.469,1.489c-0.709,0.888 -1.043,0.672 -2.15,0.961c-1.394,0.363 -2.6,1.334 -2.74,2.271Z" style="fill:#d6c7a8;"/><path d="M17.273,8.907c0,-0 1.293,-2.828 2.463,-2.935c-0.574,1.296 -1.642,2.101 -2.463,2.935Z" style="fill:#8d765f;"/><path d="M24.049,5.972c-0,-0 0.877,2.884 2.037,3.039c-0.48,-1.318 -1.277,-2.174 -2.037,-3.039Z" style="fill:#8d765f;"/><path d="M27.445,5.343c0,0 1.618,2.544 2.777,2.382c-0.815,-1.141 -1.812,-1.751 -2.777,-2.382Z" style="fill:#8d765f;"/><path d="M16.223,5.772c-0.293,-0.263 -2.626,1.272 -1.992,2.445c0.463,-0.936 0.955,-1.767 1.992,-2.445Z" style="fill:#8d765f;"/><path d="M23.988,3.778c-0,0 -2.134,-1.203 -4.109,0.256c1.333,-0.264 2.211,-0.463 4.109,-0.256Z" style="fill:#8d765f;"/><path d="M18.387,9.992c-0,0 3.996,1.242 7.247,0.103c-3.993,0.337 -5.963,-0.052 -7.247,-0.103Z" style="fill:#8d765f;"/><path d="M17.483,10.029c-0,0 -1.488,1.024 -3.57,-1.034c1.958,1.324 1.608,0.08 3.57,1.034Z" style="fill:#8d765f;"/></g><g><path d="M13.562,7.461c-0,-0 -0.771,2.503 3.607,2.578c2.07,1.957 7.954,1.404 8.948,0.196c2.474,-0.079 5.15,-1.381 4.197,-2.841c-0.954,-1.46 -1.969,-2.142 -3.642,-2.482c-1.673,-0.339 -0.988,-2.23 -4.751,-2.172c-2.17,0.033 -2.944,0.833 -3.469,1.489c-0.709,0.888 -1.043,0.672 -2.15,0.961c-1.394,0.363 -2.6,1.334 -2.74,2.271Z" style="fill:#d6c7a8;"/><path d="M17.273,8.907c0,-0 1.293,-2.828 2.463,-2.935c-0.574,1.296 -1.642,2.101 -2.463,2.935Z" style="fill:#8d765f;"/><path d="M24.049,5.972c-0,-0 0.877,2.884 2.037,3.039c-0.48,-1.318 -1.277,-2.174 -2.037,-3.039Z" style="fill:#8d765f;"/><path d="M27.445,5.343c0,0 1.618,2.544 2.777,2.382c-0.815,-1.141 -1.812,-1.751 -2.777,-2.382Z" style="fill:#8d765f;"/><path d="M16.223,5.772c-0.293,-0.263 -2.626,1.272 -1.992,2.445c0.463,-0.936 0.955,-1.767 1.992,-2.445Z" style="fill:#8d765f;"/><path d="M23.988,3.778c-0,0 -2.134,-1.203 -4.109,0.256c1.333,-0.264 2.211,-0.463 4.109,-0.256Z" style="fill:#8d765f;"/><path d="M18.387,9.992c-0,0 3.996,1.242 7.247,0.103c-3.993,0.337 -5.963,-0.052 -7.247,-0.103Z" style="fill:#8d765f;"/><path d="M17.483,10.029c-0,0 -1.488,1.024 -3.57,-1.034c1.958,1.324 1.608,0.08 3.57,1.034Z" style="fill:#8d765f;"/></g><path d="M14.277,9.398c0,0 0.161,0.393 0.518,0.923c0.249,0.369 0.59,0.803 1.038,1.214c0.37,0.339 0.811,0.663 1.328,0.918c0.311,0.154 0.652,0.279 1.018,0.374c0.55,0.125 0.958,0.175 1.295,0.176c0.474,0.003 0.807,-0.079 1.203,-0.145c0.427,-0.072 0.926,-0.127 1.77,-0.034c-0.843,-0.183 -1.353,-0.183 -1.792,-0.151c-0.387,0.029 -0.713,0.08 -1.17,0.048c-0.32,-0.022 -0.705,-0.083 -1.223,-0.226c-0.345,-0.085 -0.664,-0.203 -0.962,-0.337c-0.501,-0.226 -0.938,-0.505 -1.313,-0.803c-1.143,-0.904 -1.71,-1.957 -1.71,-1.957Z" style="fill:#8d765f;"/><path d="M30.505,8.109c0,0 -0.131,0.353 -0.342,0.624c-0.098,0.128 -0.214,0.236 -0.344,0.273c-0.152,0.044 -0.286,0.281 -0.478,0.63c-0.117,0.212 -0.26,0.464 -0.453,0.735c-0.15,0.209 -0.33,0.428 -0.55,0.649c-0.209,0.208 -0.456,0.413 -0.749,0.614c-0.168,0.115 -0.349,0.232 -0.551,0.342c-0.206,0.116 -0.415,0.215 -0.622,0.3c-0.343,0.143 -0.68,0.248 -0.994,0.325c-0.985,0.242 -1.748,0.218 -1.745,0.264c0.002,-0.046 0.767,0.074 1.782,-0.073c0.333,-0.048 0.691,-0.126 1.057,-0.248c0.224,-0.074 0.45,-0.167 0.675,-0.278c0.217,-0.11 0.416,-0.225 0.594,-0.348c0.312,-0.215 0.568,-0.447 0.781,-0.68c0.224,-0.243 0.4,-0.489 0.542,-0.722c0.179,-0.293 0.304,-0.567 0.405,-0.795c0.086,-0.195 0.152,-0.356 0.22,-0.467c0.041,-0.066 0.078,-0.114 0.125,-0.132c0.144,-0.057 0.269,-0.189 0.367,-0.346c0.185,-0.296 0.28,-0.667 0.28,-0.667Z" style="fill:#8d765f;"/></g></g></svg>