<?xml version="1.0" encoding="UTF-8" standalone="no"?><!DOCTYPE svg PUBLIC "-//W3C//DTD SVG 1.1//EN" "http://www.w3.org/Graphics/SVG/1.1/DTD/svg11.dtd"><svg width="100%" height="100%" viewBox="0 0 31 19" version="1.1" xmlns="http://www.w3.org/2000/svg" xmlns:xlink="http://www.w3.org/1999/xlink" xml:space="preserve" xmlns:serif="http://www.serif.com/" style="fill-rule:evenodd;clip-rule:evenodd;stroke-linejoin:round;stroke-miterlimit:2;"><rect id="Tavola-da-disegno4" serif:id="Tavola da disegno4" x="-0" y="0.601" width="30.696" height="17.774" style="fill:none;"/><g><g><path d="M15.486,0.649c6.21,0.004 5.1,3.2 7.965,3.782c2.912,0.59 4.678,1.778 6.336,4.317c0.278,0.426 0.379,0.844 0.334,1.245l-0,0l-0,0c-0.051,0.448 -0.283,0.875 -0.652,1.269c-0.087,0.106 -0.182,0.201 -0.284,0.274c-0.134,0.117 -0.28,0.231 -0.438,0.342c-0.226,0.533 -0.6,1.244 -1.132,1.994c-0.629,1.003 -1.623,2.169 -3.393,3.101l-0,-0c-0.155,0.085 -0.314,0.167 -0.477,0.244c-0.263,0.124 -0.546,0.234 -0.847,0.33c-2.305,0.807 -4.407,0.64 -4.637,0.706l-0.02,0.014c-0,-0.005 0.007,-0.01 0.02,-0.014l0.112,-0.078c-0.762,0.025 -1.534,0.025 -2.287,0.015l0.016,0.006c-0.014,-0.002 -0.028,-0.004 -0.042,-0.006c-0.364,-0.006 -0.724,-0.013 -1.077,-0.022c-0.799,-0.02 -1.693,0.004 -2.603,0.008c-0.903,0.12 -1.806,0.196 -3.632,-0.264l-0.001,-0c-0.444,-0.095 -0.862,-0.223 -1.24,-0.393c-0.104,-0.047 -0.206,-0.095 -0.307,-0.145c-1.531,-0.685 -2.71,-1.697 -3.565,-2.641c-0.842,-0.89 -1.444,-1.788 -1.748,-2.498l0,0l0,0c-0.025,-0.057 -0.047,-0.114 -0.068,-0.169c-0.225,-0.17 -0.411,-0.349 -0.565,-0.531l-0,-0l-0,-0l-0,-0c-1.05,-1.245 -0.611,-2.67 -0.611,-2.67c0.243,-1.629 2.342,-3.319 4.767,-3.952c1.925,-0.503 2.508,-0.127 3.741,-1.67c0.912,-1.142 2.26,-2.533 6.034,-2.591c0.089,-0.002 0.177,-0.002 0.264,-0.003l0.037,0Z" style="fill:#8d765f;"/></g><g><g><path d="M28.506,11.024c0,-0 0.823,-2.827 -5.86,-2.907c-3.167,-2.579 -12.147,-1.821 -13.66,-0.219c-3.775,0.115 -7.034,1.445 -6.394,3.777c0.384,1.402 2.46,4.071 5.489,5.441c1.907,0.863 4.885,0.562 7.104,0.617c2.876,0.072 6.269,0.07 8.324,-0.903c3.326,-1.577 4.868,-5.04 4.997,-5.806Z" style="fill:#d6c7a8;"/><path d="M27.782,11.541c-0.202,-0.895 -1.223,-2.667 -5.319,-2.713c-3.034,-2.344 -11.594,-1.43 -13.044,0.027c-2.821,0.083 -5.864,1.359 -6.386,2.616c-0.675,-1.61 2.959,-2.993 6.339,-3.092c1.45,-1.457 10.056,-2.147 13.091,0.197c5.632,0.063 5.446,2.402 5.319,2.965Z" style="fill:#8d765f;"/><path d="M22.582,9.615c-0,0 -1.932,3.746 -3.688,3.893c0.856,-1.717 2.457,-2.787 3.688,-3.893Z" style="fill:#8d765f;"/><path d="M12.414,13.527c-0,0 -1.329,-3.811 -3.073,-4.01c0.726,1.741 1.927,2.869 3.073,4.01Z" style="fill:#8d765f;"/></g><g><path d="M1.56,8.895c-0,-0 -1.275,4.137 5.962,4.262c3.421,3.233 13.148,2.32 14.791,0.323c4.089,-0.13 8.513,-2.283 6.937,-4.696c-1.576,-2.413 -3.254,-3.541 -6.02,-4.102c-2.766,-0.562 -1.633,-3.686 -7.854,-3.591c-3.585,0.055 -4.866,1.377 -5.733,2.462c-1.171,1.467 -1.725,1.109 -3.554,1.587c-2.304,0.602 -4.298,2.207 -4.529,3.755Z" style="fill:#d6c7a8;"/><path d="M7.694,11.284c0,0 2.137,-4.674 4.07,-4.851c-0.947,2.143 -2.713,3.474 -4.07,4.851Z" style="fill:#8d765f;"/><path d="M18.894,6.433c0,0 1.45,4.767 3.368,5.023c-0.793,-2.178 -2.111,-3.592 -3.368,-5.023Z" style="fill:#8d765f;"/><path d="M24.508,5.394c-0,0 2.674,4.205 4.591,3.937c-1.348,-1.886 -2.997,-2.895 -4.591,-3.937Z" style="fill:#8d765f;"/><path d="M5.959,6.103c-0.485,-0.435 -4.341,2.103 -3.293,4.041c0.764,-1.547 1.579,-2.921 3.293,-4.041Z" style="fill:#8d765f;"/><path d="M18.794,2.807c-0,0 -3.528,-1.988 -6.793,0.423c2.204,-0.437 3.655,-0.766 6.793,-0.423Z" style="fill:#8d765f;"/><path d="M9.535,13.079c-0,-0 6.605,2.052 11.98,0.17c-6.601,0.557 -9.857,-0.086 -11.98,-0.17Z" style="fill:#8d765f;"/><path d="M8.041,13.14c-0,-0 -2.459,1.693 -5.9,-1.709c3.236,2.187 2.658,0.131 5.9,1.709Z" style="fill:#8d765f;"/></g><g><path d="M1.56,8.895c-0,-0 -1.275,4.137 5.962,4.262c3.421,3.233 13.148,2.32 14.791,0.323c4.089,-0.13 8.513,-2.283 6.937,-4.696c-1.576,-2.413 -3.254,-3.541 -6.02,-4.102c-2.766,-0.562 -1.633,-3.686 -7.854,-3.591c-3.585,0.055 -4.866,1.377 -5.733,2.462c-1.171,1.467 -1.725,1.109 -3.554,1.587c-2.304,0.602 -4.298,2.207 -4.529,3.755Z" style="fill:#d6c7a8;"/><path d="M7.694,11.284c0,0 2.137,-4.674 4.07,-4.851c-0.947,2.143 -2.713,3.474 -4.07,4.851Z" style="fill:#8d765f;"/><path d="M18.894,6.433c0,0 1.45,4.767 3.368,5.023c-0.793,-2.178 -2.111,-3.592 -3.368,-5.023Z" style="fill:#8d765f;"/><path d="M24.508,5.394c-0,0 2.674,4.205 4.591,3.937c-1.348,-1.886 -2.997,-2.895 -4.591,-3.937Z" style="fill:#8d765f;"/><path d="M5.959,6.103c-0.485,-0.435 -4.341,2.103 -3.293,4.041c0.764,-1.547 1.579,-2.921 3.293,-4.041Z" style="fill:#8d765f;"/><path d="M18.794,2.807c-0,0 -3.528,-1.988 -6.793,0.423c2.204,-0.437 3.655,-0.766 6.793,-0.423Z" style="fill:#8d765f;"/><path d="M9.535,13.079c-0,-0 6.605,2.052 11.98,0.17c-6.601,0.557 -9.857,-0.086 -11.98,-0.17Z" style="fill:#8d765f;"/><path d="M9.358,12.166c0,-0 6.605,2.052 11.98,0.17c-0.347,-0.657 -2.96,0.039 -5.813,-0.01c-3.352,-0.057 -6.413,-0.821 -6.167,-0.16Z" style="fill:#eae6db;"/><path d="M7.803,11.153c0,0 2.919,-1.952 3.897,-4.611c-2.154,2.528 -3.181,3.833 -3.897,4.611Z" style="fill:#eae6db;"/><path d="M2.703,10.144c0,0 2.24,-1.343 3.217,-4.002c-0.915,0.477 -1.742,1.507 -2.159,2.046c-0.671,0.866 -1.078,1.451 -1.058,1.956Z" style="fill:#eae6db;"/><path d="M17.683,1.976c-0.013,-0.329 -3.503,-1.231 -5.983,0.807c1.123,-0.147 2.059,-0.698 2.839,-0.808c1.508,-0.213 2.45,0.065 3.144,0.001Z" style="fill:#eae6db;"/><path d="M22.262,11.456c-0,0 -1.18,-3.224 -3.368,-5.023c1.69,2.398 2.869,4.092 3.368,5.023Z" style="fill:#eae6db;"/><path d="M29.099,9.343c-0,0 -1.546,-2.393 -4.591,-3.949c1.278,1.142 4.092,3.018 4.591,3.949Z" style="fill:#eae6db;"/><path d="M8.041,13.14c-0,-0 -2.459,1.693 -5.9,-1.709c3.236,2.187 2.658,0.131 5.9,1.709Z" style="fill:#8d765f;"/></g><path d="M2.742,12.097c0,-0 0.266,0.649 0.856,1.524c0.411,0.61 0.976,1.328 1.716,2.008c0.612,0.56 1.34,1.095 2.194,1.518c0.515,0.255 1.078,0.46 1.683,0.618c0.91,0.206 1.583,0.288 2.142,0.291c0.783,0.004 1.333,-0.131 1.988,-0.241c0.706,-0.118 1.53,-0.209 2.926,-0.055c-1.394,-0.303 -2.238,-0.303 -2.962,-0.249c-0.641,0.047 -1.18,0.132 -1.935,0.079c-0.529,-0.037 -1.166,-0.138 -2.02,-0.375c-0.571,-0.139 -1.099,-0.335 -1.591,-0.557c-0.829,-0.373 -1.551,-0.835 -2.171,-1.326c-1.888,-1.496 -2.826,-3.235 -2.826,-3.235Z" style="fill:#8d765f;"/><path d="M29.566,9.966c0,0 -0.216,0.584 -0.564,1.032c-0.164,0.21 -0.355,0.39 -0.571,0.451c-0.25,0.072 -0.472,0.464 -0.789,1.04c-0.193,0.351 -0.431,0.768 -0.749,1.215c-0.247,0.347 -0.545,0.709 -0.91,1.073c-0.345,0.344 -0.753,0.683 -1.237,1.015c-0.278,0.191 -0.578,0.385 -0.91,0.565c-0.342,0.193 -0.687,0.356 -1.029,0.497c-0.567,0.236 -1.123,0.409 -1.643,0.537c-1.629,0.401 -2.889,0.361 -2.885,0.437c0.005,-0.077 1.269,0.122 2.946,-0.121c0.55,-0.079 1.142,-0.209 1.747,-0.41c0.371,-0.123 0.744,-0.277 1.117,-0.459c0.358,-0.183 0.686,-0.372 0.981,-0.575c0.516,-0.356 0.938,-0.741 1.29,-1.124c0.37,-0.404 0.661,-0.809 0.897,-1.195c0.295,-0.484 0.502,-0.936 0.669,-1.314c0.142,-0.322 0.251,-0.588 0.364,-0.771c0.068,-0.109 0.129,-0.189 0.206,-0.219c0.239,-0.094 0.445,-0.312 0.607,-0.571c0.306,-0.489 0.463,-1.103 0.463,-1.103Z" style="fill:#8d765f;"/></g></g></svg>