<?xml version="1.0" encoding="UTF-8" standalone="no"?><!DOCTYPE svg PUBLIC "-//W3C//DTD SVG 1.1//EN" "http://www.w3.org/Graphics/SVG/1.1/DTD/svg11.dtd"><svg width="100%" height="100%" viewBox="0 0 22 24" version="1.1" xmlns="http://www.w3.org/2000/svg" xmlns:xlink="http://www.w3.org/1999/xlink" xml:space="preserve" xmlns:serif="http://www.serif.com/" style="fill-rule:evenodd;clip-rule:evenodd;stroke-linejoin:round;stroke-miterlimit:2;"><rect id="Tavola-da-disegno9" serif:id="Tavola da disegno9" x="0" y="0" width="21.093" height="23.049" style="fill:none;"/><g><circle cx="10.546" cy="12.864" r="5.841" style="fill:#dba09f;"/><path d="M9.828,3.337c1.511,-0.808 3.245,-0.295 4.091,1.673c0.757,1.759 3.319,11.57 -4.868,16.539c-0.35,0.212 -1.271,0.849 -2.339,1.167c-0.545,0.163 -0.68,-0.179 -0.308,-0.566c5.596,-5.83 2.772,-13.314 2.488,-14.27c-0.581,-1.962 -0.375,-3.842 0.936,-4.543Z" style="fill:#bc2934;"/><path d="M8.296,8.246l-0.122,-0.389c-0.581,-1.962 0.216,-4.18 1.527,-4.881c0.337,-0.18 0.697,-0.291 1.062,-0.332c0.06,-0.007 -0.193,-0.763 -0.055,-1.546c0.146,-0.83 0.093,-0.858 0.289,-0.776c0.245,0.103 0.04,0.308 -0.003,1.182c-0.036,0.723 0.396,1.137 0.441,1.142c1.051,0.125 2.056,0.821 2.598,2.082c0.262,0.609 0.841,2.181 1.007,4.19c-0.172,-0.728 -0.7,-1.353 -0.831,-1.659c-0.123,-0.286 -1.04,-1.775 -1.328,-1.869c0.462,1.486 -0.246,1.405 -0.412,3.32c-0.383,-1.51 -0.435,-3.134 -0.836,-3.135c-1.3,0.664 -0.968,2.159 -1.318,3.2c-0.068,0.204 -1.013,-1.722 -0.198,-3.188c-0.754,0.485 -1.771,1.613 -1.821,2.659Z" style="fill:#8abf79;"/></g></svg>