<?xml version="1.0" encoding="UTF-8" standalone="no"?><!DOCTYPE svg PUBLIC "-//W3C//DTD SVG 1.1//EN" "http://www.w3.org/Graphics/SVG/1.1/DTD/svg11.dtd"><svg width="29px" height="27px" version="1.1" xmlns="http://www.w3.org/2000/svg" xmlns:xlink="http://www.w3.org/1999/xlink" xml:space="preserve" xmlns:serif="http://www.serif.com/" style="fill-rule:evenodd;clip-rule:evenodd;stroke-linejoin:round;stroke-miterlimit:2;"><rect id="Tavola-da-disegno8" serif:id="Tavola da disegno8" x="0" y="0" width="28.247" height="26.786" style="fill:none;"/><clipPath id="_clip1"><rect x="0" y="0" width="28.247" height="26.786"/></clipPath><g clip-path="url(#_clip1)"><g><g><g><g><path d="M9.858,12.675C14.32,12.675 17.943,14.637 17.943,17.054C17.943,19.47 16.6,25.009 9.858,24.79C2.979,24.566 1.774,19.47 1.774,17.054C1.774,14.637 5.396,12.675 9.858,12.675Z" style="fill:#752523;"/><path d="M1.764,17.576C2.754,16.767 2.468,17.662 3.533,18.793C4.195,19.496 6.87,20.661 5.615,20.903C4.36,21.145 1.994,21.795 1.362,21.074C0.724,20.349 0.578,18.546 1.764,17.576Z" style="fill:#581513;"/><path d="M13.785,13.484C12.566,13.871 14.132,13.775 15.012,15.056C15.558,15.852 17.188,17.87 17.691,16.695C18.194,15.519 19.251,15.024 18.682,14.253C18.108,13.476 15.261,13.017 13.785,13.484Z" style="fill:#581513;"/><ellipse cx="9.858" cy="16.268" rx="6.448" ry="2.895" style="fill:#e2c2ba;"/></g><path d="M10.532,13.376C10.375,13.984 10.281,15.226 10.532,15.938C10.919,17.035 13.205,17.565 13.694,16.011C14.317,14.031 13.508,11.768 14.911,9.968C15.395,9.347 17.097,6.742 17.633,5.88C18.523,4.451 19.239,2.304 18.275,2.892C17.439,3.402 17.305,4.615 16.341,5.943C15.542,7.044 13.76,9.724 12.849,10.351C11.018,11.614 10.616,13.052 10.532,13.376Z" style="fill:#581513;"/><path d="M12.123,11.732C12.123,11.732 13.072,11.118 13.466,12.404C13.761,13.366 13.784,16.373 13.13,16.603C12.477,16.834 11.006,16.586 10.78,15.425C10.551,14.249 11.605,11.915 12.123,11.732Z" style="fill:#3a6950;"/><path d="M9.444,13.372C11.162,13.292 9.787,13.97 12.206,14.134C13.007,14.188 13.705,14.001 14.214,14.134C15.889,14.571 16.092,15.422 16.092,16.268C16.092,17.812 13.3,19.066 9.861,19.066C6.422,19.066 3.63,17.812 3.63,16.268C3.63,14.723 4.717,13.593 9.444,13.372Z" style="fill:#3a6950;"/></g></g><g><path d="M25.354,12.303C25.001,11.613 23.276,11.161 22.337,11.161C21.398,11.161 19.674,11.613 19.321,12.303C17.474,15.917 15.978,24.829 15.978,24.829C15.978,27.615 18.828,27.126 22.337,27.126C25.847,27.126 28.696,27.615 28.696,24.829C28.696,24.829 27.201,15.917 25.354,12.303Z" style="fill:#f7f8f8;"/><path d="M20.908,14.189C20.937,13.609 20.846,13.219 20.678,13.202C20.51,13.185 20.298,13.544 20.143,14.111C19.329,17.077 17.712,24.429 17.712,24.429C17.34,26.741 17.916,26.387 18.545,26.451C19.173,26.515 19.618,26.973 19.991,24.661C19.991,24.661 20.756,17.222 20.908,14.189Z" style="fill:#e6e6e6;"/><path d="M22.429,14.119C22.349,13.543 22.186,13.168 22.016,13.171C21.847,13.173 21.705,13.554 21.657,14.133C21.408,17.162 21.186,24.623 21.186,24.623C21.251,26.954 21.754,26.536 22.388,26.525C23.022,26.513 23.548,26.914 23.483,24.583C23.483,24.583 22.846,17.136 22.429,14.119Z" style="fill:#e6e6e6;"/><path d="M24.911,14.092C24.756,13.524 24.594,13.16 24.502,13.171C24.411,13.182 24.408,13.565 24.495,14.141C24.952,17.155 26.289,24.562 26.289,24.562C26.78,26.87 26.971,26.432 27.313,26.391C27.655,26.351 28.019,26.723 27.528,24.416C27.528,24.416 25.728,17.064 24.911,14.092Z" style="fill:#e6e6e6;"/><path d="M25.725,9.333C25.725,9.128 25.558,8.962 25.354,8.962L19.321,8.962C19.116,8.962 18.95,9.128 18.95,9.333L18.95,13.291C18.95,13.496 19.116,13.662 19.321,13.662C21.069,14.622 23.032,14.796 25.354,13.662C25.558,13.662 25.725,13.496 25.725,13.291L25.725,9.333Z"/><path d="M25.725,9.135C25.725,9.039 25.647,8.962 25.551,8.962C23.171,7.775 21.036,7.815 19.123,8.962C19.028,8.962 18.95,9.039 18.95,9.135L18.95,10.987C18.95,11.083 19.028,11.161 19.123,11.161C21.196,12.83 23.339,12.837 25.551,11.161C25.647,11.161 25.725,11.083 25.725,10.987L25.725,9.135Z" style="fill:#2f2f2f;"/><circle cx="19.823" cy="9.651" r="0.41"/><circle cx="21.095" cy="9.241" r="0.41"/><circle cx="20.589" cy="10.54" r="0.41"/><circle cx="23.15" cy="10.949" r="0.41"/><circle cx="21.857" cy="10.13" r="0.41"/><circle cx="23.125" cy="9.764" r="0.41"/><circle cx="24.418" cy="10.54" r="0.41"/><circle cx="24.373" cy="9.433" r="0.41"/><circle cx="22.353" cy="6.326" r="0.41"/><path d="M21.237,7.343C21.352,7.148 21.604,7.083 21.799,7.198C21.994,7.313 22.058,7.565 21.943,7.759C21.828,7.954 21.577,8.019 21.382,7.904C21.187,7.789 21.122,7.537 21.237,7.343Z"/><path d="M23.012,3.189C23.045,3.413 22.89,3.621 22.667,3.654C22.443,3.687 22.234,3.533 22.201,3.309C22.168,3.085 22.323,2.876 22.546,2.843C22.77,2.81 22.979,2.965 23.012,3.189Z"/><circle cx="23.75" cy="7.35" r="0.41"/><path d="M22.401,4.635C22.435,4.859 22.28,5.068 22.056,5.101C21.832,5.134 21.624,4.979 21.59,4.755C21.557,4.532 21.712,4.323 21.936,4.29C22.16,4.257 22.368,4.411 22.401,4.635Z"/><path d="M20.578,5.792C20.788,5.877 20.889,6.116 20.803,6.326C20.718,6.535 20.479,6.636 20.269,6.551C20.06,6.466 19.959,6.227 20.044,6.017C20.129,5.807 20.369,5.706 20.578,5.792Z"/><circle cx="23.951" cy="5.55" r="0.41"/><path d="M23.537,4.67C23.57,4.894 23.415,5.103 23.191,5.136C22.967,5.169 22.759,5.014 22.726,4.791C22.693,4.567 22.847,4.358 23.071,4.325C23.295,4.292 23.504,4.447 23.537,4.67Z"/><path d="M20.925,4.095C21.135,4.181 21.235,4.42 21.15,4.63C21.065,4.839 20.826,4.94 20.616,4.855C20.406,4.77 20.306,4.53 20.391,4.321C20.476,4.111 20.715,4.01 20.925,4.095Z"/><circle cx="21.18" cy="2.779" r="0.41"/><path d="M22.816,0.779C22.849,1.003 22.694,1.211 22.47,1.245C22.247,1.278 22.038,1.123 22.005,0.899C21.972,0.675 22.126,0.467 22.35,0.434C22.574,0.4 22.783,0.555 22.816,0.779Z"/><path d="M23.502,6.465C23.515,6.555 23.453,6.638 23.364,6.651C23.275,6.664 23.191,6.603 23.178,6.513C23.165,6.424 23.227,6.341 23.316,6.328C23.405,6.314 23.488,6.376 23.502,6.465Z"/><path d="M23.046,5.652C23.059,5.741 22.997,5.824 22.908,5.837C22.819,5.851 22.735,5.789 22.722,5.7C22.709,5.61 22.771,5.527 22.86,5.514C22.949,5.501 23.032,5.562 23.046,5.652Z"/><path d="M21.955,5.634C21.968,5.723 21.906,5.806 21.817,5.82C21.728,5.833 21.644,5.771 21.631,5.682C21.618,5.592 21.68,5.509 21.769,5.496C21.858,5.483 21.941,5.545 21.955,5.634Z"/><circle cx="21.869" cy="11.359" r="0.41"/><circle cx="22.337" cy="8.9" r="0.41"/></g></g></g></svg>