<?xml version="1.0" encoding="UTF-8" standalone="no"?><!DOCTYPE svg PUBLIC "-//W3C//DTD SVG 1.1//EN" "http://www.w3.org/Graphics/SVG/1.1/DTD/svg11.dtd"><svg width="100%" height="100%" viewBox="0 0 29 27" version="1.1" xmlns="http://www.w3.org/2000/svg" xmlns:xlink="http://www.w3.org/1999/xlink" xml:space="preserve" xmlns:serif="http://www.serif.com/" style="fill-rule:evenodd;clip-rule:evenodd;stroke-linejoin:round;stroke-miterlimit:2;"><rect id="Tavola-da-disegno8" serif:id="Tavola da disegno8" x="0" y="0" width="28.247" height="26.786" style="fill:none;"/><clipPath id="_clip1"><rect x="0" y="0" width="28.247" height="26.786"/></clipPath><g clip-path="url(#_clip1)"><g><g><g><g><path d="M9.858,12.675c4.462,0 8.085,1.962 8.085,4.379c0,2.416 -1.343,7.955 -8.085,7.736c-6.879,-0.224 -8.084,-5.32 -8.084,-7.736c-0,-2.417 3.622,-4.379 8.084,-4.379Z" style="fill:#752523;"/><path d="M1.764,17.576c0.99,-0.809 0.704,0.086 1.769,1.217c0.662,0.703 3.337,1.868 2.082,2.11c-1.255,0.242 -3.621,0.892 -4.253,0.171c-0.638,-0.725 -0.784,-2.528 0.402,-3.498Z" style="fill:#581513;"/><path d="M13.785,13.484c-1.219,0.387 0.347,0.291 1.227,1.572c0.546,0.796 2.176,2.814 2.679,1.639c0.503,-1.176 1.56,-1.671 0.991,-2.442c-0.574,-0.777 -3.421,-1.236 -4.897,-0.769Z" style="fill:#581513;"/><ellipse cx="9.858" cy="16.268" rx="6.448" ry="2.895" style="fill:#e2c2ba;"/></g><path d="M10.532,13.376c-0.157,0.608 -0.251,1.85 0,2.562c0.387,1.097 2.673,1.627 3.162,0.073c0.623,-1.98 -0.186,-4.243 1.217,-6.043c0.484,-0.621 2.186,-3.226 2.722,-4.088c0.89,-1.429 1.606,-3.576 0.642,-2.988c-0.836,0.51 -0.97,1.723 -1.934,3.051c-0.799,1.101 -2.581,3.781 -3.492,4.408c-1.831,1.263 -2.233,2.701 -2.317,3.025Z" style="fill:#581513;"/><path d="M12.123,11.732c-0,0 0.949,-0.614 1.343,0.672c0.295,0.962 0.318,3.969 -0.336,4.199c-0.653,0.231 -2.124,-0.017 -2.35,-1.178c-0.229,-1.176 0.825,-3.51 1.343,-3.693Z" style="fill:#3a6950;"/><path d="M9.444,13.372c1.718,-0.08 0.343,0.598 2.762,0.762c0.801,0.054 1.499,-0.133 2.008,-0c1.675,0.437 1.878,1.288 1.878,2.134c-0,1.544 -2.792,2.798 -6.231,2.798c-3.439,-0 -6.231,-1.254 -6.231,-2.798c-0,-1.545 1.087,-2.675 5.814,-2.896Z" style="fill:#3a6950;"/></g></g><g><path d="M25.354,12.303c-0.353,-0.69 -2.078,-1.142 -3.017,-1.142c-0.939,-0 -2.663,0.452 -3.016,1.142c-1.847,3.614 -3.343,12.526 -3.343,12.526c0,2.786 2.85,2.297 6.359,2.297c3.51,0 6.359,0.489 6.359,-2.297c-0,0 -1.495,-8.912 -3.342,-12.526Z" style="fill:#f7f8f8;"/><path d="M20.908,14.189c0.029,-0.58 -0.062,-0.97 -0.23,-0.987c-0.168,-0.017 -0.38,0.342 -0.535,0.909c-0.814,2.966 -2.431,10.318 -2.431,10.318c-0.372,2.312 0.204,1.958 0.833,2.022c0.628,0.064 1.073,0.522 1.446,-1.79c-0,-0 0.765,-7.439 0.917,-10.472Z" style="fill:#e6e6e6;"/><path d="M22.429,14.119c-0.08,-0.576 -0.243,-0.951 -0.413,-0.948c-0.169,0.002 -0.311,0.383 -0.359,0.962c-0.249,3.029 -0.471,10.49 -0.471,10.49c0.065,2.331 0.568,1.913 1.202,1.902c0.634,-0.012 1.16,0.389 1.095,-1.942c-0,0 -0.637,-7.447 -1.054,-10.464Z" style="fill:#e6e6e6;"/><path d="M24.911,14.092c-0.155,-0.568 -0.317,-0.932 -0.409,-0.921c-0.091,0.011 -0.094,0.394 -0.007,0.97c0.457,3.014 1.794,10.421 1.794,10.421c0.491,2.308 0.682,1.87 1.024,1.829c0.342,-0.04 0.706,0.332 0.215,-1.975c0,-0 -1.8,-7.352 -2.617,-10.324Z" style="fill:#e6e6e6;"/><path d="M25.725,9.333c-0,-0.205 -0.167,-0.371 -0.371,-0.371l-6.033,-0c-0.205,-0 -0.371,0.166 -0.371,0.371l-0,3.958c-0,0.205 0.166,0.371 0.371,0.371c1.748,0.96 3.711,1.134 6.033,0c0.204,0 0.371,-0.166 0.371,-0.371l-0,-3.958Z"/><path d="M25.725,9.135c-0,-0.096 -0.078,-0.173 -0.174,-0.173c-2.38,-1.187 -4.515,-1.147 -6.428,-0c-0.095,-0 -0.173,0.077 -0.173,0.173l-0,1.852c-0,0.096 0.078,0.174 0.173,0.174c2.073,1.669 4.216,1.676 6.428,-0c0.096,-0 0.174,-0.078 0.174,-0.174l-0,-1.852Z" style="fill:#2f2f2f;"/><circle cx="19.823" cy="9.651" r="0.41"/><circle cx="21.095" cy="9.241" r="0.41"/><circle cx="20.589" cy="10.54" r="0.41"/><circle cx="23.15" cy="10.949" r="0.41"/><circle cx="21.857" cy="10.13" r="0.41"/><circle cx="23.125" cy="9.764" r="0.41"/><circle cx="24.418" cy="10.54" r="0.41"/><circle cx="24.373" cy="9.433" r="0.41"/><circle cx="22.353" cy="6.326" r="0.41"/><path d="M21.237,7.343c0.115,-0.195 0.367,-0.26 0.562,-0.145c0.195,0.115 0.259,0.367 0.144,0.561c-0.115,0.195 -0.366,0.26 -0.561,0.145c-0.195,-0.115 -0.26,-0.367 -0.145,-0.561Z"/><path d="M23.012,3.189c0.033,0.224 -0.122,0.432 -0.345,0.465c-0.224,0.033 -0.433,-0.121 -0.466,-0.345c-0.033,-0.224 0.122,-0.433 0.345,-0.466c0.224,-0.033 0.433,0.122 0.466,0.346Z"/><circle cx="23.75" cy="7.35" r="0.41"/><path d="M22.401,4.635c0.034,0.224 -0.121,0.433 -0.345,0.466c-0.224,0.033 -0.432,-0.122 -0.466,-0.346c-0.033,-0.223 0.122,-0.432 0.346,-0.465c0.224,-0.033 0.432,0.121 0.465,0.345Z"/><path d="M20.578,5.792c0.21,0.085 0.311,0.324 0.225,0.534c-0.085,0.209 -0.324,0.31 -0.534,0.225c-0.209,-0.085 -0.31,-0.324 -0.225,-0.534c0.085,-0.21 0.325,-0.311 0.534,-0.225Z"/><circle cx="23.951" cy="5.55" r="0.41"/><path d="M23.537,4.67c0.033,0.224 -0.122,0.433 -0.346,0.466c-0.224,0.033 -0.432,-0.122 -0.465,-0.345c-0.033,-0.224 0.121,-0.433 0.345,-0.466c0.224,-0.033 0.433,0.122 0.466,0.345Z"/><path d="M20.925,4.095c0.21,0.086 0.31,0.325 0.225,0.535c-0.085,0.209 -0.324,0.31 -0.534,0.225c-0.21,-0.085 -0.31,-0.325 -0.225,-0.534c0.085,-0.21 0.324,-0.311 0.534,-0.226Z"/><circle cx="21.18" cy="2.779" r="0.41"/><path d="M22.816,0.779c0.033,0.224 -0.122,0.432 -0.346,0.466c-0.223,0.033 -0.432,-0.122 -0.465,-0.346c-0.033,-0.224 0.121,-0.432 0.345,-0.465c0.224,-0.034 0.433,0.121 0.466,0.345Z"/><path d="M23.502,6.465c0.013,0.09 -0.049,0.173 -0.138,0.186c-0.089,0.013 -0.173,-0.048 -0.186,-0.138c-0.013,-0.089 0.049,-0.172 0.138,-0.185c0.089,-0.014 0.172,0.048 0.186,0.137Z"/><path d="M23.046,5.652c0.013,0.089 -0.049,0.172 -0.138,0.185c-0.089,0.014 -0.173,-0.048 -0.186,-0.137c-0.013,-0.09 0.049,-0.173 0.138,-0.186c0.089,-0.013 0.172,0.048 0.186,0.138Z"/><path d="M21.955,5.634c0.013,0.089 -0.049,0.172 -0.138,0.186c-0.089,0.013 -0.173,-0.049 -0.186,-0.138c-0.013,-0.09 0.049,-0.173 0.138,-0.186c0.089,-0.013 0.172,0.049 0.186,0.138Z"/><circle cx="21.869" cy="11.359" r="0.41"/><circle cx="22.337" cy="8.9" r="0.41"/></g></g></g></svg>