<?xml version="1.0" encoding="UTF-8" standalone="no"?>
<!DOCTYPE svg PUBLIC "-//W3C//DTD SVG 1.1//EN" "http://www.w3.org/Graphics/SVG/1.1/DTD/svg11.dtd">
<svg width="596px" height="468px" version="1.1" xmlns="http://www.w3.org/2000/svg" xmlns:xlink="http://www.w3.org/1999/xlink" xml:space="preserve" xmlns:serif="http://www.serif.com/" style="fill-rule:evenodd;clip-rule:evenodd;stroke-linecap:round;stroke-linejoin:round;stroke-miterlimit:1.5;">
    <g transform="matrix(1,0,0,1,-2004,-1538)">
        <g id="Artboard5" transform="matrix(1,0,0,1,-0.666329,-0.0696276)">
            <rect x="2004.67" y="1538.07" width="595.073" height="467.446" style="fill:none;"/>
            <clipPath id="_clip1">
                <rect x="2004.67" y="1538.07" width="595.073" height="467.446"/>
            </clipPath>
            <g clip-path="url(#_clip1)">
                <g transform="matrix(3.67633,0,0,3.67633,-21229.7,1275.5)">
                    <g>
                        <g transform="matrix(0.28669,0,0,0.28669,6298.8,6.64803)">
                            <circle cx="344.755" cy="447.755" r="221.755" style="fill:rgb(186,105,83);"/>
                        </g>
                        <g transform="matrix(0.277966,0,0,0.277966,6337.6,45.7311)">
                            <g>
                                <g transform="matrix(1,0,0,0.851791,27.455,-129.958)">
                                    <g transform="matrix(-1,-1.22465e-16,9.66166e-17,-0.788934,560.31,969.419)">
                                        <path d="M130,487.732C130,487.732 107.766,589.929 234,593C293.674,672.871 463.34,650.302 492,601C563.327,597.778 640.487,544.595 613,485C585.513,425.405 556.246,397.537 508,383.675C459.754,369.814 479.511,292.638 371,295C308.455,296.362 286.116,329.01 271,355.803C250.564,392.025 238.064,388.037 209,395C168.051,404.811 134.029,449.501 130,487.732Z" style="fill:rgb(214,199,168);"/>
                                    </g>
                                    <g transform="matrix(-0.255379,-0.29996,-0.11784,0.12069,436.424,654.056)">
                                        <path d="M214.086,582.813C216.022,497.318 247.196,389.784 279,470.274C262.476,519.704 237.762,551.034 214.086,582.813Z" style="fill:rgb(251,246,238);"/>
                                    </g>
                                    <g transform="matrix(0.502559,0.637421,0.0932788,-0.0884441,-92.5405,550.086)">
                                        <path d="M214.086,582.813C190.322,548.411 185.959,390.727 265.243,452.597C248.719,502.027 237.762,551.034 214.086,582.813Z" style="fill:rgb(251,246,238);"/>
                                    </g>
                                    <g transform="matrix(-1,-1.22465e-16,9.66166e-17,-0.788934,559.784,926.512)">
                                        <path d="M576.152,425.391C585.542,435.985 590.36,453.294 588.756,470.665C587.152,488.037 579.374,502.77 568.412,509.202C545.924,521.96 518.558,530.086 492,531.286C463.34,580.588 293.674,603.157 234,523.286C207.2,522.634 187.092,517.514 172.044,509.851C159.969,503.627 151.319,487.738 149.731,468.87C148.144,450.002 153.896,431.43 164.567,420.969C177.269,408.479 192.577,398.935 209,395C238.064,388.037 250.564,392.025 271,355.803C286.116,329.01 308.455,296.362 371,295C479.511,292.638 459.754,369.814 508,383.675C535.983,391.715 557.581,404.466 576.152,425.391Z" style="fill:rgb(251,246,238);"/>
                                        <path d="M576.152,425.391C585.542,435.985 590.36,453.294 588.756,470.665C587.152,488.037 579.374,502.77 568.412,509.202C545.924,521.96 518.558,530.086 492,531.286C463.34,580.588 293.674,603.157 234,523.286C207.2,522.634 187.092,517.514 172.044,509.851C159.969,503.627 151.319,487.738 149.731,468.87C148.144,450.002 153.896,431.43 164.567,420.969C177.269,408.479 192.577,398.935 209,395C238.064,388.037 250.564,392.025 271,355.803C286.116,329.01 308.455,296.362 371,295C479.511,292.638 459.754,369.814 508,383.675C535.983,391.715 557.581,404.466 576.152,425.391ZM574.363,428.903C582.9,438.535 587.281,454.272 585.823,470.066C584.365,485.852 577.299,499.242 567.34,505.094C545.14,517.685 518.125,525.697 491.91,526.881C491.082,526.919 490.302,527.471 489.76,528.403C485.412,535.883 477.592,542.59 467.373,548.478C451.405,557.679 429.696,564.642 405.68,568.389C369.532,574.027 328.167,572.364 293.194,559.853C270.2,551.628 249.98,538.747 235.98,520.01C235.449,519.298 234.763,518.897 234.048,518.88C207.647,518.238 187.834,513.233 173.008,505.685C162.002,500.008 154.117,485.523 152.67,468.323C151.223,451.12 156.467,434.187 166.196,424.649C166.197,424.648 166.199,424.647 166.2,424.645C178.569,412.482 193.477,403.182 209.471,399.35C239.421,392.175 252.209,395.963 273.268,358.636C288.039,332.453 309.922,300.737 371.043,299.406C434.637,298.021 453.19,324.331 467.986,348.744C478.5,366.092 487.346,382.229 507.439,388.002C534.911,395.895 556.131,408.36 574.363,428.903L574.363,428.903Z" style="fill:rgb(84,73,46);"/>
                                    </g>
                                </g>
                                <g transform="matrix(1.14861e-16,-1.87583,1.87583,1.14861e-16,-512.516,5243.85)">
                                    <g transform="matrix(6.12323e-17,1,-1,6.12323e-17,3551,-2349)">
                                        <circle cx="2690" cy="964" r="56" style="fill:rgb(117,37,35);"/>
                                        <path d="M2690,908C2720.91,908 2746,933.093 2746,964C2746,994.907 2720.91,1020 2690,1020C2659.09,1020 2634,994.907 2634,964C2634,933.093 2659.09,908 2690,908ZM2690,910.034C2719.78,910.034 2743.97,934.215 2743.97,964C2743.97,993.785 2719.78,1017.97 2690,1017.97C2660.22,1017.97 2636.03,993.785 2636.03,964C2636.03,934.215 2660.22,910.034 2690,910.034Z" style="fill:rgb(212,147,146);"/>
                                    </g>
                                    <g transform="matrix(6.12323e-17,1,-1,6.12323e-17,3539.14,-2340)">
                                        <path d="M2669,971C2675.62,971 2681,969.377 2681,976C2681,982.623 2676.62,986 2670,986C2663.38,986 2657,982.623 2657,976C2657,969.377 2662.38,971 2669,971Z" style="fill:rgb(212,147,146);"/>
                                    </g>
                                    <g transform="matrix(-1.25,1.53081e-16,-1.22465e-16,-1,5927.25,1285.81)">
                                        <path d="M2669,971C2675.62,971 2681,969.377 2681,976C2681,982.623 2676.62,986 2670,986C2663.38,986 2657,982.623 2657,976C2657,969.377 2662.38,971 2669,971Z" style="fill:rgb(212,147,146);"/>
                                    </g>
                                    <g transform="matrix(4.33729e-17,0.708333,-0.708333,4.33729e-17,3280.84,-1534.87)">
                                        <path d="M2669,964C2675.62,964 2681,969.377 2681,976C2681,982.623 2675.62,988 2669,988C2662.38,988 2661.24,982.623 2661.24,976C2661.24,969.377 2662.38,964 2669,964Z" style="fill:rgb(212,147,146);"/>
                                    </g>
                                    <g transform="matrix(-0.0853327,0.787054,-0.704206,-0.0763503,3538.54,-1675.95)">
                                        <path d="M2669,964C2675.62,964 2681,969.377 2681,976C2681,982.623 2674.36,982.353 2667.74,982.353C2661.11,982.353 2657,982.623 2657,976C2657,969.377 2662.38,964 2669,964Z" style="fill:rgb(212,147,146);"/>
                                    </g>
                                    <g transform="matrix(0.475688,-0.250607,0.250607,0.475688,1052.93,584.285)">
                                        <path d="M2665.07,968.234C2671.69,968.234 2681,969.377 2681,976C2681,982.623 2675.62,988 2669,988C2662.38,988 2657,982.623 2657,976C2657,969.377 2658.44,968.234 2665.07,968.234Z" style="fill:rgb(212,147,146);"/>
                                    </g>
                                    <g transform="matrix(2.29621e-17,0.375,-0.375,2.29621e-17,2919.64,-650.605)">
                                        <path d="M2669,964C2675.62,964 2675.67,969.377 2675.67,976C2675.67,982.623 2675.62,988 2669,988C2662.38,988 2657,982.623 2657,976C2657,969.377 2662.38,964 2669,964Z" style="fill:rgb(212,147,146);"/>
                                    </g>
                                    <g transform="matrix(2.29621e-17,0.375,-0.375,2.29621e-17,2990.3,-663.653)">
                                        <path d="M2669,964C2675.62,964 2675.67,969.377 2675.67,976C2675.67,982.623 2675.62,988 2669,988C2662.38,988 2657,982.623 2657,976C2657,969.377 2662.38,964 2669,964Z" style="fill:rgb(212,147,146);"/>
                                    </g>
                                    <g transform="matrix(0.35039,0.13361,-0.13361,0.35039,1745.4,-373.768)">
                                        <path d="M2669,964C2675.62,964 2675.67,969.377 2675.67,976C2675.67,982.623 2675.62,988 2669,988C2662.38,988 2657,982.623 2657,976C2657,969.377 2662.38,964 2669,964Z" style="fill:rgb(212,147,146);"/>
                                    </g>
                                    <g transform="matrix(1.22648e-17,0.200299,-0.209488,1.28275e-17,2815.05,-174.072)">
                                        <circle cx="2669" cy="976" r="12" style="fill:rgb(212,147,146);"/>
                                    </g>
                                    <g transform="matrix(1.02054e-17,0.166667,-0.166667,1.02054e-17,2745.01,-113.443)">
                                        <circle cx="2669" cy="976" r="12" style="fill:rgb(212,147,146);"/>
                                    </g>
                                    <g transform="matrix(1.22648e-17,0.200299,-0.209488,1.28275e-17,2810.28,-180.415)">
                                        <circle cx="2669" cy="976" r="12" style="fill:rgb(212,147,146);"/>
                                    </g>
                                    <g transform="matrix(1.02054e-17,0.166667,-0.166667,1.02054e-17,2741.21,-118.72)">
                                        <circle cx="2669" cy="976" r="12" style="fill:rgb(212,147,146);"/>
                                    </g>
                                    <g transform="matrix(1.22648e-17,0.200299,-0.209488,1.28275e-17,2807.71,-173.311)">
                                        <circle cx="2669" cy="976" r="12" style="fill:rgb(212,147,146);"/>
                                    </g>
                                    <g transform="matrix(1.02054e-17,0.166667,-0.166667,1.02054e-17,2739.17,-112.809)">
                                        <circle cx="2669" cy="976" r="12" style="fill:rgb(212,147,146);"/>
                                    </g>
                                    <g transform="matrix(0.243128,-0.128087,0.154232,0.292755,1779.96,433.846)">
                                        <path d="M2669,964C2675.62,964 2672.87,969.234 2672.87,975.857C2672.87,982.48 2675.62,988 2669,988C2662.38,988 2657,982.623 2657,976C2657,969.377 2662.38,964 2669,964Z" style="fill:rgb(212,147,146);"/>
                                    </g>
                                </g>
                                <g transform="matrix(9.39913e-17,-1.53499,1.53499,9.39913e-17,-291.246,4362.12)">
                                    <g transform="matrix(6.12323e-17,1,-1,6.12323e-17,3551,-2349)">
                                        <circle cx="2690" cy="964" r="56" style="fill:rgb(117,37,35);"/>
                                        <path d="M2690,908C2720.91,908 2746,933.093 2746,964C2746,994.907 2720.91,1020 2690,1020C2659.09,1020 2634,994.907 2634,964C2634,933.093 2659.09,908 2690,908ZM2690,910.486C2719.53,910.486 2743.51,934.465 2743.51,964C2743.51,993.535 2719.53,1017.51 2690,1017.51C2660.47,1017.51 2636.49,993.535 2636.49,964C2636.49,934.465 2660.47,910.486 2690,910.486Z" style="fill:rgb(212,147,146);"/>
                                    </g>
                                    <g transform="matrix(6.12323e-17,1,-1,6.12323e-17,3539.14,-2340)">
                                        <path d="M2669,971C2675.62,971 2681,969.377 2681,976C2681,982.623 2676.62,986 2670,986C2663.38,986 2657,982.623 2657,976C2657,969.377 2662.38,971 2669,971Z" style="fill:rgb(212,147,146);"/>
                                    </g>
                                    <g transform="matrix(-1.25,1.53081e-16,-1.22465e-16,-1,5927.25,1285.81)">
                                        <path d="M2669,971C2675.62,971 2681,969.377 2681,976C2681,982.623 2676.62,986 2670,986C2663.38,986 2657,982.623 2657,976C2657,969.377 2662.38,971 2669,971Z" style="fill:rgb(212,147,146);"/>
                                    </g>
                                    <g transform="matrix(4.33729e-17,0.708333,-0.708333,4.33729e-17,3280.84,-1534.87)">
                                        <path d="M2669,964C2675.62,964 2681,969.377 2681,976C2681,982.623 2675.62,988 2669,988C2662.38,988 2661.24,982.623 2661.24,976C2661.24,969.377 2662.38,964 2669,964Z" style="fill:rgb(212,147,146);"/>
                                    </g>
                                    <g transform="matrix(-0.0853327,0.787054,-0.704206,-0.0763503,3538.54,-1675.95)">
                                        <path d="M2669,964C2675.62,964 2681,969.377 2681,976C2681,982.623 2674.36,982.353 2667.74,982.353C2661.11,982.353 2657,982.623 2657,976C2657,969.377 2662.38,964 2669,964Z" style="fill:rgb(212,147,146);"/>
                                    </g>
                                    <g transform="matrix(0.475688,-0.250607,0.250607,0.475688,1052.93,584.285)">
                                        <path d="M2665.07,968.234C2671.69,968.234 2681,969.377 2681,976C2681,982.623 2675.62,988 2669,988C2662.38,988 2657,982.623 2657,976C2657,969.377 2658.44,968.234 2665.07,968.234Z" style="fill:rgb(212,147,146);"/>
                                    </g>
                                    <g transform="matrix(2.29621e-17,0.375,-0.375,2.29621e-17,2919.64,-650.605)">
                                        <path d="M2669,964C2675.62,964 2675.67,969.377 2675.67,976C2675.67,982.623 2675.62,988 2669,988C2662.38,988 2657,982.623 2657,976C2657,969.377 2662.38,964 2669,964Z" style="fill:rgb(212,147,146);"/>
                                    </g>
                                    <g transform="matrix(2.29621e-17,0.375,-0.375,2.29621e-17,2990.3,-663.653)">
                                        <path d="M2669,964C2675.62,964 2675.67,969.377 2675.67,976C2675.67,982.623 2675.62,988 2669,988C2662.38,988 2657,982.623 2657,976C2657,969.377 2662.38,964 2669,964Z" style="fill:rgb(212,147,146);"/>
                                    </g>
                                    <g transform="matrix(0.35039,0.13361,-0.13361,0.35039,1745.4,-373.768)">
                                        <path d="M2669,964C2675.62,964 2675.67,969.377 2675.67,976C2675.67,982.623 2675.62,988 2669,988C2662.38,988 2657,982.623 2657,976C2657,969.377 2662.38,964 2669,964Z" style="fill:rgb(212,147,146);"/>
                                    </g>
                                    <g transform="matrix(1.22648e-17,0.200299,-0.209488,1.28275e-17,2815.05,-174.072)">
                                        <circle cx="2669" cy="976" r="12" style="fill:rgb(212,147,146);"/>
                                    </g>
                                    <g transform="matrix(1.02054e-17,0.166667,-0.166667,1.02054e-17,2745.01,-113.443)">
                                        <circle cx="2669" cy="976" r="12" style="fill:rgb(212,147,146);"/>
                                    </g>
                                    <g transform="matrix(1.22648e-17,0.200299,-0.209488,1.28275e-17,2810.28,-180.415)">
                                        <circle cx="2669" cy="976" r="12" style="fill:rgb(212,147,146);"/>
                                    </g>
                                    <g transform="matrix(1.02054e-17,0.166667,-0.166667,1.02054e-17,2741.21,-118.72)">
                                        <circle cx="2669" cy="976" r="12" style="fill:rgb(212,147,146);"/>
                                    </g>
                                    <g transform="matrix(1.22648e-17,0.200299,-0.209488,1.28275e-17,2807.71,-173.311)">
                                        <circle cx="2669" cy="976" r="12" style="fill:rgb(212,147,146);"/>
                                    </g>
                                    <g transform="matrix(1.02054e-17,0.166667,-0.166667,1.02054e-17,2739.17,-112.809)">
                                        <circle cx="2669" cy="976" r="12" style="fill:rgb(212,147,146);"/>
                                    </g>
                                    <g transform="matrix(0.243128,-0.128087,0.154232,0.292755,1779.96,433.846)">
                                        <path d="M2669,964C2675.62,964 2672.87,969.234 2672.87,975.857C2672.87,982.48 2675.62,988 2669,988C2662.38,988 2657,982.623 2657,976C2657,969.377 2662.38,964 2669,964Z" style="fill:rgb(212,147,146);"/>
                                    </g>
                                </g>
                                <g transform="matrix(9.39913e-17,-1.53499,1.53499,9.39913e-17,-207.777,4318.24)">
                                    <g transform="matrix(6.12323e-17,1,-1,6.12323e-17,3551,-2349)">
                                        <circle cx="2690" cy="964" r="56" style="fill:rgb(117,37,35);"/>
                                        <path d="M2690,908C2720.91,908 2746,933.093 2746,964C2746,994.907 2720.91,1020 2690,1020C2659.09,1020 2634,994.907 2634,964C2634,933.093 2659.09,908 2690,908ZM2690,910.486C2719.53,910.486 2743.51,934.465 2743.51,964C2743.51,993.535 2719.53,1017.51 2690,1017.51C2660.47,1017.51 2636.49,993.535 2636.49,964C2636.49,934.465 2660.47,910.486 2690,910.486Z" style="fill:rgb(212,147,146);"/>
                                    </g>
                                    <g transform="matrix(6.12323e-17,1,-1,6.12323e-17,3539.14,-2340)">
                                        <path d="M2669,971C2675.62,971 2681,969.377 2681,976C2681,982.623 2676.62,986 2670,986C2663.38,986 2657,982.623 2657,976C2657,969.377 2662.38,971 2669,971Z" style="fill:rgb(212,147,146);"/>
                                    </g>
                                    <g transform="matrix(-1.25,1.53081e-16,-1.22465e-16,-1,5927.25,1285.81)">
                                        <path d="M2669,971C2675.62,971 2681,969.377 2681,976C2681,982.623 2676.62,986 2670,986C2663.38,986 2657,982.623 2657,976C2657,969.377 2662.38,971 2669,971Z" style="fill:rgb(212,147,146);"/>
                                    </g>
                                    <g transform="matrix(4.33729e-17,0.708333,-0.708333,4.33729e-17,3280.84,-1534.87)">
                                        <path d="M2669,964C2675.62,964 2681,969.377 2681,976C2681,982.623 2675.62,988 2669,988C2662.38,988 2661.24,982.623 2661.24,976C2661.24,969.377 2662.38,964 2669,964Z" style="fill:rgb(212,147,146);"/>
                                    </g>
                                    <g transform="matrix(-0.0853327,0.787054,-0.704206,-0.0763503,3538.54,-1675.95)">
                                        <path d="M2669,964C2675.62,964 2681,969.377 2681,976C2681,982.623 2674.36,982.353 2667.74,982.353C2661.11,982.353 2657,982.623 2657,976C2657,969.377 2662.38,964 2669,964Z" style="fill:rgb(212,147,146);"/>
                                    </g>
                                    <g transform="matrix(0.475688,-0.250607,0.250607,0.475688,1052.93,584.285)">
                                        <path d="M2665.07,968.234C2671.69,968.234 2681,969.377 2681,976C2681,982.623 2675.62,988 2669,988C2662.38,988 2657,982.623 2657,976C2657,969.377 2658.44,968.234 2665.07,968.234Z" style="fill:rgb(212,147,146);"/>
                                    </g>
                                    <g transform="matrix(2.29621e-17,0.375,-0.375,2.29621e-17,2919.64,-650.605)">
                                        <path d="M2669,964C2675.62,964 2675.67,969.377 2675.67,976C2675.67,982.623 2675.62,988 2669,988C2662.38,988 2657,982.623 2657,976C2657,969.377 2662.38,964 2669,964Z" style="fill:rgb(212,147,146);"/>
                                    </g>
                                    <g transform="matrix(2.29621e-17,0.375,-0.375,2.29621e-17,2990.3,-663.653)">
                                        <path d="M2669,964C2675.62,964 2675.67,969.377 2675.67,976C2675.67,982.623 2675.62,988 2669,988C2662.38,988 2657,982.623 2657,976C2657,969.377 2662.38,964 2669,964Z" style="fill:rgb(212,147,146);"/>
                                    </g>
                                    <g transform="matrix(0.35039,0.13361,-0.13361,0.35039,1745.4,-373.768)">
                                        <path d="M2669,964C2675.62,964 2675.67,969.377 2675.67,976C2675.67,982.623 2675.62,988 2669,988C2662.38,988 2657,982.623 2657,976C2657,969.377 2662.38,964 2669,964Z" style="fill:rgb(212,147,146);"/>
                                    </g>
                                    <g transform="matrix(1.22648e-17,0.200299,-0.209488,1.28275e-17,2815.05,-174.072)">
                                        <circle cx="2669" cy="976" r="12" style="fill:rgb(212,147,146);"/>
                                    </g>
                                    <g transform="matrix(1.02054e-17,0.166667,-0.166667,1.02054e-17,2745.01,-113.443)">
                                        <circle cx="2669" cy="976" r="12" style="fill:rgb(212,147,146);"/>
                                    </g>
                                    <g transform="matrix(1.22648e-17,0.200299,-0.209488,1.28275e-17,2810.28,-180.415)">
                                        <circle cx="2669" cy="976" r="12" style="fill:rgb(212,147,146);"/>
                                    </g>
                                    <g transform="matrix(1.02054e-17,0.166667,-0.166667,1.02054e-17,2741.21,-118.72)">
                                        <circle cx="2669" cy="976" r="12" style="fill:rgb(212,147,146);"/>
                                    </g>
                                    <g transform="matrix(1.22648e-17,0.200299,-0.209488,1.28275e-17,2807.71,-173.311)">
                                        <circle cx="2669" cy="976" r="12" style="fill:rgb(212,147,146);"/>
                                    </g>
                                    <g transform="matrix(1.02054e-17,0.166667,-0.166667,1.02054e-17,2739.17,-112.809)">
                                        <circle cx="2669" cy="976" r="12" style="fill:rgb(212,147,146);"/>
                                    </g>
                                    <g transform="matrix(0.243128,-0.128087,0.154232,0.292755,1779.96,433.846)">
                                        <path d="M2669,964C2675.62,964 2672.87,969.234 2672.87,975.857C2672.87,982.48 2675.62,988 2669,988C2662.38,988 2657,982.623 2657,976C2657,969.377 2662.38,964 2669,964Z" style="fill:rgb(212,147,146);"/>
                                    </g>
                                </g>
                                <g transform="matrix(6.81321e-17,-1.11268,1.11268,6.81321e-17,-365.139,3226.86)">
                                    <g transform="matrix(6.12323e-17,1,-1,6.12323e-17,3551,-2349)">
                                        <circle cx="2690" cy="964" r="56" style="fill:rgb(117,37,35);"/>
                                        <path d="M2690,908C2720.91,908 2746,933.093 2746,964C2746,994.907 2720.91,1020 2690,1020C2659.09,1020 2634,994.907 2634,964C2634,933.093 2659.09,908 2690,908ZM2690,911.429C2719.01,911.429 2742.57,934.985 2742.57,964C2742.57,993.015 2719.01,1016.57 2690,1016.57C2660.99,1016.57 2637.43,993.015 2637.43,964C2637.43,934.985 2660.99,911.429 2690,911.429Z" style="fill:rgb(212,147,146);"/>
                                    </g>
                                    <g transform="matrix(6.12323e-17,1,-1,6.12323e-17,3539.14,-2340)">
                                        <path d="M2669,971C2675.62,971 2681,969.377 2681,976C2681,982.623 2676.62,986 2670,986C2663.38,986 2657,982.623 2657,976C2657,969.377 2662.38,971 2669,971Z" style="fill:rgb(212,147,146);"/>
                                    </g>
                                    <g transform="matrix(-1.25,1.53081e-16,-1.22465e-16,-1,5927.25,1285.81)">
                                        <path d="M2669,971C2675.62,971 2681,969.377 2681,976C2681,982.623 2676.62,986 2670,986C2663.38,986 2657,982.623 2657,976C2657,969.377 2662.38,971 2669,971Z" style="fill:rgb(212,147,146);"/>
                                    </g>
                                    <g transform="matrix(4.33729e-17,0.708333,-0.708333,4.33729e-17,3280.84,-1534.87)">
                                        <path d="M2669,964C2675.62,964 2681,969.377 2681,976C2681,982.623 2675.62,988 2669,988C2662.38,988 2661.24,982.623 2661.24,976C2661.24,969.377 2662.38,964 2669,964Z" style="fill:rgb(212,147,146);"/>
                                    </g>
                                    <g transform="matrix(-0.0853327,0.787054,-0.704206,-0.0763503,3538.54,-1675.95)">
                                        <path d="M2669,964C2675.62,964 2681,969.377 2681,976C2681,982.623 2674.36,982.353 2667.74,982.353C2661.11,982.353 2657,982.623 2657,976C2657,969.377 2662.38,964 2669,964Z" style="fill:rgb(212,147,146);"/>
                                    </g>
                                    <g transform="matrix(0.475688,-0.250607,0.250607,0.475688,1052.93,584.285)">
                                        <path d="M2665.07,968.234C2671.69,968.234 2681,969.377 2681,976C2681,982.623 2675.62,988 2669,988C2662.38,988 2657,982.623 2657,976C2657,969.377 2658.44,968.234 2665.07,968.234Z" style="fill:rgb(212,147,146);"/>
                                    </g>
                                    <g transform="matrix(2.29621e-17,0.375,-0.375,2.29621e-17,2919.64,-650.605)">
                                        <path d="M2669,964C2675.62,964 2675.67,969.377 2675.67,976C2675.67,982.623 2675.62,988 2669,988C2662.38,988 2657,982.623 2657,976C2657,969.377 2662.38,964 2669,964Z" style="fill:rgb(212,147,146);"/>
                                    </g>
                                    <g transform="matrix(2.29621e-17,0.375,-0.375,2.29621e-17,2990.3,-663.653)">
                                        <path d="M2669,964C2675.62,964 2675.67,969.377 2675.67,976C2675.67,982.623 2675.62,988 2669,988C2662.38,988 2657,982.623 2657,976C2657,969.377 2662.38,964 2669,964Z" style="fill:rgb(212,147,146);"/>
                                    </g>
                                    <g transform="matrix(0.35039,0.13361,-0.13361,0.35039,1745.4,-373.768)">
                                        <path d="M2669,964C2675.62,964 2675.67,969.377 2675.67,976C2675.67,982.623 2675.62,988 2669,988C2662.38,988 2657,982.623 2657,976C2657,969.377 2662.38,964 2669,964Z" style="fill:rgb(212,147,146);"/>
                                    </g>
                                    <g transform="matrix(1.22648e-17,0.200299,-0.209488,1.28275e-17,2815.05,-174.072)">
                                        <circle cx="2669" cy="976" r="12" style="fill:rgb(212,147,146);"/>
                                    </g>
                                    <g transform="matrix(1.02054e-17,0.166667,-0.166667,1.02054e-17,2745.01,-113.443)">
                                        <circle cx="2669" cy="976" r="12" style="fill:rgb(212,147,146);"/>
                                    </g>
                                    <g transform="matrix(1.22648e-17,0.200299,-0.209488,1.28275e-17,2810.28,-180.415)">
                                        <circle cx="2669" cy="976" r="12" style="fill:rgb(212,147,146);"/>
                                    </g>
                                    <g transform="matrix(1.02054e-17,0.166667,-0.166667,1.02054e-17,2741.21,-118.72)">
                                        <circle cx="2669" cy="976" r="12" style="fill:rgb(212,147,146);"/>
                                    </g>
                                    <g transform="matrix(1.22648e-17,0.200299,-0.209488,1.28275e-17,2807.71,-173.311)">
                                        <circle cx="2669" cy="976" r="12" style="fill:rgb(212,147,146);"/>
                                    </g>
                                    <g transform="matrix(1.02054e-17,0.166667,-0.166667,1.02054e-17,2739.17,-112.809)">
                                        <circle cx="2669" cy="976" r="12" style="fill:rgb(212,147,146);"/>
                                    </g>
                                    <g transform="matrix(0.243128,-0.128087,0.154232,0.292755,1779.96,433.846)">
                                        <path d="M2669,964C2675.62,964 2672.87,969.234 2672.87,975.857C2672.87,982.48 2675.62,988 2669,988C2662.38,988 2657,982.623 2657,976C2657,969.377 2662.38,964 2669,964Z" style="fill:rgb(212,147,146);"/>
                                    </g>
                                </g>
                                <g transform="matrix(0.233774,-0.972291,-0.972291,-0.233774,204.418,2875.76)">
                                    <g transform="matrix(8.08412e-18,1.02018,-1.03859,3.47127e-17,3572.7,-2421.27)">
                                        <path d="M2673.28,980.659C2673.21,979.733 2673.54,978.823 2674.21,978.159C2674.87,977.495 2675.79,977.142 2676.73,977.191C2702.16,978.491 2849,986 2849,986L2887,1069C2887,1069 2731.45,1100.26 2692.01,1108.19C2689.73,1108.65 2687.36,1108.12 2685.51,1106.74C2683.66,1105.37 2682.49,1103.27 2682.32,1100.99C2680.34,1074.62 2674.6,998.281 2673.28,980.659Z" style="fill:rgb(172,139,88);"/>
                                    </g>
                                    <g transform="matrix(8.80685e-17,1,-0.984985,6.12323e-17,3534.14,-2349)">
                                        <path d="M2655.18,994.627C2655.05,993.709 2655.32,992.781 2655.91,992.074C2656.5,991.367 2657.36,990.949 2658.27,990.926C2682.64,990.296 2823.62,986.655 2846.01,986.077C2847.75,986.032 2849.3,987.229 2849.72,988.953C2853.7,1005.4 2873,1085 2873,1085C2873,1085 2728.95,1112.37 2685.35,1120.65C2682.13,1121.27 2678.8,1120.51 2676.13,1118.57C2673.47,1116.63 2671.7,1113.66 2671.25,1110.37C2667.22,1081.38 2657.5,1011.31 2655.18,994.627Z" style="fill:rgb(229,204,166);"/>
                                        <path d="M2655.18,994.627C2655.05,993.709 2655.32,992.781 2655.91,992.074C2656.5,991.367 2657.36,990.949 2658.27,990.926C2682.64,990.296 2823.62,986.655 2846.01,986.077C2847.75,986.032 2849.3,987.229 2849.72,988.953C2853.7,1005.4 2873,1085 2873,1085C2873,1085 2728.95,1112.37 2685.35,1120.65C2682.13,1121.27 2678.8,1120.51 2676.13,1118.57C2673.47,1116.63 2671.7,1113.66 2671.25,1110.37C2667.22,1081.38 2657.5,1011.31 2655.18,994.627ZM2656.15,994.487L2672.22,1110.23C2672.64,1113.25 2674.26,1115.98 2676.71,1117.76C2679.15,1119.54 2682.21,1120.24 2685.17,1119.67C2685.17,1119.67 2871.8,1084.21 2871.8,1084.21C2871.8,1084.21 2848.76,989.191 2848.76,989.191C2848.45,987.922 2847.32,987.041 2846.03,987.075C2846.03,987.075 2658.29,991.923 2658.29,991.923C2657.66,991.939 2657.07,992.229 2656.66,992.718C2656.25,993.208 2656.07,993.852 2656.15,994.487Z" style="fill:rgb(247,235,216);"/>
                                    </g>
                                    <g transform="matrix(6.12323e-17,1,-1,6.12323e-17,3551,-2349)">
                                        <circle cx="2840" cy="1062" r="10" style="fill:rgb(172,139,88);"/>
                                    </g>
                                    <g transform="matrix(-0.309134,-0.587008,0.520907,-0.274323,2800.96,2340.94)">
                                        <circle cx="2840" cy="1062" r="10" style="fill:rgb(172,139,88);"/>
                                    </g>
                                    <g transform="matrix(-0.929567,-0.427043,0.435018,-0.946925,4639.03,2561.57)">
                                        <circle cx="2840" cy="1062" r="10" style="fill:rgb(172,139,88);"/>
                                    </g>
                                    <g transform="matrix(2.94875e-17,0.481568,-0.481568,2.94875e-17,3007.93,-894.488)">
                                        <circle cx="2840" cy="1062" r="10" style="fill:rgb(172,139,88);"/>
                                    </g>
                                    <g transform="matrix(-0.148869,-0.282684,0.250852,-0.132105,2634.21,1338.15)">
                                        <circle cx="2840" cy="1062" r="10" style="fill:rgb(172,139,88);"/>
                                    </g>
                                    <g transform="matrix(-0.44765,-0.20565,0.209491,-0.456009,3523.22,1426.18)">
                                        <circle cx="2840" cy="1062" r="10" style="fill:rgb(172,139,88);"/>
                                    </g>
                                    <g transform="matrix(2.94875e-17,0.481568,-0.481568,2.94875e-17,3044.28,-1024.67)">
                                        <circle cx="2840" cy="1062" r="10" style="fill:rgb(172,139,88);"/>
                                    </g>
                                    <g transform="matrix(2.94875e-17,0.481568,-0.481568,2.94875e-17,3028.43,-1020.63)">
                                        <circle cx="2840" cy="1062" r="10" style="fill:rgb(172,139,88);"/>
                                    </g>
                                    <g transform="matrix(2.94875e-17,0.481568,-0.481568,2.94875e-17,3012.27,-935.706)">
                                        <circle cx="2840" cy="1062" r="10" style="fill:rgb(172,139,88);"/>
                                    </g>
                                    <g transform="matrix(1.41794e-17,0.231568,-0.231568,1.41794e-17,2754.78,-220.891)">
                                        <circle cx="2840" cy="1062" r="10" style="fill:rgb(172,139,88);"/>
                                    </g>
                                </g>
                                <g transform="matrix(0.504319,-0.863517,-0.863517,-0.504319,-596.565,2748.19)">
                                    <g transform="matrix(8.08412e-18,1.02018,-1.03859,3.47127e-17,3572.7,-2421.27)">
                                        <path d="M2673.28,980.659C2673.21,979.733 2673.54,978.823 2674.21,978.159C2674.87,977.495 2675.79,977.142 2676.73,977.191C2702.16,978.491 2849,986 2849,986L2887,1069C2887,1069 2731.45,1100.26 2692.01,1108.19C2689.73,1108.65 2687.36,1108.12 2685.51,1106.74C2683.66,1105.37 2682.49,1103.27 2682.32,1100.99C2680.34,1074.62 2674.6,998.281 2673.28,980.659Z" style="fill:rgb(172,139,88);"/>
                                    </g>
                                    <g transform="matrix(8.80685e-17,1,-0.984985,6.12323e-17,3534.14,-2349)">
                                        <path d="M2655.18,994.627C2655.05,993.709 2655.32,992.781 2655.91,992.074C2656.5,991.367 2657.36,990.949 2658.27,990.926C2682.64,990.296 2823.62,986.655 2846.01,986.077C2847.75,986.032 2849.3,987.229 2849.72,988.953C2853.7,1005.4 2873,1085 2873,1085C2873,1085 2728.95,1112.37 2685.35,1120.65C2682.13,1121.27 2678.8,1120.51 2676.13,1118.57C2673.47,1116.63 2671.7,1113.66 2671.25,1110.37C2667.22,1081.38 2657.5,1011.31 2655.18,994.627Z" style="fill:rgb(229,204,166);"/>
                                        <path d="M2655.18,994.627C2655.05,993.709 2655.32,992.781 2655.91,992.074C2656.5,991.367 2657.36,990.949 2658.27,990.926C2682.64,990.296 2823.62,986.655 2846.01,986.077C2847.75,986.032 2849.3,987.229 2849.72,988.953C2853.7,1005.4 2873,1085 2873,1085C2873,1085 2728.95,1112.37 2685.35,1120.65C2682.13,1121.27 2678.8,1120.51 2676.13,1118.57C2673.47,1116.63 2671.7,1113.66 2671.25,1110.37C2667.22,1081.38 2657.5,1011.31 2655.18,994.627ZM2656.15,994.487L2672.22,1110.23C2672.64,1113.25 2674.26,1115.98 2676.71,1117.76C2679.15,1119.54 2682.21,1120.24 2685.17,1119.67C2726.62,1111.8 2858.86,1086.67 2871.8,1084.21C2871.8,1084.21 2848.76,989.191 2848.76,989.191C2848.45,987.922 2847.32,987.041 2846.03,987.075C2823.65,987.653 2682.67,991.293 2658.29,991.923C2657.66,991.939 2657.07,992.229 2656.66,992.718C2656.25,993.208 2656.07,993.852 2656.15,994.487Z" style="fill:rgb(247,235,216);"/>
                                    </g>
                                    <g transform="matrix(6.12323e-17,1,-1,6.12323e-17,3551,-2349)">
                                        <circle cx="2840" cy="1062" r="10" style="fill:rgb(172,139,88);"/>
                                    </g>
                                    <g transform="matrix(-0.309134,-0.587008,0.520907,-0.274323,2800.96,2340.94)">
                                        <circle cx="2840" cy="1062" r="10" style="fill:rgb(172,139,88);"/>
                                    </g>
                                    <g transform="matrix(-0.929567,-0.427043,0.435018,-0.946925,4639.03,2561.57)">
                                        <circle cx="2840" cy="1062" r="10" style="fill:rgb(172,139,88);"/>
                                    </g>
                                    <g transform="matrix(2.94875e-17,0.481568,-0.481568,2.94875e-17,3007.93,-894.488)">
                                        <circle cx="2840" cy="1062" r="10" style="fill:rgb(172,139,88);"/>
                                    </g>
                                    <g transform="matrix(-0.148869,-0.282684,0.250852,-0.132105,2634.21,1338.15)">
                                        <circle cx="2840" cy="1062" r="10" style="fill:rgb(172,139,88);"/>
                                    </g>
                                    <g transform="matrix(-0.44765,-0.20565,0.209491,-0.456009,3523.22,1426.18)">
                                        <circle cx="2840" cy="1062" r="10" style="fill:rgb(172,139,88);"/>
                                    </g>
                                    <g transform="matrix(2.94875e-17,0.481568,-0.481568,2.94875e-17,3044.28,-1024.67)">
                                        <circle cx="2840" cy="1062" r="10" style="fill:rgb(172,139,88);"/>
                                    </g>
                                    <g transform="matrix(2.94875e-17,0.481568,-0.481568,2.94875e-17,3028.43,-1020.63)">
                                        <circle cx="2840" cy="1062" r="10" style="fill:rgb(172,139,88);"/>
                                    </g>
                                    <g transform="matrix(2.94875e-17,0.481568,-0.481568,2.94875e-17,3012.27,-935.706)">
                                        <circle cx="2840" cy="1062" r="10" style="fill:rgb(172,139,88);"/>
                                    </g>
                                    <g transform="matrix(1.41794e-17,0.231568,-0.231568,1.41794e-17,2754.78,-220.891)">
                                        <circle cx="2840" cy="1062" r="10" style="fill:rgb(172,139,88);"/>
                                    </g>
                                </g>
                                <g transform="matrix(0.999438,0,0,0.813991,-184.402,-415.363)">
                                    <path d="M162.097,870.677C166.033,894.652 186.042,942.2 266.768,943.749C326.442,1006.76 495.21,982.94 523.87,944.044C579.474,942.062 639.522,908.126 649.874,874.512C663.096,917.663 591.388,954.422 524.768,956.797C496.108,995.693 326.442,1013.5 266.768,950.485C155.761,948.354 159.564,885.749 162.097,870.677Z" style="fill:rgb(255,236,193);fill-opacity:0.56;"/>
                                </g>
                                <g transform="matrix(1,0,0,0.895169,14,33.9526)">
                                    <g>
                                        <g transform="matrix(1,0,0,0.788934,-166,-110.738)">
                                            <path d="M130,487.732C130,487.732 107.766,589.929 234,593C293.674,672.871 463.34,650.302 492,601C563.327,597.778 640.487,544.595 613,485C585.513,425.405 556.246,397.537 508,383.675C459.754,369.814 479.511,292.638 371,295C308.455,296.362 286.116,329.01 271,355.803C250.564,392.025 240.909,383.204 209,395C168.816,409.856 134.029,449.501 130,487.732Z" style="fill:rgb(214,199,168);"/>
                                        </g>
                                        <g transform="matrix(0.973733,0,0,0.909316,-186.532,-518.368)">
                                            <path d="M162.097,870.677C166.033,894.652 186.042,942.2 266.768,943.749C326.442,1006.76 495.21,982.94 523.87,944.044C579.474,942.062 639.522,908.126 649.874,874.512C663.096,917.663 591.388,954.422 524.768,956.797C496.108,995.693 326.442,1013.5 266.768,950.485C155.761,948.354 159.564,885.749 162.097,870.677Z" style="fill:rgb(177,158,118);"/>
                                        </g>
                                        <g transform="matrix(1,0,0,0.844669,-166,-142.262)">
                                            <path d="M237,548C237,548 274.28,440.178 308,436.087C291.476,485.517 260.676,516.222 237,548Z" style="fill:rgb(179,162,126);"/>
                                        </g>
                                        <g transform="matrix(0.998539,0.0456391,0.0540319,-0.843435,21.0999,707.881)">
                                            <path d="M214.086,582.813C214.086,582.813 245.28,474.365 279,470.274C262.476,519.704 237.762,551.034 214.086,582.813Z" style="fill:rgb(224,201,167);"/>
                                        </g>
                                        <g transform="matrix(0.998539,0.0456391,0.0540319,-0.843435,21.0999,707.881)">
                                            <path d="M214.086,582.813C214.086,582.813 245.28,474.365 279,470.274C262.476,519.704 237.762,551.034 214.086,582.813Z" style="fill:rgb(179,162,126);"/>
                                        </g>
                                        <g transform="matrix(-0.335005,0.947671,0.941724,0.321056,-184.976,-243.096)">
                                            <path d="M230.967,559.572C230.967,559.572 214.232,488.272 276.751,450.051C256.406,483.626 242.237,505.465 230.967,559.572Z" style="fill:rgb(179,162,126);"/>
                                        </g>
                                    </g>
                                </g>
                            </g>
                            <g>
                                <g transform="matrix(1,0,0,0.851791,27.455,-129.958)">
                                    <g transform="matrix(-1,-1.22465e-16,9.66166e-17,-0.788934,560.31,969.419)">
                                        <path d="M130,487.732C130,487.732 107.766,589.929 234,593C293.674,672.871 463.34,650.302 492,601C563.327,597.778 640.487,544.595 613,485C585.513,425.405 556.246,397.537 508,383.675C459.754,369.814 479.511,292.638 371,295C308.455,296.362 286.116,329.01 271,355.803C250.564,392.025 238.064,388.037 209,395C168.051,404.811 134.029,449.501 130,487.732Z" style="fill:rgb(214,199,168);"/>
                                    </g>
                                    <g transform="matrix(-0.255379,-0.29996,-0.11784,0.12069,436.424,654.056)">
                                        <path d="M214.086,582.813C216.022,497.318 247.196,389.784 279,470.274C262.476,519.704 237.762,551.034 214.086,582.813Z" style="fill:rgb(251,246,238);"/>
                                    </g>
                                    <g transform="matrix(0.502559,0.637421,0.0932788,-0.0884441,-92.5405,550.086)">
                                        <path d="M214.086,582.813C190.322,548.411 185.959,390.727 265.243,452.597C248.719,502.027 237.762,551.034 214.086,582.813Z" style="fill:rgb(251,246,238);"/>
                                    </g>
                                    <g transform="matrix(-1,-1.22465e-16,9.66166e-17,-0.788934,559.784,926.512)">
                                        <path d="M576.152,425.391C585.542,435.985 590.36,453.294 588.756,470.665C587.152,488.037 579.374,502.77 568.412,509.202C545.924,521.96 518.558,530.086 492,531.286C463.34,580.588 293.674,603.157 234,523.286C207.2,522.634 187.092,517.514 172.044,509.851C159.969,503.627 151.319,487.738 149.731,468.87C148.144,450.002 153.896,431.43 164.567,420.969C177.269,408.479 192.577,398.935 209,395C238.064,388.037 250.564,392.025 271,355.803C286.116,329.01 308.455,296.362 371,295C479.511,292.638 459.754,369.814 508,383.675C535.983,391.715 557.581,404.466 576.152,425.391Z" style="fill:rgb(251,246,238);"/>
                                        <path d="M576.152,425.391C585.542,435.985 590.36,453.294 588.756,470.665C587.152,488.037 579.374,502.77 568.412,509.202C545.924,521.96 518.558,530.086 492,531.286C463.34,580.588 293.674,603.157 234,523.286C207.2,522.634 187.092,517.514 172.044,509.851C159.969,503.627 151.319,487.738 149.731,468.87C148.144,450.002 153.896,431.43 164.567,420.969C177.269,408.479 192.577,398.935 209,395C238.064,388.037 250.564,392.025 271,355.803C286.116,329.01 308.455,296.362 371,295C479.511,292.638 459.754,369.814 508,383.675C535.983,391.715 557.581,404.466 576.152,425.391ZM574.363,428.903C582.9,438.535 587.281,454.272 585.823,470.066C584.365,485.852 577.299,499.242 567.34,505.094C545.14,517.685 518.125,525.697 491.91,526.881C491.082,526.919 490.302,527.471 489.76,528.403C485.412,535.883 477.592,542.59 467.373,548.478C451.405,557.679 429.696,564.642 405.68,568.389C369.532,574.027 328.167,572.364 293.194,559.853C270.2,551.628 249.98,538.747 235.98,520.01C235.449,519.298 234.763,518.897 234.048,518.88C207.647,518.238 187.834,513.233 173.008,505.685C162.002,500.008 154.117,485.523 152.67,468.323C151.223,451.12 156.467,434.187 166.196,424.649C166.197,424.648 166.199,424.647 166.2,424.645C178.569,412.482 193.477,403.182 209.471,399.35C239.421,392.175 252.209,395.963 273.268,358.636C288.039,332.453 309.922,300.737 371.043,299.406C434.637,298.021 453.19,324.331 467.986,348.744C478.5,366.092 487.346,382.229 507.439,388.002C534.911,395.895 556.131,408.36 574.363,428.903L574.363,428.903Z" style="fill:rgb(84,73,46);"/>
                                    </g>
                                </g>
                                <g transform="matrix(1.14861e-16,-1.87583,1.87583,1.14861e-16,-512.516,5243.85)">
                                    <g transform="matrix(6.12323e-17,1,-1,6.12323e-17,3551,-2349)">
                                        <circle cx="2690" cy="964" r="56" style="fill:rgb(117,37,35);"/>
                                        <path d="M2690,908C2720.91,908 2746,933.093 2746,964C2746,994.907 2720.91,1020 2690,1020C2659.09,1020 2634,994.907 2634,964C2634,933.093 2659.09,908 2690,908ZM2690,910.034C2719.78,910.034 2743.97,934.215 2743.97,964C2743.97,993.785 2719.78,1017.97 2690,1017.97C2660.22,1017.97 2636.03,993.785 2636.03,964C2636.03,934.215 2660.22,910.034 2690,910.034Z" style="fill:rgb(212,147,146);"/>
                                    </g>
                                    <g transform="matrix(6.12323e-17,1,-1,6.12323e-17,3539.14,-2340)">
                                        <path d="M2669,971C2675.62,971 2681,969.377 2681,976C2681,982.623 2676.62,986 2670,986C2663.38,986 2657,982.623 2657,976C2657,969.377 2662.38,971 2669,971Z" style="fill:rgb(212,147,146);"/>
                                    </g>
                                    <g transform="matrix(-1.25,1.53081e-16,-1.22465e-16,-1,5927.25,1285.81)">
                                        <path d="M2669,971C2675.62,971 2681,969.377 2681,976C2681,982.623 2676.62,986 2670,986C2663.38,986 2657,982.623 2657,976C2657,969.377 2662.38,971 2669,971Z" style="fill:rgb(212,147,146);"/>
                                    </g>
                                    <g transform="matrix(4.33729e-17,0.708333,-0.708333,4.33729e-17,3280.84,-1534.87)">
                                        <path d="M2669,964C2675.62,964 2681,969.377 2681,976C2681,982.623 2675.62,988 2669,988C2662.38,988 2661.24,982.623 2661.24,976C2661.24,969.377 2662.38,964 2669,964Z" style="fill:rgb(212,147,146);"/>
                                    </g>
                                    <g transform="matrix(-0.0853327,0.787054,-0.704206,-0.0763503,3538.54,-1675.95)">
                                        <path d="M2669,964C2675.62,964 2681,969.377 2681,976C2681,982.623 2674.36,982.353 2667.74,982.353C2661.11,982.353 2657,982.623 2657,976C2657,969.377 2662.38,964 2669,964Z" style="fill:rgb(212,147,146);"/>
                                    </g>
                                    <g transform="matrix(0.475688,-0.250607,0.250607,0.475688,1052.93,584.285)">
                                        <path d="M2665.07,968.234C2671.69,968.234 2681,969.377 2681,976C2681,982.623 2675.62,988 2669,988C2662.38,988 2657,982.623 2657,976C2657,969.377 2658.44,968.234 2665.07,968.234Z" style="fill:rgb(212,147,146);"/>
                                    </g>
                                    <g transform="matrix(2.29621e-17,0.375,-0.375,2.29621e-17,2919.64,-650.605)">
                                        <path d="M2669,964C2675.62,964 2675.67,969.377 2675.67,976C2675.67,982.623 2675.62,988 2669,988C2662.38,988 2657,982.623 2657,976C2657,969.377 2662.38,964 2669,964Z" style="fill:rgb(212,147,146);"/>
                                    </g>
                                    <g transform="matrix(2.29621e-17,0.375,-0.375,2.29621e-17,2990.3,-663.653)">
                                        <path d="M2669,964C2675.62,964 2675.67,969.377 2675.67,976C2675.67,982.623 2675.62,988 2669,988C2662.38,988 2657,982.623 2657,976C2657,969.377 2662.38,964 2669,964Z" style="fill:rgb(212,147,146);"/>
                                    </g>
                                    <g transform="matrix(0.35039,0.13361,-0.13361,0.35039,1745.4,-373.768)">
                                        <path d="M2669,964C2675.62,964 2675.67,969.377 2675.67,976C2675.67,982.623 2675.62,988 2669,988C2662.38,988 2657,982.623 2657,976C2657,969.377 2662.38,964 2669,964Z" style="fill:rgb(212,147,146);"/>
                                    </g>
                                    <g transform="matrix(1.22648e-17,0.200299,-0.209488,1.28275e-17,2815.05,-174.072)">
                                        <circle cx="2669" cy="976" r="12" style="fill:rgb(212,147,146);"/>
                                    </g>
                                    <g transform="matrix(1.02054e-17,0.166667,-0.166667,1.02054e-17,2745.01,-113.443)">
                                        <circle cx="2669" cy="976" r="12" style="fill:rgb(212,147,146);"/>
                                    </g>
                                    <g transform="matrix(1.22648e-17,0.200299,-0.209488,1.28275e-17,2810.28,-180.415)">
                                        <circle cx="2669" cy="976" r="12" style="fill:rgb(212,147,146);"/>
                                    </g>
                                    <g transform="matrix(1.02054e-17,0.166667,-0.166667,1.02054e-17,2741.21,-118.72)">
                                        <circle cx="2669" cy="976" r="12" style="fill:rgb(212,147,146);"/>
                                    </g>
                                    <g transform="matrix(1.22648e-17,0.200299,-0.209488,1.28275e-17,2807.71,-173.311)">
                                        <circle cx="2669" cy="976" r="12" style="fill:rgb(212,147,146);"/>
                                    </g>
                                    <g transform="matrix(1.02054e-17,0.166667,-0.166667,1.02054e-17,2739.17,-112.809)">
                                        <circle cx="2669" cy="976" r="12" style="fill:rgb(212,147,146);"/>
                                    </g>
                                    <g transform="matrix(0.243128,-0.128087,0.154232,0.292755,1779.96,433.846)">
                                        <path d="M2669,964C2675.62,964 2672.87,969.234 2672.87,975.857C2672.87,982.48 2675.62,988 2669,988C2662.38,988 2657,982.623 2657,976C2657,969.377 2662.38,964 2669,964Z" style="fill:rgb(212,147,146);"/>
                                    </g>
                                </g>
                                <g transform="matrix(9.39913e-17,-1.53499,1.53499,9.39913e-17,-291.246,4362.12)">
                                    <g transform="matrix(6.12323e-17,1,-1,6.12323e-17,3551,-2349)">
                                        <circle cx="2690" cy="964" r="56" style="fill:rgb(117,37,35);"/>
                                        <path d="M2690,908C2720.91,908 2746,933.093 2746,964C2746,994.907 2720.91,1020 2690,1020C2659.09,1020 2634,994.907 2634,964C2634,933.093 2659.09,908 2690,908ZM2690,910.486C2719.53,910.486 2743.51,934.465 2743.51,964C2743.51,993.535 2719.53,1017.51 2690,1017.51C2660.47,1017.51 2636.49,993.535 2636.49,964C2636.49,934.465 2660.47,910.486 2690,910.486Z" style="fill:rgb(212,147,146);"/>
                                    </g>
                                    <g transform="matrix(6.12323e-17,1,-1,6.12323e-17,3539.14,-2340)">
                                        <path d="M2669,971C2675.62,971 2681,969.377 2681,976C2681,982.623 2676.62,986 2670,986C2663.38,986 2657,982.623 2657,976C2657,969.377 2662.38,971 2669,971Z" style="fill:rgb(212,147,146);"/>
                                    </g>
                                    <g transform="matrix(-1.25,1.53081e-16,-1.22465e-16,-1,5927.25,1285.81)">
                                        <path d="M2669,971C2675.62,971 2681,969.377 2681,976C2681,982.623 2676.62,986 2670,986C2663.38,986 2657,982.623 2657,976C2657,969.377 2662.38,971 2669,971Z" style="fill:rgb(212,147,146);"/>
                                    </g>
                                    <g transform="matrix(4.33729e-17,0.708333,-0.708333,4.33729e-17,3280.84,-1534.87)">
                                        <path d="M2669,964C2675.62,964 2681,969.377 2681,976C2681,982.623 2675.62,988 2669,988C2662.38,988 2661.24,982.623 2661.24,976C2661.24,969.377 2662.38,964 2669,964Z" style="fill:rgb(212,147,146);"/>
                                    </g>
                                    <g transform="matrix(-0.0853327,0.787054,-0.704206,-0.0763503,3538.54,-1675.95)">
                                        <path d="M2669,964C2675.62,964 2681,969.377 2681,976C2681,982.623 2674.36,982.353 2667.74,982.353C2661.11,982.353 2657,982.623 2657,976C2657,969.377 2662.38,964 2669,964Z" style="fill:rgb(212,147,146);"/>
                                    </g>
                                    <g transform="matrix(0.475688,-0.250607,0.250607,0.475688,1052.93,584.285)">
                                        <path d="M2665.07,968.234C2671.69,968.234 2681,969.377 2681,976C2681,982.623 2675.62,988 2669,988C2662.38,988 2657,982.623 2657,976C2657,969.377 2658.44,968.234 2665.07,968.234Z" style="fill:rgb(212,147,146);"/>
                                    </g>
                                    <g transform="matrix(2.29621e-17,0.375,-0.375,2.29621e-17,2919.64,-650.605)">
                                        <path d="M2669,964C2675.62,964 2675.67,969.377 2675.67,976C2675.67,982.623 2675.62,988 2669,988C2662.38,988 2657,982.623 2657,976C2657,969.377 2662.38,964 2669,964Z" style="fill:rgb(212,147,146);"/>
                                    </g>
                                    <g transform="matrix(2.29621e-17,0.375,-0.375,2.29621e-17,2990.3,-663.653)">
                                        <path d="M2669,964C2675.62,964 2675.67,969.377 2675.67,976C2675.67,982.623 2675.62,988 2669,988C2662.38,988 2657,982.623 2657,976C2657,969.377 2662.38,964 2669,964Z" style="fill:rgb(212,147,146);"/>
                                    </g>
                                    <g transform="matrix(0.35039,0.13361,-0.13361,0.35039,1745.4,-373.768)">
                                        <path d="M2669,964C2675.62,964 2675.67,969.377 2675.67,976C2675.67,982.623 2675.62,988 2669,988C2662.38,988 2657,982.623 2657,976C2657,969.377 2662.38,964 2669,964Z" style="fill:rgb(212,147,146);"/>
                                    </g>
                                    <g transform="matrix(1.22648e-17,0.200299,-0.209488,1.28275e-17,2815.05,-174.072)">
                                        <circle cx="2669" cy="976" r="12" style="fill:rgb(212,147,146);"/>
                                    </g>
                                    <g transform="matrix(1.02054e-17,0.166667,-0.166667,1.02054e-17,2745.01,-113.443)">
                                        <circle cx="2669" cy="976" r="12" style="fill:rgb(212,147,146);"/>
                                    </g>
                                    <g transform="matrix(1.22648e-17,0.200299,-0.209488,1.28275e-17,2810.28,-180.415)">
                                        <circle cx="2669" cy="976" r="12" style="fill:rgb(212,147,146);"/>
                                    </g>
                                    <g transform="matrix(1.02054e-17,0.166667,-0.166667,1.02054e-17,2741.21,-118.72)">
                                        <circle cx="2669" cy="976" r="12" style="fill:rgb(212,147,146);"/>
                                    </g>
                                    <g transform="matrix(1.22648e-17,0.200299,-0.209488,1.28275e-17,2807.71,-173.311)">
                                        <circle cx="2669" cy="976" r="12" style="fill:rgb(212,147,146);"/>
                                    </g>
                                    <g transform="matrix(1.02054e-17,0.166667,-0.166667,1.02054e-17,2739.17,-112.809)">
                                        <circle cx="2669" cy="976" r="12" style="fill:rgb(212,147,146);"/>
                                    </g>
                                    <g transform="matrix(0.243128,-0.128087,0.154232,0.292755,1779.96,433.846)">
                                        <path d="M2669,964C2675.62,964 2672.87,969.234 2672.87,975.857C2672.87,982.48 2675.62,988 2669,988C2662.38,988 2657,982.623 2657,976C2657,969.377 2662.38,964 2669,964Z" style="fill:rgb(212,147,146);"/>
                                    </g>
                                </g>
                                <g transform="matrix(9.39913e-17,-1.53499,1.53499,9.39913e-17,-207.777,4318.24)">
                                    <g transform="matrix(6.12323e-17,1,-1,6.12323e-17,3551,-2349)">
                                        <circle cx="2690" cy="964" r="56" style="fill:rgb(117,37,35);"/>
                                        <path d="M2690,908C2720.91,908 2746,933.093 2746,964C2746,994.907 2720.91,1020 2690,1020C2659.09,1020 2634,994.907 2634,964C2634,933.093 2659.09,908 2690,908ZM2690,910.486C2719.53,910.486 2743.51,934.465 2743.51,964C2743.51,993.535 2719.53,1017.51 2690,1017.51C2660.47,1017.51 2636.49,993.535 2636.49,964C2636.49,934.465 2660.47,910.486 2690,910.486Z" style="fill:rgb(212,147,146);"/>
                                    </g>
                                    <g transform="matrix(6.12323e-17,1,-1,6.12323e-17,3539.14,-2340)">
                                        <path d="M2669,971C2675.62,971 2681,969.377 2681,976C2681,982.623 2676.62,986 2670,986C2663.38,986 2657,982.623 2657,976C2657,969.377 2662.38,971 2669,971Z" style="fill:rgb(212,147,146);"/>
                                    </g>
                                    <g transform="matrix(-1.25,1.53081e-16,-1.22465e-16,-1,5927.25,1285.81)">
                                        <path d="M2669,971C2675.62,971 2681,969.377 2681,976C2681,982.623 2676.62,986 2670,986C2663.38,986 2657,982.623 2657,976C2657,969.377 2662.38,971 2669,971Z" style="fill:rgb(212,147,146);"/>
                                    </g>
                                    <g transform="matrix(4.33729e-17,0.708333,-0.708333,4.33729e-17,3280.84,-1534.87)">
                                        <path d="M2669,964C2675.62,964 2681,969.377 2681,976C2681,982.623 2675.62,988 2669,988C2662.38,988 2661.24,982.623 2661.24,976C2661.24,969.377 2662.38,964 2669,964Z" style="fill:rgb(212,147,146);"/>
                                    </g>
                                    <g transform="matrix(-0.0853327,0.787054,-0.704206,-0.0763503,3538.54,-1675.95)">
                                        <path d="M2669,964C2675.62,964 2681,969.377 2681,976C2681,982.623 2674.36,982.353 2667.74,982.353C2661.11,982.353 2657,982.623 2657,976C2657,969.377 2662.38,964 2669,964Z" style="fill:rgb(212,147,146);"/>
                                    </g>
                                    <g transform="matrix(0.475688,-0.250607,0.250607,0.475688,1052.93,584.285)">
                                        <path d="M2665.07,968.234C2671.69,968.234 2681,969.377 2681,976C2681,982.623 2675.62,988 2669,988C2662.38,988 2657,982.623 2657,976C2657,969.377 2658.44,968.234 2665.07,968.234Z" style="fill:rgb(212,147,146);"/>
                                    </g>
                                    <g transform="matrix(2.29621e-17,0.375,-0.375,2.29621e-17,2919.64,-650.605)">
                                        <path d="M2669,964C2675.62,964 2675.67,969.377 2675.67,976C2675.67,982.623 2675.62,988 2669,988C2662.38,988 2657,982.623 2657,976C2657,969.377 2662.38,964 2669,964Z" style="fill:rgb(212,147,146);"/>
                                    </g>
                                    <g transform="matrix(2.29621e-17,0.375,-0.375,2.29621e-17,2990.3,-663.653)">
                                        <path d="M2669,964C2675.62,964 2675.67,969.377 2675.67,976C2675.67,982.623 2675.62,988 2669,988C2662.38,988 2657,982.623 2657,976C2657,969.377 2662.38,964 2669,964Z" style="fill:rgb(212,147,146);"/>
                                    </g>
                                    <g transform="matrix(0.35039,0.13361,-0.13361,0.35039,1745.4,-373.768)">
                                        <path d="M2669,964C2675.62,964 2675.67,969.377 2675.67,976C2675.67,982.623 2675.62,988 2669,988C2662.38,988 2657,982.623 2657,976C2657,969.377 2662.38,964 2669,964Z" style="fill:rgb(212,147,146);"/>
                                    </g>
                                    <g transform="matrix(1.22648e-17,0.200299,-0.209488,1.28275e-17,2815.05,-174.072)">
                                        <circle cx="2669" cy="976" r="12" style="fill:rgb(212,147,146);"/>
                                    </g>
                                    <g transform="matrix(1.02054e-17,0.166667,-0.166667,1.02054e-17,2745.01,-113.443)">
                                        <circle cx="2669" cy="976" r="12" style="fill:rgb(212,147,146);"/>
                                    </g>
                                    <g transform="matrix(1.22648e-17,0.200299,-0.209488,1.28275e-17,2810.28,-180.415)">
                                        <circle cx="2669" cy="976" r="12" style="fill:rgb(212,147,146);"/>
                                    </g>
                                    <g transform="matrix(1.02054e-17,0.166667,-0.166667,1.02054e-17,2741.21,-118.72)">
                                        <circle cx="2669" cy="976" r="12" style="fill:rgb(212,147,146);"/>
                                    </g>
                                    <g transform="matrix(1.22648e-17,0.200299,-0.209488,1.28275e-17,2807.71,-173.311)">
                                        <circle cx="2669" cy="976" r="12" style="fill:rgb(212,147,146);"/>
                                    </g>
                                    <g transform="matrix(1.02054e-17,0.166667,-0.166667,1.02054e-17,2739.17,-112.809)">
                                        <circle cx="2669" cy="976" r="12" style="fill:rgb(212,147,146);"/>
                                    </g>
                                    <g transform="matrix(0.243128,-0.128087,0.154232,0.292755,1779.96,433.846)">
                                        <path d="M2669,964C2675.62,964 2672.87,969.234 2672.87,975.857C2672.87,982.48 2675.62,988 2669,988C2662.38,988 2657,982.623 2657,976C2657,969.377 2662.38,964 2669,964Z" style="fill:rgb(212,147,146);"/>
                                    </g>
                                </g>
                                <g transform="matrix(6.81321e-17,-1.11268,1.11268,6.81321e-17,-365.139,3226.86)">
                                    <g transform="matrix(6.12323e-17,1,-1,6.12323e-17,3551,-2349)">
                                        <circle cx="2690" cy="964" r="56" style="fill:rgb(117,37,35);"/>
                                        <path d="M2690,908C2720.91,908 2746,933.093 2746,964C2746,994.907 2720.91,1020 2690,1020C2659.09,1020 2634,994.907 2634,964C2634,933.093 2659.09,908 2690,908ZM2690,911.429C2719.01,911.429 2742.57,934.985 2742.57,964C2742.57,993.015 2719.01,1016.57 2690,1016.57C2660.99,1016.57 2637.43,993.015 2637.43,964C2637.43,934.985 2660.99,911.429 2690,911.429Z" style="fill:rgb(212,147,146);"/>
                                    </g>
                                    <g transform="matrix(6.12323e-17,1,-1,6.12323e-17,3539.14,-2340)">
                                        <path d="M2669,971C2675.62,971 2681,969.377 2681,976C2681,982.623 2676.62,986 2670,986C2663.38,986 2657,982.623 2657,976C2657,969.377 2662.38,971 2669,971Z" style="fill:rgb(212,147,146);"/>
                                    </g>
                                    <g transform="matrix(-1.25,1.53081e-16,-1.22465e-16,-1,5927.25,1285.81)">
                                        <path d="M2669,971C2675.62,971 2681,969.377 2681,976C2681,982.623 2676.62,986 2670,986C2663.38,986 2657,982.623 2657,976C2657,969.377 2662.38,971 2669,971Z" style="fill:rgb(212,147,146);"/>
                                    </g>
                                    <g transform="matrix(4.33729e-17,0.708333,-0.708333,4.33729e-17,3280.84,-1534.87)">
                                        <path d="M2669,964C2675.62,964 2681,969.377 2681,976C2681,982.623 2675.62,988 2669,988C2662.38,988 2661.24,982.623 2661.24,976C2661.24,969.377 2662.38,964 2669,964Z" style="fill:rgb(212,147,146);"/>
                                    </g>
                                    <g transform="matrix(-0.0853327,0.787054,-0.704206,-0.0763503,3538.54,-1675.95)">
                                        <path d="M2669,964C2675.62,964 2681,969.377 2681,976C2681,982.623 2674.36,982.353 2667.74,982.353C2661.11,982.353 2657,982.623 2657,976C2657,969.377 2662.38,964 2669,964Z" style="fill:rgb(212,147,146);"/>
                                    </g>
                                    <g transform="matrix(0.475688,-0.250607,0.250607,0.475688,1052.93,584.285)">
                                        <path d="M2665.07,968.234C2671.69,968.234 2681,969.377 2681,976C2681,982.623 2675.62,988 2669,988C2662.38,988 2657,982.623 2657,976C2657,969.377 2658.44,968.234 2665.07,968.234Z" style="fill:rgb(212,147,146);"/>
                                    </g>
                                    <g transform="matrix(2.29621e-17,0.375,-0.375,2.29621e-17,2919.64,-650.605)">
                                        <path d="M2669,964C2675.62,964 2675.67,969.377 2675.67,976C2675.67,982.623 2675.62,988 2669,988C2662.38,988 2657,982.623 2657,976C2657,969.377 2662.38,964 2669,964Z" style="fill:rgb(212,147,146);"/>
                                    </g>
                                    <g transform="matrix(2.29621e-17,0.375,-0.375,2.29621e-17,2990.3,-663.653)">
                                        <path d="M2669,964C2675.62,964 2675.67,969.377 2675.67,976C2675.67,982.623 2675.62,988 2669,988C2662.38,988 2657,982.623 2657,976C2657,969.377 2662.38,964 2669,964Z" style="fill:rgb(212,147,146);"/>
                                    </g>
                                    <g transform="matrix(0.35039,0.13361,-0.13361,0.35039,1745.4,-373.768)">
                                        <path d="M2669,964C2675.62,964 2675.67,969.377 2675.67,976C2675.67,982.623 2675.62,988 2669,988C2662.38,988 2657,982.623 2657,976C2657,969.377 2662.38,964 2669,964Z" style="fill:rgb(212,147,146);"/>
                                    </g>
                                    <g transform="matrix(1.22648e-17,0.200299,-0.209488,1.28275e-17,2815.05,-174.072)">
                                        <circle cx="2669" cy="976" r="12" style="fill:rgb(212,147,146);"/>
                                    </g>
                                    <g transform="matrix(1.02054e-17,0.166667,-0.166667,1.02054e-17,2745.01,-113.443)">
                                        <circle cx="2669" cy="976" r="12" style="fill:rgb(212,147,146);"/>
                                    </g>
                                    <g transform="matrix(1.22648e-17,0.200299,-0.209488,1.28275e-17,2810.28,-180.415)">
                                        <circle cx="2669" cy="976" r="12" style="fill:rgb(212,147,146);"/>
                                    </g>
                                    <g transform="matrix(1.02054e-17,0.166667,-0.166667,1.02054e-17,2741.21,-118.72)">
                                        <circle cx="2669" cy="976" r="12" style="fill:rgb(212,147,146);"/>
                                    </g>
                                    <g transform="matrix(1.22648e-17,0.200299,-0.209488,1.28275e-17,2807.71,-173.311)">
                                        <circle cx="2669" cy="976" r="12" style="fill:rgb(212,147,146);"/>
                                    </g>
                                    <g transform="matrix(1.02054e-17,0.166667,-0.166667,1.02054e-17,2739.17,-112.809)">
                                        <circle cx="2669" cy="976" r="12" style="fill:rgb(212,147,146);"/>
                                    </g>
                                    <g transform="matrix(0.243128,-0.128087,0.154232,0.292755,1779.96,433.846)">
                                        <path d="M2669,964C2675.62,964 2672.87,969.234 2672.87,975.857C2672.87,982.48 2675.62,988 2669,988C2662.38,988 2657,982.623 2657,976C2657,969.377 2662.38,964 2669,964Z" style="fill:rgb(212,147,146);"/>
                                    </g>
                                </g>
                                <g transform="matrix(0.233774,-0.972291,-0.972291,-0.233774,204.418,2875.76)">
                                    <g transform="matrix(8.08412e-18,1.02018,-1.03859,3.47127e-17,3572.7,-2421.27)">
                                        <path d="M2673.28,980.659C2673.21,979.733 2673.54,978.823 2674.21,978.159C2674.87,977.495 2675.79,977.142 2676.73,977.191C2702.16,978.491 2849,986 2849,986L2887,1069C2887,1069 2731.45,1100.26 2692.01,1108.19C2689.73,1108.65 2687.36,1108.12 2685.51,1106.74C2683.66,1105.37 2682.49,1103.27 2682.32,1100.99C2680.34,1074.62 2674.6,998.281 2673.28,980.659Z" style="fill:rgb(172,139,88);"/>
                                    </g>
                                    <g transform="matrix(8.80685e-17,1,-0.984985,6.12323e-17,3534.14,-2349)">
                                        <path d="M2655.18,994.627C2655.05,993.709 2655.32,992.781 2655.91,992.074C2656.5,991.367 2657.36,990.949 2658.27,990.926C2682.64,990.296 2823.62,986.655 2846.01,986.077C2847.75,986.032 2849.3,987.229 2849.72,988.953C2853.7,1005.4 2873,1085 2873,1085C2873,1085 2728.95,1112.37 2685.35,1120.65C2682.13,1121.27 2678.8,1120.51 2676.13,1118.57C2673.47,1116.63 2671.7,1113.66 2671.25,1110.37C2667.22,1081.38 2657.5,1011.31 2655.18,994.627Z" style="fill:rgb(229,204,166);"/>
                                        <path d="M2655.18,994.627C2655.05,993.709 2655.32,992.781 2655.91,992.074C2656.5,991.367 2657.36,990.949 2658.27,990.926C2682.64,990.296 2823.62,986.655 2846.01,986.077C2847.75,986.032 2849.3,987.229 2849.72,988.953C2853.7,1005.4 2873,1085 2873,1085C2873,1085 2728.95,1112.37 2685.35,1120.65C2682.13,1121.27 2678.8,1120.51 2676.13,1118.57C2673.47,1116.63 2671.7,1113.66 2671.25,1110.37C2667.22,1081.38 2657.5,1011.31 2655.18,994.627ZM2656.15,994.487L2672.22,1110.23C2672.64,1113.25 2674.26,1115.98 2676.71,1117.76C2679.15,1119.54 2682.21,1120.24 2685.17,1119.67C2685.17,1119.67 2871.8,1084.21 2871.8,1084.21C2871.8,1084.21 2848.76,989.191 2848.76,989.191C2848.45,987.922 2847.32,987.041 2846.03,987.075C2846.03,987.075 2658.29,991.923 2658.29,991.923C2657.66,991.939 2657.07,992.229 2656.66,992.718C2656.25,993.208 2656.07,993.852 2656.15,994.487Z" style="fill:rgb(247,235,216);"/>
                                    </g>
                                    <g transform="matrix(6.12323e-17,1,-1,6.12323e-17,3551,-2349)">
                                        <circle cx="2840" cy="1062" r="10" style="fill:rgb(172,139,88);"/>
                                    </g>
                                    <g transform="matrix(-0.309134,-0.587008,0.520907,-0.274323,2800.96,2340.94)">
                                        <circle cx="2840" cy="1062" r="10" style="fill:rgb(172,139,88);"/>
                                    </g>
                                    <g transform="matrix(-0.929567,-0.427043,0.435018,-0.946925,4639.03,2561.57)">
                                        <circle cx="2840" cy="1062" r="10" style="fill:rgb(172,139,88);"/>
                                    </g>
                                    <g transform="matrix(2.94875e-17,0.481568,-0.481568,2.94875e-17,3007.93,-894.488)">
                                        <circle cx="2840" cy="1062" r="10" style="fill:rgb(172,139,88);"/>
                                    </g>
                                    <g transform="matrix(-0.148869,-0.282684,0.250852,-0.132105,2634.21,1338.15)">
                                        <circle cx="2840" cy="1062" r="10" style="fill:rgb(172,139,88);"/>
                                    </g>
                                    <g transform="matrix(-0.44765,-0.20565,0.209491,-0.456009,3523.22,1426.18)">
                                        <circle cx="2840" cy="1062" r="10" style="fill:rgb(172,139,88);"/>
                                    </g>
                                    <g transform="matrix(2.94875e-17,0.481568,-0.481568,2.94875e-17,3044.28,-1024.67)">
                                        <circle cx="2840" cy="1062" r="10" style="fill:rgb(172,139,88);"/>
                                    </g>
                                    <g transform="matrix(2.94875e-17,0.481568,-0.481568,2.94875e-17,3028.43,-1020.63)">
                                        <circle cx="2840" cy="1062" r="10" style="fill:rgb(172,139,88);"/>
                                    </g>
                                    <g transform="matrix(2.94875e-17,0.481568,-0.481568,2.94875e-17,3012.27,-935.706)">
                                        <circle cx="2840" cy="1062" r="10" style="fill:rgb(172,139,88);"/>
                                    </g>
                                    <g transform="matrix(1.41794e-17,0.231568,-0.231568,1.41794e-17,2754.78,-220.891)">
                                        <circle cx="2840" cy="1062" r="10" style="fill:rgb(172,139,88);"/>
                                    </g>
                                </g>
                                <g transform="matrix(0.504319,-0.863517,-0.863517,-0.504319,-596.565,2748.19)">
                                    <g transform="matrix(8.08412e-18,1.02018,-1.03859,3.47127e-17,3572.7,-2421.27)">
                                        <path d="M2673.28,980.659C2673.21,979.733 2673.54,978.823 2674.21,978.159C2674.87,977.495 2675.79,977.142 2676.73,977.191C2702.16,978.491 2849,986 2849,986L2887,1069C2887,1069 2731.45,1100.26 2692.01,1108.19C2689.73,1108.65 2687.36,1108.12 2685.51,1106.74C2683.66,1105.37 2682.49,1103.27 2682.32,1100.99C2680.34,1074.62 2674.6,998.281 2673.28,980.659Z" style="fill:rgb(172,139,88);"/>
                                    </g>
                                    <g transform="matrix(8.80685e-17,1,-0.984985,6.12323e-17,3534.14,-2349)">
                                        <path d="M2655.18,994.627C2655.05,993.709 2655.32,992.781 2655.91,992.074C2656.5,991.367 2657.36,990.949 2658.27,990.926C2682.64,990.296 2823.62,986.655 2846.01,986.077C2847.75,986.032 2849.3,987.229 2849.72,988.953C2853.7,1005.4 2873,1085 2873,1085C2873,1085 2728.95,1112.37 2685.35,1120.65C2682.13,1121.27 2678.8,1120.51 2676.13,1118.57C2673.47,1116.63 2671.7,1113.66 2671.25,1110.37C2667.22,1081.38 2657.5,1011.31 2655.18,994.627Z" style="fill:rgb(229,204,166);"/>
                                        <path d="M2655.18,994.627C2655.05,993.709 2655.32,992.781 2655.91,992.074C2656.5,991.367 2657.36,990.949 2658.27,990.926C2682.64,990.296 2823.62,986.655 2846.01,986.077C2847.75,986.032 2849.3,987.229 2849.72,988.953C2853.7,1005.4 2873,1085 2873,1085C2873,1085 2728.95,1112.37 2685.35,1120.65C2682.13,1121.27 2678.8,1120.51 2676.13,1118.57C2673.47,1116.63 2671.7,1113.66 2671.25,1110.37C2667.22,1081.38 2657.5,1011.31 2655.18,994.627ZM2656.15,994.487L2672.22,1110.23C2672.64,1113.25 2674.26,1115.98 2676.71,1117.76C2679.15,1119.54 2682.21,1120.24 2685.17,1119.67C2726.62,1111.8 2858.86,1086.67 2871.8,1084.21C2871.8,1084.21 2848.76,989.191 2848.76,989.191C2848.45,987.922 2847.32,987.041 2846.03,987.075C2823.65,987.653 2682.67,991.293 2658.29,991.923C2657.66,991.939 2657.07,992.229 2656.66,992.718C2656.25,993.208 2656.07,993.852 2656.15,994.487Z" style="fill:rgb(247,235,216);"/>
                                    </g>
                                    <g transform="matrix(6.12323e-17,1,-1,6.12323e-17,3551,-2349)">
                                        <circle cx="2840" cy="1062" r="10" style="fill:rgb(172,139,88);"/>
                                    </g>
                                    <g transform="matrix(-0.309134,-0.587008,0.520907,-0.274323,2800.96,2340.94)">
                                        <circle cx="2840" cy="1062" r="10" style="fill:rgb(172,139,88);"/>
                                    </g>
                                    <g transform="matrix(-0.929567,-0.427043,0.435018,-0.946925,4639.03,2561.57)">
                                        <circle cx="2840" cy="1062" r="10" style="fill:rgb(172,139,88);"/>
                                    </g>
                                    <g transform="matrix(2.94875e-17,0.481568,-0.481568,2.94875e-17,3007.93,-894.488)">
                                        <circle cx="2840" cy="1062" r="10" style="fill:rgb(172,139,88);"/>
                                    </g>
                                    <g transform="matrix(-0.148869,-0.282684,0.250852,-0.132105,2634.21,1338.15)">
                                        <circle cx="2840" cy="1062" r="10" style="fill:rgb(172,139,88);"/>
                                    </g>
                                    <g transform="matrix(-0.44765,-0.20565,0.209491,-0.456009,3523.22,1426.18)">
                                        <circle cx="2840" cy="1062" r="10" style="fill:rgb(172,139,88);"/>
                                    </g>
                                    <g transform="matrix(2.94875e-17,0.481568,-0.481568,2.94875e-17,3044.28,-1024.67)">
                                        <circle cx="2840" cy="1062" r="10" style="fill:rgb(172,139,88);"/>
                                    </g>
                                    <g transform="matrix(2.94875e-17,0.481568,-0.481568,2.94875e-17,3028.43,-1020.63)">
                                        <circle cx="2840" cy="1062" r="10" style="fill:rgb(172,139,88);"/>
                                    </g>
                                    <g transform="matrix(2.94875e-17,0.481568,-0.481568,2.94875e-17,3012.27,-935.706)">
                                        <circle cx="2840" cy="1062" r="10" style="fill:rgb(172,139,88);"/>
                                    </g>
                                    <g transform="matrix(1.41794e-17,0.231568,-0.231568,1.41794e-17,2754.78,-220.891)">
                                        <circle cx="2840" cy="1062" r="10" style="fill:rgb(172,139,88);"/>
                                    </g>
                                </g>
                                <g transform="matrix(0.999438,0,0,0.813991,-184.402,-415.363)">
                                    <path d="M162.097,870.677C166.033,894.652 186.042,942.2 266.768,943.749C326.442,1006.76 495.21,982.94 523.87,944.044C579.474,942.062 639.522,908.126 649.874,874.512C663.096,917.663 591.388,954.422 524.768,956.797C496.108,995.693 326.442,1013.5 266.768,950.485C155.761,948.354 159.564,885.749 162.097,870.677Z" style="fill:rgb(255,236,193);fill-opacity:0.56;"/>
                                </g>
                                <g transform="matrix(1,0,0,0.895169,14,33.9526)">
                                    <g>
                                        <g transform="matrix(1,0,0,0.788934,-166,-110.738)">
                                            <path d="M130,487.732C130,487.732 107.766,589.929 234,593C293.674,672.871 463.34,650.302 492,601C563.327,597.778 640.487,544.595 613,485C585.513,425.405 556.246,397.537 508,383.675C459.754,369.814 479.511,292.638 371,295C308.455,296.362 286.116,329.01 271,355.803C250.564,392.025 240.909,383.204 209,395C168.816,409.856 134.029,449.501 130,487.732Z" style="fill:rgb(214,199,168);"/>
                                        </g>
                                        <g transform="matrix(0.973733,0,0,0.909316,-186.532,-518.368)">
                                            <path d="M162.097,870.677C166.033,894.652 186.042,942.2 266.768,943.749C326.442,1006.76 495.21,982.94 523.87,944.044C579.474,942.062 639.522,908.126 649.874,874.512C663.096,917.663 591.388,954.422 524.768,956.797C496.108,995.693 326.442,1013.5 266.768,950.485C155.761,948.354 159.564,885.749 162.097,870.677Z" style="fill:rgb(177,158,118);"/>
                                        </g>
                                        <g transform="matrix(1,0,0,0.844669,-166,-142.262)">
                                            <path d="M237,548C237,548 274.28,440.178 308,436.087C291.476,485.517 260.676,516.222 237,548Z" style="fill:rgb(179,162,126);"/>
                                        </g>
                                        <g transform="matrix(0.998539,0.0456391,0.0540319,-0.843435,21.0999,707.881)">
                                            <path d="M214.086,582.813C214.086,582.813 245.28,474.365 279,470.274C262.476,519.704 237.762,551.034 214.086,582.813Z" style="fill:rgb(224,201,167);"/>
                                        </g>
                                        <g transform="matrix(0.998539,0.0456391,0.0540319,-0.843435,21.0999,707.881)">
                                            <path d="M214.086,582.813C214.086,582.813 245.28,474.365 279,470.274C262.476,519.704 237.762,551.034 214.086,582.813Z" style="fill:rgb(179,162,126);"/>
                                        </g>
                                        <g transform="matrix(-0.335005,0.947671,0.941724,0.321056,-184.976,-243.096)">
                                            <path d="M230.967,559.572C230.967,559.572 214.232,488.272 276.751,450.051C256.406,483.626 242.237,505.465 230.967,559.572Z" style="fill:rgb(179,162,126);"/>
                                        </g>
                                    </g>
                                </g>
                            </g>
                        </g>
                    </g>
                </g>
                <g transform="matrix(0.5469,-0.837198,0.837198,0.5469,-427.473,2820.45)">
                    <g transform="matrix(0.763055,0,0,0.763055,398.027,342.727)">
                        <circle cx="2571.24" cy="1812.37" r="135.782" style="fill:rgb(200,242,247);fill-opacity:0.59;stroke:rgb(67,11,10);stroke-width:27px;"/>
                    </g>
                    <g transform="matrix(1,0,0,1,0.666329,-31.0364)">
                        <path d="M2375.03,1868.62C2375.03,1864.03 2371.3,1860.31 2366.72,1860.31L2350.1,1860.31C2345.52,1860.31 2341.8,1864.03 2341.8,1868.62L2341.8,2026.64C2341.8,2031.22 2345.52,2034.95 2350.1,2034.95L2366.72,2034.95C2371.3,2034.95 2375.03,2031.22 2375.03,2026.64L2375.03,1868.62Z" style="fill:rgb(67,11,10);"/>
                    </g>
                </g>
            </g>
        </g>
    </g>
</svg>
