<?xml version="1.0" encoding="UTF-8" standalone="no"?>
<!DOCTYPE svg PUBLIC "-//W3C//DTD SVG 1.1//EN" "http://www.w3.org/Graphics/SVG/1.1/DTD/svg11.dtd">
<svg width="45px" height="29px" version="1.1" xmlns="http://www.w3.org/2000/svg" xmlns:xlink="http://www.w3.org/1999/xlink" xml:space="preserve" xmlns:serif="http://www.serif.com/" style="fill-rule:evenodd;clip-rule:evenodd;stroke-linejoin:round;stroke-miterlimit:2;">
    <g id="mano">
    </g>
    <g id="fausto">
    </g>
    <g id="blinkup">
    </g>
    <g id="blinkdwn">
    </g>
    <g id="ciglio">
    </g>
    <g id="barba">
    </g>
    <g id="logo">
    </g>
    <g id="baffo">
    </g>
    <g>
        <path d="M21.893,2.866C30.173,2.871 28.692,7.132 32.513,7.907C36.395,8.695 38.75,10.278 40.961,13.665C41.332,14.232 41.466,14.789 41.405,15.324L41.405,15.324C41.338,15.921 41.029,16.49 40.537,17.016C40.42,17.158 40.294,17.284 40.159,17.381C39.98,17.537 39.785,17.69 39.575,17.837C39.273,18.548 38.774,19.497 38.064,20.496C37.226,21.834 35.901,23.388 33.54,24.63L32.904,24.956C32.554,25.122 32.176,25.268 31.775,25.395C28.702,26.473 25.9,26.25 25.593,26.337L25.566,26.356C25.566,26.349 25.575,26.342 25.593,26.337L25.742,26.234C24.726,26.267 23.697,26.267 22.693,26.253L22.713,26.262C22.695,26.259 22.676,26.256 22.658,26.253C22.172,26.246 21.692,26.236 21.222,26.224C20.156,26.198 18.965,26.23 17.752,26.235C16.548,26.394 15.343,26.496 12.908,25.882L12.908,25.882C12.315,25.756 11.758,25.586 11.254,25.358C11.116,25.296 10.98,25.232 10.845,25.165C8.804,24.251 7.231,22.903 6.092,21.644C4.969,20.457 4.167,19.26 3.761,18.314L3.67,18.088C3.371,17.861 3.122,17.623 2.917,17.379L2.917,17.379C1.516,15.72 2.102,13.82 2.102,13.82C2.426,11.648 5.224,9.395 8.457,8.551C11.025,7.881 11.801,8.382 13.446,6.324C14.662,4.801 16.459,2.946 21.491,2.869L21.893,2.866Z" style="fill:rgb(141,118,95);"/>
        <path d="M21.893,2.866L21.894,0.866C26.904,0.869 28.919,2.289 30.302,3.696C30.775,4.178 31.158,4.674 31.571,5.124C31.907,5.489 32.269,5.817 32.911,5.947C37.379,6.854 40.09,8.674 42.636,12.571C43.298,13.585 43.501,14.591 43.393,15.548L43.393,15.548C43.279,16.56 42.423,17.324 41.406,17.324L41.405,17.324C42.423,17.324 43.279,16.56 43.393,15.548C43.283,16.522 42.831,17.476 42.054,18.32C41.852,18.561 41.631,18.774 41.42,18.934C41.344,19 41.265,19.065 41.187,19.127C40.845,19.846 40.362,20.708 39.73,21.605C38.748,23.16 37.206,24.961 34.472,26.4L33.761,26.763C33.341,26.962 32.889,27.138 32.423,27.288C29.403,28.342 25.863,28.316 25.863,28.316C25.863,28.316 26.086,28.276 26.14,28.261L25.65,28.329L25.566,28.356C25.344,28.356 25.13,28.32 24.931,28.253L24.235,28.261C23.976,28.261 23.717,28.261 23.457,28.261L22.717,28.254L22.713,28.262L22.609,28.252C22.124,28.245 21.643,28.235 21.173,28.223C20.162,28.198 19.036,28.227 17.891,28.233C16.546,28.408 15.159,28.509 12.452,27.83C11.727,27.673 11.047,27.46 10.43,27.18C10.284,27.114 10.139,27.046 10.014,26.985C7.705,25.948 5.918,24.429 4.624,23.003C3.399,21.705 2.516,20.387 2.019,19.318C1.783,19.106 1.574,18.889 1.388,18.67C1.543,18.852 1.727,19.004 1.93,19.119L1.93,19.119C1.726,19.004 1.543,18.852 1.388,18.67L1.387,18.668C-0.446,16.496 -0.013,14.044 0.14,13.421C0.347,12.216 1.031,10.969 2.126,9.863C3.536,8.438 5.647,7.218 7.952,6.616C8.788,6.398 9.448,6.292 10.012,6.193C10.747,6.065 11.185,5.949 11.883,5.075C13.336,3.257 15.449,0.962 21.46,0.869C20.362,0.886 19.483,1.786 19.491,2.884C19.492,2.927 19.493,2.968 19.496,3.01C15.95,3.478 14.485,5.022 13.446,6.324C11.801,8.382 11.025,7.881 8.457,8.551C5.224,9.395 2.426,11.648 2.102,13.82C2.102,13.82 1.516,15.72 2.917,17.379L2.917,17.379C3.122,17.623 3.371,17.861 3.67,18.088L3.761,18.314C3.965,18.79 4.27,19.331 4.667,19.902C4.2,20.187 3.761,20.314 3.761,20.314C4.12,20.314 4.465,20.218 4.766,20.042C5.136,20.562 5.581,21.104 6.092,21.644C7.231,22.903 8.804,24.251 10.845,25.165C10.98,25.232 11.116,25.296 11.254,25.358C11.758,25.586 12.315,25.756 12.908,25.882L12.908,25.882C15.343,26.496 16.548,26.394 17.752,26.235C18.965,26.23 20.156,26.198 21.222,26.224C21.692,26.236 22.172,26.246 22.658,26.253C22.676,26.256 22.695,26.259 22.713,26.262L22.693,26.253L23.363,26.26C23.11,27.194 22.755,28.15 22.717,28.253C23.245,28.247 23.725,28.036 24.079,27.694C23.76,27.34 23.566,26.871 23.566,26.356L23.568,26.261L23.742,26.261L23.742,26.266C23.75,26.752 23.931,27.195 24.226,27.538C24.302,27.448 24.369,27.351 24.428,27.248C24.18,26.948 23.96,26.609 23.851,26.261L24.213,26.261L24.693,26.256L24.693,26.267C24.691,26.625 24.594,26.959 24.428,27.248C24.783,27.68 25.197,28.03 25.424,28.208C25.464,28.215 25.504,28.22 25.545,28.224L25.532,28.141L24.941,26.253L24.978,26.252L25.116,26.249L25.291,26.804C25.254,26.62 25.214,26.432 25.171,26.248L25.742,26.234L25.593,26.337C25.575,26.342 25.566,26.349 25.566,26.356L25.593,26.337C25.9,26.25 28.702,26.473 31.775,25.395C32.176,25.268 32.554,25.122 32.904,24.956L33.54,24.63C35.901,23.388 37.226,21.834 38.064,20.496C38.774,19.497 39.273,18.548 39.575,17.837C39.785,17.69 39.98,17.537 40.159,17.381C40.294,17.284 40.42,17.158 40.537,17.016C40.641,16.904 40.738,16.791 40.825,16.675L41.405,17.324L40.825,16.675L41.405,17.324C41.303,17.182 41.2,17.041 41.097,16.899L40.877,16.605C41.171,16.198 41.355,15.768 41.405,15.324L41.405,15.324C41.466,14.789 41.332,14.232 40.961,13.665C38.75,10.278 36.395,8.695 32.513,7.907C28.692,7.132 30.173,2.871 21.893,2.866ZM25.591,28.331L25.588,28.334L25.593,28.337L25.591,28.331ZM25.729,28.193L27.566,26.356C27.566,26.904 27.43,27.894 26.141,28.261L25.593,28.337L25.65,28.329L26.736,27.979L25.593,28.337C25.593,28.337 26.881,27.878 26.881,27.878L25.742,28.234L25.729,28.193ZM25.465,28.241L25.559,28.311L25.547,28.239L25.465,28.241ZM13.004,27.88L12.908,27.882C12.972,27.882 13.035,27.879 13.097,27.873L13.004,27.88ZM12.908,27.882L12.903,27.882L12.908,27.882ZM12.785,27.879L12.793,27.879L12.755,27.876L12.785,27.879ZM13.19,27.863L13.115,27.871L13.19,27.863ZM12.662,27.867L12.678,27.869L12.634,27.863L12.662,27.867ZM13.281,27.847L13.216,27.858L13.281,27.847ZM12.54,27.848L12.563,27.852L12.519,27.844L12.54,27.848ZM13.46,27.805L13.403,27.82L13.46,27.805ZM13.715,27.712L13.664,27.734L13.715,27.712ZM13.877,27.632L13.828,27.658L13.877,27.632ZM14.102,27.486L14.056,27.519L14.102,27.486ZM14.589,26.966L14.557,27.013L14.589,26.966ZM14.636,26.889L14.607,26.937L14.636,26.889ZM14.72,26.73L14.696,26.779L14.72,26.73ZM14.756,26.647L14.735,26.696L14.756,26.647ZM14.844,26.385L14.83,26.436L14.844,26.385ZM14.865,26.294L14.853,26.346L14.865,26.294ZM3.926,19.105L3.926,19.105C3.626,19.282 3.279,19.379 2.917,19.379L2.917,19.379C3.279,19.379 3.626,19.282 3.926,19.105ZM2.571,19.349L2.917,19.379C2.8,19.379 2.684,19.369 2.571,19.349ZM21.88,2.866L21.867,0.866C21.867,0.866 21.485,0.869 21.485,0.869L21.488,2.869L21.491,2.869L21.88,2.866Z" style="fill:white;"/>
        <g>
            <path d="M21.648,2.866C29.928,2.871 28.448,7.132 32.269,7.907C36.15,8.695 38.505,10.278 40.716,13.665C41.087,14.232 41.221,14.789 41.161,15.324L41.161,15.324L41.161,15.324C41.093,15.921 40.785,16.49 40.292,17.016C40.176,17.158 40.049,17.284 39.914,17.381C39.735,17.537 39.54,17.69 39.33,17.837C39.028,18.548 38.529,19.497 37.82,20.496C36.981,21.834 35.657,23.388 33.296,24.63L33.295,24.63C33.089,24.744 32.877,24.853 32.66,24.956C32.309,25.122 31.931,25.268 31.531,25.395C28.458,26.473 25.655,26.25 25.349,26.337L25.321,26.356C25.321,26.349 25.33,26.342 25.349,26.337L25.497,26.234C24.481,26.267 23.453,26.267 22.448,26.253L22.469,26.262C22.45,26.259 22.431,26.256 22.413,26.253C21.927,26.246 21.448,26.236 20.978,26.224C19.911,26.198 18.72,26.23 17.507,26.235C16.303,26.394 15.098,26.496 12.663,25.882L12.663,25.882C12.07,25.756 11.513,25.586 11.009,25.358C10.871,25.296 10.735,25.232 10.6,25.165C8.559,24.251 6.986,22.903 5.847,21.644C4.724,20.457 3.922,19.26 3.516,18.314L3.516,18.314L3.516,18.314C3.483,18.237 3.453,18.161 3.425,18.088C3.126,17.861 2.877,17.623 2.672,17.379L2.672,17.379L2.672,17.379L2.672,17.379C1.271,15.72 1.857,13.82 1.857,13.82C2.181,11.648 4.98,9.395 8.213,8.551C10.78,7.881 11.557,8.382 13.201,6.324C14.417,4.801 16.214,2.946 21.246,2.869C21.366,2.867 21.483,2.866 21.599,2.866L21.648,2.866Z" style="fill:rgb(141,118,95);"/>
        </g>
        <g>
            <g>
                <path d="M39.009,16.698C39.009,16.698 40.105,12.929 31.194,12.822C26.972,9.384 14.999,10.394 12.982,12.53C7.948,12.684 3.603,14.458 4.456,17.567C4.968,19.436 7.736,22.995 11.775,24.822C14.317,25.971 18.289,25.571 21.246,25.644C25.081,25.74 29.606,25.738 32.345,24.439C36.779,22.338 38.836,17.72 39.009,16.698Z" style="fill:url(#_Linear1);"/>
                <path d="M38.043,17.388C37.773,16.195 36.412,13.832 30.951,13.77C26.905,10.645 15.491,11.864 13.558,13.807C9.797,13.917 5.74,15.618 5.044,17.294C4.144,15.148 8.989,13.304 13.496,13.172C15.429,11.23 26.904,10.309 30.95,13.435C38.46,13.519 38.212,16.637 38.043,17.388Z" style="fill:rgb(141,118,95);"/>
                <path d="M31.109,14.82C31.109,14.82 28.534,19.815 26.192,20.011C27.333,17.722 29.468,16.295 31.109,14.82Z" style="fill:rgb(141,118,95);"/>
                <path d="M17.552,20.037C17.552,20.037 15.78,14.955 13.455,14.689C14.423,17.01 16.024,18.514 17.552,20.037Z" style="fill:rgb(141,118,95);"/>
            </g>
            <g>
                <path d="M3.08,13.859C3.08,13.859 1.38,19.376 11.029,19.542C15.591,23.854 28.56,22.635 30.751,19.974C36.203,19.8 42.101,16.929 40,13.712C37.899,10.495 35.662,8.99 31.974,8.242C28.286,7.494 29.796,3.327 21.502,3.455C16.721,3.529 15.013,5.291 13.858,6.737C12.295,8.693 11.557,8.217 9.118,8.853C6.047,9.655 3.388,11.796 3.08,13.859Z" style="fill:rgb(214,199,168);"/>
                <path d="M11.259,17.046C11.259,17.046 14.108,10.814 16.686,10.577C15.423,13.434 13.068,15.209 11.259,17.046Z" style="fill:rgb(141,118,95);"/>
                <path d="M26.192,10.577C26.192,10.577 28.125,16.934 30.682,17.275C29.625,14.371 27.868,12.485 26.192,10.577Z" style="fill:rgb(141,118,95);"/>
                <path d="M33.677,9.192C33.677,9.192 37.243,14.798 39.798,14.442C38.001,11.927 35.803,10.581 33.677,9.192Z" style="fill:rgb(141,118,95);"/>
                <path d="M8.945,10.137C8.299,9.558 3.158,12.941 4.555,15.525C5.574,13.463 6.66,11.631 8.945,10.137Z" style="fill:rgb(141,118,95);"/>
                <path d="M26.058,5.743C26.058,5.743 21.354,3.092 17.002,6.306C19.94,5.724 21.875,5.285 26.058,5.743Z" style="fill:rgb(141,118,95);"/>
                <path d="M13.713,19.438C13.713,19.438 22.52,22.175 29.687,19.665C20.885,20.408 16.545,19.55 13.713,19.438Z" style="fill:rgb(141,118,95);"/>
                <path d="M11.721,19.52C11.721,19.52 8.443,21.777 3.854,17.241C8.169,20.158 7.398,17.416 11.721,19.52Z" style="fill:rgb(141,118,95);"/>
            </g>
            <g>
                <path d="M3.08,13.859C3.08,13.859 1.38,19.376 11.029,19.542C15.591,23.854 28.56,22.635 30.751,19.974C36.203,19.8 42.101,16.929 40,13.712C37.899,10.495 35.662,8.99 31.974,8.242C28.286,7.494 29.796,3.327 21.502,3.455C16.721,3.529 15.013,5.291 13.858,6.737C12.295,8.693 11.557,8.217 9.118,8.853C6.047,9.655 3.388,11.796 3.08,13.859Z" style="fill:url(#_Linear2);"/>
                <path d="M11.259,17.046C11.259,17.046 14.108,10.814 16.686,10.577C15.423,13.434 13.068,15.209 11.259,17.046Z" style="fill:rgb(141,118,95);"/>
                <path d="M26.192,10.577C26.192,10.577 28.125,16.934 30.682,17.275C29.625,14.371 27.868,12.485 26.192,10.577Z" style="fill:rgb(141,118,95);"/>
                <path d="M33.677,9.192C33.677,9.192 37.243,14.798 39.798,14.442C38.001,11.927 35.803,10.581 33.677,9.192Z" style="fill:rgb(141,118,95);"/>
                <path d="M8.945,10.137C8.299,9.558 3.158,12.941 4.555,15.525C5.574,13.463 6.66,11.631 8.945,10.137Z" style="fill:rgb(141,118,95);"/>
                <path d="M26.058,5.743C26.058,5.743 21.354,3.092 17.002,6.306C19.94,5.724 21.875,5.285 26.058,5.743Z" style="fill:rgb(141,118,95);"/>
                <path d="M13.713,19.438C13.713,19.438 22.52,22.175 29.687,19.665C20.885,20.408 16.545,19.55 13.713,19.438Z" style="fill:rgb(141,118,95);"/>
                <path d="M11.405,16.871C11.405,16.871 15.297,14.268 16.6,10.723C13.728,14.093 12.358,15.834 11.405,16.871Z" style="fill:rgb(234,230,219);"/>
                <path d="M4.604,15.525C4.604,15.525 7.591,13.735 8.894,10.189C7.673,10.825 6.571,12.199 6.015,12.917C5.12,14.072 4.577,14.851 4.604,15.525Z" style="fill:rgb(234,230,219);"/>
                <path d="M24.577,4.635C24.56,4.196 19.907,2.993 16.6,5.711C18.097,5.515 19.345,4.78 20.386,4.633C22.396,4.349 23.652,4.721 24.577,4.635Z" style="fill:rgb(234,230,219);"/>
                <path d="M30.682,17.275C30.682,17.275 29.11,12.976 26.192,10.577C28.445,13.775 30.017,16.033 30.682,17.275Z" style="fill:rgb(234,230,219);"/>
                <path d="M39.798,14.458C39.798,14.458 37.737,11.267 33.677,9.192C35.382,10.715 39.133,13.216 39.798,14.458Z" style="fill:rgb(234,230,219);"/>
            </g>
            <path d="M4.656,18.129C4.656,18.129 5.011,18.995 5.797,20.162C6.345,20.975 7.098,21.932 8.086,22.838C8.901,23.585 9.872,24.299 11.011,24.862C11.697,25.202 12.448,25.476 13.255,25.686C14.468,25.962 15.366,26.071 16.111,26.075C17.154,26.08 17.888,25.9 18.762,25.754C19.702,25.597 20.802,25.474 22.663,25.68C20.804,25.276 19.679,25.277 18.713,25.347C17.859,25.41 17.14,25.523 16.134,25.453C15.427,25.404 14.579,25.27 13.439,24.953C12.678,24.768 11.975,24.506 11.318,24.211C10.214,23.713 9.25,23.098 8.423,22.443C5.906,20.449 4.656,18.129 4.656,18.129Z" style="fill:rgb(141,118,95);"/>
            <path d="M40.422,15.289C40.422,15.289 40.133,16.067 39.669,16.664C39.451,16.944 39.195,17.184 38.908,17.265C38.575,17.361 38.279,17.884 37.856,18.653C37.599,19.12 37.282,19.676 36.857,20.273C36.528,20.735 36.131,21.217 35.644,21.702C35.184,22.161 34.64,22.614 33.995,23.056C33.624,23.311 33.225,23.569 32.781,23.809C32.325,24.067 31.865,24.284 31.41,24.472C30.653,24.787 29.912,25.017 29.218,25.188C27.047,25.722 25.367,25.669 25.373,25.77C25.378,25.668 27.064,25.934 29.3,25.61C30.034,25.503 30.823,25.331 31.63,25.063C32.124,24.899 32.621,24.693 33.118,24.451C33.596,24.207 34.034,23.955 34.427,23.683C35.115,23.209 35.678,22.697 36.147,22.185C36.641,21.647 37.028,21.107 37.342,20.593C37.736,19.946 38.012,19.344 38.234,18.84C38.424,18.41 38.57,18.055 38.721,17.811C38.81,17.666 38.891,17.56 38.995,17.52C39.313,17.395 39.588,17.103 39.804,16.758C40.212,16.107 40.422,15.289 40.422,15.289Z" style="fill:rgb(141,118,95);"/>
        </g>
    </g>
    <defs>
        <linearGradient id="_Linear1" x1="0" y1="0" x2="1" y2="0" gradientUnits="userSpaceOnUse" gradientTransform="matrix(-0.0965263,4.11872,-4.11872,-0.0965263,26.9664,22.3812)"><stop offset="0" style="stop-color:rgb(214,196,168);stop-opacity:1"/><stop offset="1" style="stop-color:rgb(191,162,115);stop-opacity:1"/></linearGradient>
        <linearGradient id="_Linear2" x1="0" y1="0" x2="1" y2="0" gradientUnits="userSpaceOnUse" gradientTransform="matrix(8.53311e-16,13.9356,-13.9356,8.53311e-16,26.7072,7.64728)"><stop offset="0" style="stop-color:rgb(214,199,168);stop-opacity:1"/><stop offset="1" style="stop-color:rgb(198,173,132);stop-opacity:1"/></linearGradient>
    </defs>
</svg>
