<?xml version="1.0" encoding="UTF-8" standalone="no"?><!DOCTYPE svg PUBLIC "-//W3C//DTD SVG 1.1//EN" "http://www.w3.org/Graphics/SVG/1.1/DTD/svg11.dtd"><svg width="37px" height="24px" version="1.1" xmlns="http://www.w3.org/2000/svg" xmlns:xlink="http://www.w3.org/1999/xlink" xml:space="preserve" xmlns:serif="http://www.serif.com/" style="fill-rule:evenodd;clip-rule:evenodd;stroke-linecap:round;stroke-linejoin:round;stroke-miterlimit:1.5;"><rect id="Tavola-da-disegno7" serif:id="Tavola da disegno7" x="0" y="-2.593" width="36.697" height="26.051" style="fill:none;"/><g><circle cx="9.444" cy="6.985" r="3.9" style="fill:#c34828;stroke:#e9b7b7;stroke-width:0.36px;"/><path d="M8.501,7.966C8.501,7.966 8.009,8.517 7.599,8.975C7.473,9.116 7.422,9.309 7.462,9.494C7.502,9.679 7.629,9.833 7.802,9.909C7.917,9.959 8.038,10.012 8.16,10.066C8.966,10.42 9.883,10.422 10.691,10.072C10.692,10.072 10.692,10.072 10.692,10.072C10.957,9.957 11.152,9.722 11.215,9.44C11.279,9.158 11.203,8.862 11.012,8.645C10.846,8.456 10.679,8.265 10.537,8.103C10.3,7.834 9.939,7.708 9.586,7.771C9.107,7.857 8.501,7.966 8.501,7.966Z" style="fill:#81321f;stroke:#793829;stroke-width:0.08px;"/><path d="M10.205,6.969C10.376,7.333 10.664,7.629 11.022,7.81C11.226,7.913 11.46,8.031 11.677,8.141C11.845,8.226 12.045,8.225 12.213,8.139C12.381,8.052 12.498,7.89 12.526,7.703C12.545,7.579 12.565,7.448 12.585,7.316C12.718,6.446 12.483,5.56 11.937,4.87C11.936,4.87 11.936,4.87 11.936,4.869C11.756,4.642 11.479,4.515 11.19,4.527C10.901,4.539 10.635,4.688 10.474,4.929C10.335,5.139 10.194,5.35 10.074,5.529C9.875,5.827 9.847,6.208 10,6.533C10.066,6.674 10.138,6.826 10.205,6.969Z" style="fill:#81321f;stroke:#793829;stroke-width:0.08px;"/><path d="M9.038,5.698C9.038,5.698 8.144,4.331 7.908,3.97C7.895,3.95 7.873,3.938 7.849,3.937C7.825,3.935 7.802,3.946 7.787,3.965C7.665,4.117 7.386,4.465 7.098,4.825C6.548,5.512 6.308,6.397 6.437,7.268C6.437,7.268 6.437,7.269 6.437,7.269C6.479,7.555 6.656,7.804 6.912,7.938C7.168,8.072 7.473,8.076 7.733,7.948C8.311,7.662 8.897,7.372 8.897,7.372L9.038,5.698Z" style="fill:#81321f;stroke:#793829;stroke-width:0.08px;"/><g><g><path d="M9.239,9.815C9.247,9.604 9.305,9.435 9.368,9.438C9.432,9.44 9.477,9.613 9.469,9.823C9.461,10.034 9.409,10.024 9.346,10.022C9.282,10.019 9.231,10.025 9.239,9.815Z" style="fill:#e9b7b7;"/><path d="M8.273,9.507C8.386,9.329 8.521,9.212 8.575,9.247C8.628,9.281 8.58,9.453 8.467,9.63C8.354,9.808 8.315,9.774 8.261,9.74C8.208,9.706 8.16,9.685 8.273,9.507Z" style="fill:#e9b7b7;"/><path d="M8.775,9.681C8.818,9.474 8.903,9.317 8.965,9.33C9.027,9.343 9.043,9.521 9,9.728C8.957,9.934 8.908,9.916 8.846,9.903C8.784,9.89 8.732,9.887 8.775,9.681Z" style="fill:#e9b7b7;"/><path d="M7.868,9.216C8.013,9.063 8.168,8.974 8.214,9.018C8.26,9.062 8.18,9.221 8.036,9.374C7.891,9.527 7.859,9.486 7.813,9.442C7.766,9.399 7.723,9.369 7.868,9.216Z" style="fill:#e9b7b7;"/></g><g><path d="M11.007,9.295C10.863,9.141 10.784,8.981 10.831,8.938C10.877,8.894 11.031,8.984 11.175,9.138C11.319,9.292 11.276,9.322 11.229,9.365C11.183,9.408 11.151,9.449 11.007,9.295Z" style="fill:#e9b7b7;"/><path d="M10.108,9.764C10.062,9.559 10.074,9.381 10.136,9.366C10.198,9.352 10.286,9.508 10.333,9.713C10.379,9.919 10.327,9.922 10.265,9.936C10.203,9.951 10.155,9.97 10.108,9.764Z" style="fill:#e9b7b7;"/><path d="M10.585,9.53C10.469,9.355 10.417,9.184 10.47,9.148C10.523,9.113 10.661,9.228 10.777,9.403C10.893,9.579 10.846,9.601 10.793,9.636C10.74,9.671 10.701,9.706 10.585,9.53Z" style="fill:#e9b7b7;"/><path d="M9.617,9.846C9.61,9.636 9.656,9.463 9.72,9.461C9.783,9.459 9.84,9.629 9.847,9.839C9.853,10.05 9.802,10.044 9.738,10.046C9.675,10.048 9.623,10.057 9.617,9.846Z" style="fill:#e9b7b7;"/></g></g><g><g><path d="M12.063,6.34C11.858,6.386 11.68,6.374 11.665,6.312C11.651,6.25 11.807,6.162 12.012,6.115C12.218,6.068 12.221,6.12 12.235,6.182C12.25,6.244 12.269,6.293 12.063,6.34Z" style="fill:#e9b7b7;"/><path d="M12.016,7.352C11.815,7.289 11.667,7.188 11.686,7.128C11.705,7.067 11.884,7.069 12.085,7.132C12.286,7.195 12.263,7.242 12.244,7.303C12.225,7.364 12.217,7.415 12.016,7.352Z" style="fill:#e9b7b7;"/><path d="M12.054,6.822C11.844,6.834 11.67,6.793 11.666,6.729C11.663,6.666 11.831,6.604 12.041,6.592C12.251,6.58 12.246,6.632 12.25,6.696C12.253,6.759 12.264,6.81 12.054,6.822Z" style="fill:#e9b7b7;"/><path d="M11.84,7.818C11.654,7.718 11.529,7.591 11.559,7.535C11.589,7.479 11.764,7.515 11.949,7.616C12.135,7.716 12.103,7.758 12.073,7.813C12.043,7.869 12.025,7.918 11.84,7.818Z" style="fill:#e9b7b7;"/></g><g><path d="M11.104,4.766C10.993,4.945 10.858,5.062 10.804,5.029C10.75,4.995 10.797,4.823 10.909,4.644C11.02,4.465 11.06,4.499 11.114,4.533C11.168,4.567 11.216,4.587 11.104,4.766Z" style="fill:#e9b7b7;"/><path d="M11.789,5.513C11.603,5.611 11.428,5.645 11.398,5.589C11.368,5.533 11.496,5.407 11.682,5.309C11.869,5.211 11.886,5.26 11.915,5.316C11.945,5.373 11.976,5.414 11.789,5.513Z" style="fill:#e9b7b7;"/><path d="M11.44,5.113C11.301,5.27 11.149,5.364 11.101,5.322C11.053,5.28 11.128,5.118 11.268,4.96C11.407,4.802 11.441,4.842 11.488,4.884C11.536,4.927 11.58,4.955 11.44,5.113Z" style="fill:#e9b7b7;"/><path d="M11.996,5.966C11.795,6.027 11.616,6.027 11.598,5.966C11.579,5.906 11.728,5.807 11.93,5.746C12.131,5.685 12.139,5.737 12.157,5.797C12.175,5.858 12.198,5.905 11.996,5.966Z" style="fill:#e9b7b7;"/></g></g><g><g><path d="M7.062,5.932C7.263,5.994 7.411,6.094 7.393,6.155C7.374,6.215 7.195,6.214 6.994,6.152C6.793,6.089 6.815,6.042 6.834,5.982C6.853,5.921 6.861,5.869 7.062,5.932Z" style="fill:#e9b7b7;"/><path d="M7.609,5.079C7.752,5.234 7.829,5.395 7.782,5.438C7.736,5.481 7.582,5.389 7.439,5.234C7.297,5.079 7.34,5.05 7.387,5.007C7.434,4.964 7.467,4.923 7.609,5.079Z" style="fill:#e9b7b7;"/><path d="M7.311,5.518C7.499,5.613 7.629,5.736 7.6,5.793C7.572,5.85 7.396,5.819 7.208,5.724C7.02,5.629 7.05,5.587 7.078,5.53C7.107,5.473 7.123,5.424 7.311,5.518Z" style="fill:#e9b7b7;"/><path d="M7.995,4.763C8.105,4.942 8.151,5.115 8.097,5.148C8.043,5.182 7.909,5.063 7.799,4.884C7.688,4.704 7.736,4.684 7.79,4.651C7.845,4.617 7.884,4.583 7.995,4.763Z" style="fill:#e9b7b7;"/></g><g><path d="M7.106,7.774C7.292,7.675 7.467,7.64 7.497,7.696C7.527,7.752 7.4,7.878 7.214,7.977C7.028,8.076 7.011,8.027 6.981,7.971C6.951,7.915 6.92,7.873 7.106,7.774Z" style="fill:#e9b7b7;"/><path d="M6.886,6.785C7.096,6.793 7.265,6.851 7.263,6.914C7.26,6.978 7.087,7.023 6.877,7.015C6.666,7.007 6.676,6.955 6.678,6.892C6.681,6.828 6.675,6.777 6.886,6.785Z" style="fill:#e9b7b7;"/><path d="M6.988,7.306C7.188,7.239 7.366,7.234 7.387,7.294C7.407,7.354 7.261,7.457 7.061,7.524C6.861,7.591 6.852,7.54 6.832,7.479C6.812,7.419 6.788,7.373 6.988,7.306Z" style="fill:#e9b7b7;"/><path d="M6.933,6.289C7.138,6.337 7.293,6.426 7.279,6.488C7.264,6.55 7.086,6.561 6.881,6.513C6.676,6.465 6.695,6.416 6.71,6.354C6.724,6.293 6.728,6.241 6.933,6.289Z" style="fill:#e9b7b7;"/></g></g></g><g><circle cx="15.911" cy="5.552" r="5.258" style="fill:#c34828;stroke:#e9b7b7;stroke-width:0.49px;"/><path d="M14.639,6.875C14.639,6.875 13.98,7.613 13.428,8.229C13.257,8.421 13.188,8.683 13.243,8.934C13.297,9.185 13.469,9.395 13.704,9.498C13.856,9.565 14.017,9.635 14.179,9.706C15.266,10.183 16.502,10.186 17.591,9.715C17.592,9.715 17.592,9.715 17.592,9.714C17.95,9.56 18.213,9.243 18.298,8.862C18.383,8.482 18.282,8.083 18.024,7.79C17.801,7.537 17.577,7.281 17.386,7.064C17.065,6.698 16.576,6.527 16.097,6.614C15.453,6.729 14.639,6.875 14.639,6.875Z" style="fill:#81321f;stroke:#793829;stroke-width:0.11px;"/><path d="M16.941,5.542C17.168,6.026 17.55,6.419 18.027,6.66C18.302,6.799 18.619,6.959 18.912,7.107C19.142,7.223 19.413,7.222 19.641,7.104C19.87,6.987 20.028,6.767 20.067,6.512C20.092,6.348 20.118,6.175 20.145,6C20.324,4.826 20.007,3.632 19.27,2.701C19.27,2.701 19.27,2.701 19.269,2.701C19.027,2.395 18.653,2.224 18.264,2.24C17.874,2.256 17.515,2.457 17.299,2.781C17.112,3.063 16.923,3.345 16.763,3.586C16.493,3.991 16.454,4.507 16.661,4.948C16.751,5.14 16.85,5.348 16.941,5.542Z" style="fill:#81321f;stroke:#793829;stroke-width:0.11px;"/><path d="M15.363,3.817C15.363,3.817 14.822,2.99 14.369,2.298C14.228,2.083 13.993,1.948 13.736,1.936C13.48,1.923 13.233,2.035 13.072,2.235C12.968,2.365 12.858,2.502 12.748,2.641C12.006,3.567 11.683,4.76 11.856,5.934C11.856,5.935 11.856,5.935 11.857,5.935C11.913,6.321 12.152,6.656 12.497,6.837C12.842,7.018 13.254,7.023 13.603,6.85C14.382,6.465 15.173,6.075 15.173,6.075L15.363,3.817Z" style="fill:#81321f;stroke:#793829;stroke-width:0.11px;"/><g><g><path d="M15.633,9.367C15.644,9.084 15.723,8.856 15.808,8.859C15.894,8.862 15.954,9.095 15.944,9.379C15.933,9.663 15.864,9.65 15.778,9.646C15.692,9.643 15.622,9.651 15.633,9.367Z" style="fill:#e9b7b7;"/><path d="M14.331,8.953C14.484,8.713 14.666,8.556 14.738,8.602C14.811,8.647 14.746,8.879 14.593,9.119C14.441,9.359 14.388,9.313 14.316,9.267C14.244,9.221 14.179,9.192 14.331,8.953Z" style="fill:#e9b7b7;"/><path d="M15.008,9.187C15.066,8.909 15.181,8.697 15.265,8.715C15.348,8.732 15.37,8.972 15.312,9.25C15.254,9.528 15.188,9.503 15.104,9.486C15.02,9.469 14.95,9.465 15.008,9.187Z" style="fill:#e9b7b7;"/><path d="M13.786,8.56C13.981,8.354 14.19,8.234 14.252,8.293C14.314,8.352 14.207,8.567 14.011,8.774C13.816,8.98 13.773,8.925 13.711,8.866C13.649,8.807 13.591,8.767 13.786,8.56Z" style="fill:#e9b7b7;"/></g><g><path d="M18.017,8.667C17.823,8.46 17.717,8.244 17.779,8.185C17.842,8.127 18.05,8.248 18.244,8.456C18.438,8.663 18.38,8.703 18.317,8.761C18.254,8.82 18.211,8.875 18.017,8.667Z" style="fill:#e9b7b7;"/><path d="M16.806,9.299C16.743,9.022 16.759,8.782 16.843,8.763C16.927,8.744 17.045,8.954 17.108,9.231C17.171,9.508 17.101,9.513 17.017,9.532C16.934,9.551 16.868,9.576 16.806,9.299Z" style="fill:#e9b7b7;"/><path d="M17.448,8.984C17.292,8.747 17.222,8.517 17.294,8.469C17.365,8.422 17.551,8.576 17.707,8.813C17.864,9.05 17.8,9.079 17.729,9.126C17.657,9.174 17.605,9.221 17.448,8.984Z" style="fill:#e9b7b7;"/><path d="M16.143,9.41C16.134,9.126 16.196,8.894 16.282,8.891C16.367,8.888 16.444,9.117 16.453,9.401C16.462,9.684 16.392,9.676 16.307,9.679C16.221,9.681 16.152,9.694 16.143,9.41Z" style="fill:#e9b7b7;"/></g></g><g><g><path d="M19.441,4.683C19.164,4.746 18.924,4.729 18.905,4.645C18.886,4.562 19.095,4.443 19.372,4.38C19.649,4.317 19.654,4.387 19.673,4.471C19.692,4.554 19.718,4.62 19.441,4.683Z" style="fill:#e9b7b7;"/><path d="M19.378,6.048C19.107,5.962 18.907,5.827 18.933,5.745C18.959,5.664 19.2,5.666 19.47,5.751C19.741,5.836 19.71,5.9 19.685,5.981C19.659,6.063 19.648,6.133 19.378,6.048Z" style="fill:#e9b7b7;"/><path d="M19.429,5.333C19.145,5.35 18.911,5.293 18.906,5.208C18.901,5.122 19.127,5.04 19.411,5.024C19.694,5.007 19.688,5.077 19.693,5.163C19.698,5.248 19.712,5.317 19.429,5.333Z" style="fill:#e9b7b7;"/><path d="M19.14,6.676C18.89,6.541 18.72,6.37 18.761,6.295C18.802,6.219 19.038,6.268 19.288,6.403C19.537,6.538 19.495,6.594 19.454,6.67C19.413,6.745 19.39,6.811 19.14,6.676Z" style="fill:#e9b7b7;"/></g><g><path d="M18.148,2.561C17.998,2.802 17.817,2.961 17.744,2.916C17.671,2.87 17.734,2.638 17.885,2.397C18.035,2.156 18.089,2.202 18.161,2.247C18.234,2.293 18.298,2.32 18.148,2.561Z" style="fill:#e9b7b7;"/><path d="M19.072,3.568C18.821,3.7 18.584,3.746 18.544,3.671C18.505,3.595 18.676,3.426 18.927,3.293C19.179,3.161 19.202,3.227 19.242,3.303C19.281,3.379 19.323,3.436 19.072,3.568Z" style="fill:#e9b7b7;"/><path d="M18.601,3.029C18.413,3.241 18.208,3.368 18.144,3.311C18.08,3.254 18.181,3.036 18.369,2.823C18.557,2.61 18.602,2.664 18.666,2.721C18.73,2.778 18.789,2.816 18.601,3.029Z" style="fill:#e9b7b7;"/><path d="M19.351,4.179C19.079,4.261 18.838,4.262 18.813,4.18C18.789,4.098 18.989,3.964 19.261,3.882C19.533,3.8 19.543,3.87 19.568,3.952C19.592,4.034 19.623,4.097 19.351,4.179Z" style="fill:#e9b7b7;"/></g></g><g><g><path d="M12.699,4.133C12.97,4.217 13.17,4.351 13.145,4.433C13.119,4.515 12.878,4.513 12.607,4.429C12.336,4.345 12.367,4.282 12.392,4.2C12.417,4.119 12.428,4.049 12.699,4.133Z" style="fill:#e9b7b7;"/><path d="M13.436,2.983C13.629,3.192 13.733,3.409 13.67,3.467C13.607,3.525 13.4,3.402 13.208,3.193C13.016,2.983 13.074,2.944 13.137,2.886C13.2,2.828 13.244,2.774 13.436,2.983Z" style="fill:#e9b7b7;"/><path d="M13.035,3.576C13.289,3.703 13.463,3.869 13.425,3.946C13.386,4.022 13.149,3.981 12.895,3.853C12.642,3.725 12.683,3.668 12.721,3.591C12.76,3.515 12.781,3.448 13.035,3.576Z" style="fill:#e9b7b7;"/><path d="M13.956,2.557C14.105,2.799 14.167,3.032 14.094,3.077C14.021,3.122 13.841,2.962 13.692,2.72C13.543,2.478 13.608,2.451 13.681,2.406C13.754,2.361 13.808,2.315 13.956,2.557Z" style="fill:#e9b7b7;"/></g><g><path d="M12.758,6.617C13.009,6.483 13.245,6.436 13.285,6.512C13.325,6.587 13.155,6.757 12.904,6.891C12.653,7.024 12.63,6.958 12.59,6.882C12.549,6.806 12.507,6.75 12.758,6.617Z" style="fill:#e9b7b7;"/><path d="M12.461,5.283C12.745,5.294 12.973,5.372 12.969,5.458C12.966,5.543 12.733,5.604 12.449,5.593C12.165,5.582 12.179,5.513 12.182,5.427C12.185,5.342 12.177,5.272 12.461,5.283Z" style="fill:#e9b7b7;"/><path d="M12.599,5.985C12.869,5.895 13.109,5.888 13.136,5.969C13.164,6.05 12.967,6.19 12.698,6.28C12.428,6.37 12.416,6.3 12.389,6.219C12.362,6.138 12.33,6.075 12.599,5.985Z" style="fill:#e9b7b7;"/><path d="M12.525,4.614C12.802,4.679 13.011,4.799 12.991,4.883C12.971,4.966 12.731,4.981 12.455,4.916C12.178,4.851 12.204,4.786 12.224,4.703C12.243,4.619 12.249,4.549 12.525,4.614Z" style="fill:#e9b7b7;"/></g></g></g><g><g><g><path d="M21.309,20.159C21.309,20.159 29.857,13.507 26.374,10.381C26.012,10.056 25.694,9.509 24.962,9.193C24.433,8.966 23.449,9.658 22.706,9.507C21.875,9.338 21.263,8.336 20.246,8.253C19.517,8.194 18.612,9.173 17.824,9.153C16.476,9.12 15.204,8.126 13.811,8.194C12.477,8.259 11.639,9.372 10.406,9.513C8.904,9.684 7.049,8.898 5.928,9.153C5.248,9.308 4.92,10.166 4.454,10.342C3.971,10.525 3.359,10.027 3.17,10.226C2.692,11.618 7.258,18.612 13.746,19.937C17.44,20.691 21.309,20.159 21.309,20.159Z" style="fill:#2a9584;"/><path d="M3.637,12.041C3.106,11.227 2.81,10.422 2.987,9.911C3.177,9.712 3.793,10.21 4.28,10.027C4.748,9.85 5.079,8.992 5.764,8.837C6.893,8.582 8.762,9.367 10.275,9.195C11.517,9.054 12.361,7.941 13.705,7.875C15.108,7.806 16.389,8.801 17.747,8.833C18.54,8.852 19.452,7.873 20.187,7.932C21.211,8.014 21.827,9.017 22.664,9.185C23.412,9.336 24.403,8.643 24.936,8.871C25.673,9.186 26.175,9.578 26.358,10.058C26.428,10.24 26.44,10.44 26.41,10.652C26.181,10.478 25.897,10.32 25.565,10.178C25.033,9.951 24.041,10.644 23.293,10.493C22.457,10.325 21.84,9.322 20.816,9.24C20.081,9.181 19.17,10.16 18.376,10.141C17.018,10.108 15.738,9.114 14.335,9.183C12.99,9.248 12.146,10.362 10.905,10.503C9.391,10.675 7.523,9.89 6.394,10.145C5.708,10.3 5.378,11.158 4.909,11.334C4.422,11.518 3.807,11.02 3.616,11.219C3.538,11.444 3.552,11.726 3.637,12.041Z" style="fill:#a7d3c9;"/></g><g><path d="M18.28,17.759C18.28,17.759 12.725,9.506 15.927,6.856C16.26,6.58 17.079,6.87 17.684,6.651C18.12,6.494 18.707,7.305 19.286,7.251C19.933,7.19 20.587,6.275 21.354,6.324C21.905,6.358 22.376,7.443 22.961,7.524C23.963,7.664 25.102,6.842 26.117,7.087C27.089,7.322 27.483,8.532 28.365,8.828C29.439,9.19 30.968,8.649 31.744,9.045C32.215,9.285 32.284,10.177 32.592,10.41C32.912,10.654 33.463,10.239 33.563,10.46C33.635,11.899 28.321,20.009 23.263,20.051C19.976,20.078 18.28,17.759 18.28,17.759Z" style="fill:#63b5a8;"/><path d="M32.832,12.192C33.405,11.458 33.794,10.701 33.76,10.171C33.653,9.948 33.079,10.358 32.741,10.11C32.415,9.872 32.332,8.977 31.835,8.73C31.016,8.324 29.42,8.849 28.289,8.473C27.36,8.166 26.933,6.948 25.911,6.701C24.844,6.443 23.658,7.254 22.605,7.102C21.991,7.013 21.484,5.92 20.906,5.879C20.101,5.821 19.426,6.731 18.748,6.784C18.141,6.832 17.516,6.011 17.06,6.164C16.429,6.376 15.825,6.683 15.588,7.134C15.498,7.304 15.309,7.487 15.29,7.7C15.501,7.559 16.03,7.47 16.314,7.374C16.769,7.221 17.395,8.042 18.001,7.994C18.679,7.941 19.354,7.031 20.16,7.089C20.737,7.13 21.244,8.223 21.859,8.312C22.912,8.464 24.097,7.653 25.164,7.911C26.186,8.158 26.614,9.376 27.542,9.683C28.673,10.059 30.27,9.534 31.089,9.94C31.585,10.187 31.668,11.082 31.994,11.32C32.333,11.568 32.906,11.158 33.013,11.381C33.028,11.614 32.961,11.892 32.832,12.192Z" style="fill:#a7d3c9;"/></g><g><path d="M16.621,19.364C16.621,19.364 8.675,13.465 11.082,10.195C11.333,9.855 12.233,9.89 12.769,9.526C13.157,9.264 13.979,9.832 14.539,9.623C15.165,9.39 15.547,8.386 16.324,8.218C16.882,8.097 17.668,8.944 18.274,8.855C19.312,8.704 20.204,7.649 21.286,7.59C22.321,7.534 23.068,8.514 24.032,8.538C25.207,8.566 26.568,7.658 27.456,7.8C27.995,7.886 28.326,8.67 28.7,8.795C29.09,8.926 29.517,8.4 29.681,8.572C30.175,9.848 27.268,18.618 22.25,20.052C18.989,20.984 16.621,19.364 16.621,19.364Z" style="fill:#2a9584;"/><path d="M29.463,10.333C29.817,9.514 29.981,8.725 29.792,8.257C29.62,8.086 29.17,8.613 28.76,8.483C28.367,8.359 28.022,7.576 27.455,7.491C26.522,7.352 25.087,8.265 23.852,8.239C22.839,8.218 22.056,7.24 20.967,7.299C19.83,7.362 18.889,8.419 17.797,8.573C17.159,8.663 16.335,7.819 15.748,7.941C14.93,8.111 14.525,9.117 13.866,9.352C13.277,9.562 12.415,8.996 12.006,9.26C11.441,9.625 10.93,10.068 10.826,10.539C10.787,10.718 10.652,10.934 10.696,11.132C10.864,10.946 11.364,10.72 11.619,10.555C12.027,10.292 12.89,10.858 13.479,10.648C14.138,10.412 14.543,9.407 15.361,9.237C15.947,9.114 16.772,9.959 17.409,9.869C18.501,9.715 19.442,8.657 20.579,8.595C21.669,8.535 22.451,9.514 23.465,9.535C24.7,9.56 26.134,8.647 27.068,8.787C27.634,8.871 27.979,9.654 28.373,9.779C28.782,9.909 29.233,9.381 29.405,9.553C29.488,9.759 29.503,10.027 29.463,10.333Z" style="fill:#a7d3c9;"/></g><g><path d="M14.057,20.091C14.057,20.091 5.973,15.794 7.287,12.17C7.423,11.792 8.197,11.662 8.572,11.21C8.842,10.884 9.669,11.288 10.098,10.982C10.579,10.641 10.678,9.593 11.302,9.287C11.749,9.068 12.608,9.749 13.104,9.553C13.953,9.217 14.475,8.027 15.382,7.772C16.25,7.528 17.105,8.346 17.931,8.194C18.937,8.008 19.891,6.874 20.678,6.851C21.156,6.836 21.613,7.54 21.96,7.594C22.321,7.65 22.566,7.06 22.744,7.197C23.451,8.35 22.947,17.423 19,19.735C16.435,21.238 14.057,20.091 14.057,20.091Z" style="fill:#63b5a8;"/><path d="M22.954,8.953C23.071,8.091 23.034,7.291 22.768,6.87C22.583,6.735 22.319,7.33 21.941,7.279C21.578,7.229 21.109,6.529 20.608,6.55C19.783,6.585 18.767,7.735 17.711,7.936C16.844,8.1 15.959,7.29 15.045,7.546C14.092,7.814 13.529,9.016 12.635,9.365C12.112,9.569 11.221,8.897 10.75,9.123C10.092,9.438 9.973,10.491 9.466,10.84C9.012,11.153 8.151,10.758 7.863,11.09C7.463,11.549 7.128,12.073 7.146,12.551C7.152,12.732 7.086,12.968 7.168,13.152C7.27,12.941 7.644,12.629 7.824,12.423C8.112,12.091 8.973,12.486 9.427,12.173C9.935,11.824 10.053,10.771 10.711,10.456C11.183,10.23 12.074,10.902 12.596,10.698C13.49,10.349 14.053,9.147 15.006,8.879C15.92,8.623 16.805,9.433 17.672,9.269C18.729,9.068 19.744,7.918 20.569,7.883C21.07,7.862 21.539,8.562 21.902,8.612C22.28,8.663 22.545,8.067 22.729,8.203C22.846,8.388 22.919,8.647 22.954,8.953Z" style="fill:#a7d3c9;"/></g></g></g><g><g><path d="M16.858,21.796C16.858,21.796 28.073,21.687 30.539,19.43C30.816,13.367 26.32,11.096 26.32,11.096C26.32,11.096 16.384,17.204 15.667,19.443C15.854,21.035 16.858,21.796 16.858,21.796Z" style="fill:#afc3cd;"/><path d="M16.116,20.873C18.789,20.801 27.743,20.797 29.795,18.92C29.968,15.115 27.413,12.416 26.118,11.223L26.317,11.097C26.317,11.097 30.813,13.368 30.536,19.432C28.07,21.689 16.855,21.797 16.855,21.797C16.855,21.797 16.457,21.495 16.116,20.873Z" style="fill:#a0b8c4;"/><path d="M27.212,19.641L27.695,15.427L23.533,13.019L27.007,15.683C27.007,15.683 27.195,19.643 27.212,19.641Z" style="fill:#c6dce7;"/><path d="M25.125,19.715L25.496,16.477L22.298,14.627L24.968,16.673C24.968,16.673 25.112,19.716 25.125,19.715Z" style="fill:#c6dce7;"/><path d="M21.919,20.117L22.197,17.691L19.801,16.305L21.801,17.838C21.801,17.838 21.909,20.118 21.919,20.117Z" style="fill:#c6dce7;"/></g><g><path d="M17.648,18.775C17.648,18.775 28.862,18.667 31.328,16.41C31.605,10.346 27.109,8.075 27.109,8.075C27.109,8.075 17.174,14.184 16.457,16.422C16.644,18.014 17.648,18.775 17.648,18.775Z" style="fill:#afc3cd;"/><path d="M16.906,17.853C19.579,17.78 28.533,17.777 30.584,15.899C30.758,12.094 28.202,9.395 26.908,8.202L27.107,8.076C27.107,8.076 31.603,10.348 31.325,16.411C28.859,18.668 17.645,18.776 17.645,18.776C17.645,18.776 17.246,18.474 16.906,17.853Z" style="fill:#a0b8c4;"/><path d="M28.002,16.621L28.484,12.406L24.323,9.999L27.796,12.662C27.796,12.662 27.984,16.622 28.002,16.621Z" style="fill:#c6dce7;"/><path d="M25.915,16.695L26.286,13.456L23.088,11.606L25.757,13.653C25.757,13.653 25.902,16.696 25.915,16.695Z" style="fill:#c6dce7;"/><path d="M22.709,17.097L22.987,14.67L20.591,13.284L22.591,14.818C22.591,14.818 22.699,17.098 22.709,17.097Z" style="fill:#c6dce7;"/></g></g><g><path d="M7.323,13.207C7.323,13.207 4.882,13.207 4.882,17.901C4.882,19.248 5.976,20.341 7.323,20.341C8.67,20.341 9.763,19.248 9.763,17.901C9.763,13.207 7.323,13.207 7.323,13.207Z" style="fill:#f7f8f8;"/><path d="M7.323,15.3C7.323,15.3 5.865,15.3 5.865,18.104C5.865,18.909 6.518,19.562 7.323,19.562C8.128,19.562 8.781,18.909 8.781,18.104C8.781,15.3 7.323,15.3 7.323,15.3Z" style="fill:#fbb02f;"/></g><g><path d="M9.767,13.633C9.767,13.633 7.327,13.633 7.327,18.326C7.327,19.673 8.42,20.766 9.767,20.766C11.114,20.766 12.208,19.673 12.208,18.326C12.208,13.633 9.767,13.633 9.767,13.633Z" style="fill:#f7f8f8;"/><path d="M9.767,15.726C9.767,15.726 8.309,15.726 8.309,18.53C8.309,19.334 8.963,19.988 9.767,19.988C10.572,19.988 11.226,19.334 11.226,18.53C11.226,15.726 9.767,15.726 9.767,15.726Z" style="fill:#fbb02f;"/></g></svg>