<?xml version="1.0" encoding="UTF-8" standalone="no"?><!DOCTYPE svg PUBLIC "-//W3C//DTD SVG 1.1//EN" "http://www.w3.org/Graphics/SVG/1.1/DTD/svg11.dtd"><svg width="100%" height="100%" viewBox="0 0 37 24" version="1.1" xmlns="http://www.w3.org/2000/svg" xmlns:xlink="http://www.w3.org/1999/xlink" xml:space="preserve" xmlns:serif="http://www.serif.com/" style="fill-rule:evenodd;clip-rule:evenodd;stroke-linecap:round;stroke-linejoin:round;stroke-miterlimit:1.5;"><rect id="Tavola-da-disegno7" serif:id="Tavola da disegno7" x="0" y="0" width="36.697" height="22.708" style="fill:none;"/><g><g><g><path d="M20.498,17.872c-0,-0 8.548,-6.652 5.065,-9.778c-0.362,-0.325 -0.68,-0.872 -1.412,-1.188c-0.529,-0.228 -1.513,0.465 -2.256,0.314c-0.831,-0.169 -1.443,-1.171 -2.46,-1.254c-0.729,-0.059 -1.634,0.92 -2.422,0.9c-1.348,-0.033 -2.62,-1.027 -4.013,-0.959c-1.334,0.065 -2.172,1.178 -3.405,1.319c-1.502,0.171 -3.357,-0.615 -4.478,-0.36c-0.68,0.155 -1.008,1.013 -1.474,1.189c-0.483,0.183 -1.095,-0.315 -1.284,-0.116c-0.478,1.392 4.088,8.386 10.576,9.711c3.694,0.754 7.563,0.222 7.563,0.222Z" style="fill:#2a9584;"/><path d="M2.826,9.754c-0.531,-0.814 -0.827,-1.619 -0.65,-2.13c0.19,-0.199 0.806,0.299 1.293,0.115c0.468,-0.176 0.799,-1.034 1.484,-1.189c1.129,-0.255 2.998,0.53 4.511,0.358c1.242,-0.141 2.086,-1.255 3.43,-1.32c1.403,-0.069 2.684,0.925 4.042,0.958c0.793,0.019 1.705,-0.96 2.44,-0.901c1.024,0.082 1.64,1.085 2.477,1.253c0.748,0.151 1.739,-0.542 2.272,-0.315c0.737,0.316 1.239,0.708 1.422,1.188c0.07,0.182 0.082,0.382 0.052,0.594c-0.229,-0.175 -0.513,-0.332 -0.845,-0.474c-0.532,-0.227 -1.524,0.465 -2.272,0.315c-0.837,-0.169 -1.453,-1.171 -2.477,-1.253c-0.735,-0.059 -1.646,0.92 -2.44,0.901c-1.358,-0.033 -2.638,-1.027 -4.041,-0.958c-1.345,0.065 -2.189,1.179 -3.43,1.32c-1.514,0.171 -3.382,-0.614 -4.511,-0.358c-0.686,0.154 -1.016,1.013 -1.485,1.189c-0.487,0.184 -1.102,-0.314 -1.293,-0.115c-0.078,0.225 -0.064,0.507 0.021,0.822Z" style="fill:#a7d3c9;"/></g><g><path d="M17.469,15.472c-0,-0 -5.555,-8.254 -2.353,-10.903c0.333,-0.276 1.152,0.014 1.757,-0.205c0.436,-0.158 1.023,0.654 1.602,0.599c0.647,-0.06 1.301,-0.975 2.068,-0.926c0.551,0.034 1.022,1.119 1.607,1.2c1.002,0.14 2.141,-0.682 3.156,-0.437c0.972,0.235 1.366,1.445 2.248,1.741c1.074,0.362 2.603,-0.179 3.379,0.217c0.471,0.24 0.54,1.131 0.848,1.365c0.32,0.244 0.871,-0.171 0.971,0.05c0.072,1.439 -5.242,9.549 -10.3,9.591c-3.287,0.027 -4.983,-2.292 -4.983,-2.292Z" style="fill:#63b5a8;"/><path d="M32.021,9.905c0.573,-0.734 0.962,-1.491 0.928,-2.021c-0.107,-0.223 -0.681,0.186 -1.019,-0.061c-0.326,-0.239 -0.409,-1.134 -0.906,-1.38c-0.819,-0.406 -2.415,0.119 -3.546,-0.257c-0.929,-0.308 -1.356,-1.525 -2.378,-1.772c-1.067,-0.258 -2.253,0.553 -3.306,0.401c-0.614,-0.089 -1.121,-1.182 -1.699,-1.223c-0.805,-0.058 -1.48,0.852 -2.158,0.905c-0.607,0.048 -1.232,-0.773 -1.688,-0.62c-0.631,0.212 -1.235,0.519 -1.472,0.97c-0.09,0.17 -0.279,0.353 -0.298,0.566c0.211,-0.141 0.74,-0.23 1.024,-0.326c0.455,-0.153 1.081,0.668 1.687,0.62c0.678,-0.053 1.353,-0.963 2.159,-0.905c0.577,0.041 1.084,1.134 1.699,1.223c1.053,0.152 2.238,-0.659 3.305,-0.401c1.022,0.247 1.45,1.464 2.378,1.772c1.131,0.375 2.728,-0.149 3.547,0.257c0.496,0.246 0.579,1.141 0.905,1.38c0.339,0.247 0.912,-0.162 1.019,0.061c0.015,0.233 -0.052,0.511 -0.181,0.811Z" style="fill:#a7d3c9;"/></g><g><path d="M15.81,17.077c-0,-0 -7.946,-5.899 -5.539,-9.169c0.251,-0.34 1.151,-0.305 1.687,-0.669c0.388,-0.263 1.21,0.306 1.77,0.097c0.626,-0.233 1.008,-1.237 1.785,-1.406c0.558,-0.12 1.344,0.726 1.95,0.638c1.038,-0.151 1.93,-1.206 3.012,-1.265c1.035,-0.057 1.782,0.924 2.746,0.947c1.175,0.029 2.536,-0.879 3.424,-0.738c0.539,0.087 0.87,0.87 1.244,0.996c0.39,0.131 0.817,-0.395 0.981,-0.224c0.494,1.277 -2.413,10.047 -7.431,11.481c-3.261,0.932 -5.629,-0.688 -5.629,-0.688Z" style="fill:#2a9584;"/><path d="M28.652,8.046c0.354,-0.819 0.518,-1.609 0.329,-2.076c-0.172,-0.172 -0.622,0.356 -1.032,0.226c-0.393,-0.124 -0.738,-0.907 -1.305,-0.992c-0.933,-0.139 -2.368,0.773 -3.603,0.748c-1.013,-0.021 -1.796,-0.999 -2.885,-0.94c-1.137,0.062 -2.078,1.12 -3.17,1.274c-0.638,0.09 -1.462,-0.755 -2.049,-0.632c-0.818,0.17 -1.223,1.176 -1.882,1.411c-0.589,0.21 -1.451,-0.356 -1.86,-0.092c-0.565,0.365 -1.076,0.808 -1.18,1.279c-0.039,0.179 -0.174,0.395 -0.13,0.593c0.168,-0.186 0.668,-0.412 0.923,-0.577c0.408,-0.263 1.271,0.303 1.86,0.093c0.659,-0.236 1.064,-1.241 1.882,-1.412c0.586,-0.122 1.411,0.723 2.048,0.633c1.092,-0.154 2.033,-1.212 3.17,-1.274c1.09,-0.06 1.872,0.919 2.886,0.94c1.235,0.025 2.669,-0.888 3.603,-0.748c0.566,0.084 0.911,0.867 1.305,0.992c0.409,0.13 0.86,-0.398 1.032,-0.227c0.083,0.207 0.098,0.475 0.058,0.781Z" style="fill:#a7d3c9;"/></g><g><path d="M13.246,17.804c-0,-0 -8.084,-4.297 -6.77,-7.921c0.136,-0.378 0.91,-0.508 1.285,-0.96c0.27,-0.326 1.097,0.078 1.526,-0.228c0.48,-0.341 0.58,-1.389 1.204,-1.695c0.447,-0.219 1.306,0.462 1.802,0.266c0.849,-0.336 1.371,-1.527 2.278,-1.781c0.868,-0.244 1.723,0.574 2.549,0.422c1.006,-0.186 1.96,-1.32 2.747,-1.344c0.478,-0.014 0.935,0.689 1.282,0.743c0.361,0.057 0.606,-0.534 0.784,-0.396c0.707,1.153 0.203,10.226 -3.744,12.538c-2.565,1.502 -4.943,0.356 -4.943,0.356Z" style="fill:#63b5a8;"/><path d="M22.143,6.666c0.117,-0.863 0.08,-1.662 -0.186,-2.083c-0.185,-0.136 -0.449,0.46 -0.827,0.409c-0.363,-0.05 -0.832,-0.75 -1.333,-0.729c-0.825,0.035 -1.841,1.185 -2.897,1.386c-0.867,0.164 -1.752,-0.646 -2.666,-0.39c-0.953,0.268 -1.516,1.47 -2.41,1.819c-0.523,0.204 -1.414,-0.468 -1.885,-0.242c-0.658,0.315 -0.777,1.368 -1.284,1.717c-0.454,0.313 -1.315,-0.082 -1.603,0.25c-0.4,0.459 -0.735,0.983 -0.717,1.461c0.006,0.181 -0.06,0.417 0.022,0.601c0.102,-0.211 0.476,-0.523 0.656,-0.73c0.288,-0.331 1.149,0.063 1.603,-0.249c0.508,-0.349 0.626,-1.402 1.284,-1.717c0.472,-0.227 1.363,0.446 1.885,0.242c0.894,-0.349 1.457,-1.551 2.41,-1.819c0.914,-0.257 1.799,0.554 2.666,0.389c1.057,-0.2 2.072,-1.351 2.897,-1.385c0.501,-0.021 0.97,0.679 1.333,0.729c0.378,0.051 0.643,-0.545 0.827,-0.409c0.117,0.185 0.19,0.444 0.225,0.75Z" style="fill:#a7d3c9;"/></g></g><g><circle cx="24.274" cy="14.586" r="3.9" style="fill:#c34828;stroke:#e9b7b7;stroke-width:0.36px;"/><path d="M23.331,15.568c-0,-0 -0.492,0.55 -0.902,1.009c-0.126,0.141 -0.177,0.334 -0.137,0.518c0.04,0.185 0.166,0.34 0.34,0.416c0.114,0.05 0.235,0.103 0.358,0.157c0.806,0.353 1.723,0.356 2.531,0.006c0,-0 0.001,-0 0.001,-0c0.265,-0.115 0.46,-0.35 0.523,-0.632c0.064,-0.283 -0.012,-0.578 -0.203,-0.795c-0.166,-0.19 -0.333,-0.38 -0.476,-0.542c-0.236,-0.269 -0.597,-0.395 -0.95,-0.332c-0.479,0.086 -1.085,0.195 -1.085,0.195Z" style="fill:#81321f;stroke:#793829;stroke-width:0.08px;"/><path d="M25.034,14.571c0.172,0.363 0.459,0.66 0.818,0.841c0.204,0.103 0.438,0.221 0.654,0.33c0.169,0.086 0.369,0.085 0.537,-0.002c0.168,-0.086 0.285,-0.248 0.313,-0.435c0.019,-0.124 0.039,-0.255 0.059,-0.387c0.133,-0.87 -0.102,-1.756 -0.649,-2.446c0,-0 -0,-0.001 -0,-0.001c-0.18,-0.227 -0.457,-0.354 -0.746,-0.342c-0.289,0.012 -0.555,0.161 -0.716,0.402c-0.14,0.209 -0.28,0.42 -0.4,0.599c-0.199,0.299 -0.227,0.68 -0.074,1.005c0.066,0.14 0.137,0.293 0.204,0.436Z" style="fill:#81321f;stroke:#793829;stroke-width:0.08px;"/><path d="M23.868,13.3c0,-0 -0.894,-1.367 -1.13,-1.728c-0.013,-0.02 -0.035,-0.033 -0.059,-0.034c-0.024,-0.001 -0.047,0.01 -0.062,0.028c-0.122,0.153 -0.401,0.501 -0.689,0.86c-0.55,0.688 -0.79,1.573 -0.661,2.444c-0,0 -0,0 -0,0.001c0.042,0.286 0.219,0.534 0.475,0.669c0.256,0.134 0.561,0.138 0.821,0.009c0.577,-0.285 1.164,-0.575 1.164,-0.575l0.141,-1.674Z" style="fill:#81321f;stroke:#793829;stroke-width:0.08px;"/><g><g><path d="M24.069,17.416c0.008,-0.21 0.066,-0.379 0.129,-0.377c0.064,0.003 0.109,0.176 0.101,0.386c-0.008,0.211 -0.06,0.201 -0.123,0.198c-0.064,-0.002 -0.116,0.004 -0.107,-0.207Z" style="fill:#e9b7b7;"/><path d="M23.103,17.109c0.113,-0.178 0.248,-0.295 0.302,-0.261c0.053,0.034 0.005,0.206 -0.108,0.384c-0.113,0.178 -0.152,0.144 -0.206,0.11c-0.053,-0.034 -0.101,-0.055 0.012,-0.233Z" style="fill:#e9b7b7;"/><path d="M23.605,17.282c0.042,-0.206 0.128,-0.363 0.19,-0.35c0.062,0.013 0.078,0.191 0.035,0.397c-0.043,0.207 -0.092,0.188 -0.154,0.175c-0.062,-0.013 -0.114,-0.015 -0.071,-0.222Z" style="fill:#e9b7b7;"/><path d="M22.698,16.818c0.145,-0.153 0.3,-0.242 0.346,-0.198c0.046,0.043 -0.034,0.203 -0.179,0.356c-0.144,0.153 -0.176,0.112 -0.223,0.068c-0.046,-0.043 -0.089,-0.073 0.056,-0.226Z" style="fill:#e9b7b7;"/></g><g><path d="M25.837,16.897c-0.144,-0.154 -0.223,-0.314 -0.177,-0.358c0.047,-0.043 0.201,0.047 0.345,0.201c0.144,0.154 0.101,0.183 0.054,0.227c-0.046,0.043 -0.079,0.084 -0.222,-0.07Z" style="fill:#e9b7b7;"/><path d="M24.938,17.366c-0.047,-0.206 -0.034,-0.384 0.028,-0.398c0.062,-0.014 0.15,0.141 0.197,0.347c0.046,0.205 -0.006,0.209 -0.068,0.223c-0.062,0.014 -0.11,0.033 -0.157,-0.172Z" style="fill:#e9b7b7;"/><path d="M25.415,17.132c-0.116,-0.176 -0.168,-0.347 -0.115,-0.382c0.053,-0.035 0.191,0.079 0.307,0.255c0.116,0.176 0.069,0.198 0.016,0.233c-0.053,0.035 -0.092,0.07 -0.208,-0.106Z" style="fill:#e9b7b7;"/><path d="M24.447,17.448c-0.007,-0.21 0.039,-0.383 0.103,-0.385c0.063,-0.002 0.12,0.167 0.127,0.378c0.006,0.211 -0.046,0.204 -0.109,0.206c-0.064,0.002 -0.115,0.012 -0.121,-0.199Z" style="fill:#e9b7b7;"/></g></g><g><g><path d="M26.893,13.941c-0.205,0.047 -0.384,0.035 -0.398,-0.027c-0.014,-0.062 0.142,-0.151 0.347,-0.197c0.205,-0.047 0.209,0.005 0.223,0.067c0.014,0.062 0.034,0.111 -0.172,0.157Z" style="fill:#e9b7b7;"/><path d="M26.846,14.954c-0.201,-0.063 -0.349,-0.164 -0.33,-0.224c0.019,-0.061 0.198,-0.059 0.399,0.004c0.201,0.063 0.178,0.11 0.159,0.171c-0.019,0.06 -0.027,0.112 -0.228,0.049Z" style="fill:#e9b7b7;"/><path d="M26.884,14.424c-0.211,0.012 -0.384,-0.03 -0.388,-0.093c-0.003,-0.064 0.164,-0.125 0.375,-0.137c0.21,-0.012 0.205,0.04 0.209,0.104c0.003,0.063 0.014,0.114 -0.196,0.126Z" style="fill:#e9b7b7;"/><path d="M26.67,15.42c-0.186,-0.1 -0.312,-0.227 -0.281,-0.283c0.03,-0.056 0.205,-0.02 0.39,0.08c0.185,0.101 0.154,0.142 0.124,0.198c-0.03,0.056 -0.048,0.105 -0.233,0.005Z" style="fill:#e9b7b7;"/></g><g><path d="M25.934,12.368c-0.112,0.178 -0.246,0.296 -0.3,0.263c-0.054,-0.034 -0.007,-0.206 0.105,-0.385c0.111,-0.179 0.151,-0.145 0.205,-0.111c0.054,0.033 0.101,0.054 -0.01,0.233Z" style="fill:#e9b7b7;"/><path d="M26.619,13.114c-0.186,0.099 -0.361,0.133 -0.391,0.077c-0.03,-0.057 0.098,-0.182 0.284,-0.28c0.186,-0.098 0.203,-0.049 0.233,0.007c0.03,0.056 0.061,0.098 -0.126,0.196Z" style="fill:#e9b7b7;"/><path d="M26.27,12.714c-0.14,0.158 -0.292,0.252 -0.339,0.21c-0.048,-0.042 0.027,-0.204 0.167,-0.362c0.139,-0.158 0.173,-0.118 0.22,-0.076c0.048,0.042 0.092,0.071 -0.048,0.228Z" style="fill:#e9b7b7;"/><path d="M26.826,13.568c-0.202,0.061 -0.38,0.061 -0.399,0c-0.018,-0.061 0.131,-0.16 0.332,-0.22c0.202,-0.061 0.21,-0.01 0.228,0.051c0.018,0.061 0.041,0.108 -0.161,0.169Z" style="fill:#e9b7b7;"/></g></g><g><g><path d="M21.892,13.533c0.201,0.063 0.349,0.163 0.33,0.223c-0.018,0.061 -0.197,0.06 -0.398,-0.003c-0.202,-0.062 -0.179,-0.109 -0.16,-0.169c0.019,-0.061 0.027,-0.113 0.228,-0.051Z" style="fill:#e9b7b7;"/><path d="M22.439,12.68c0.142,0.155 0.22,0.316 0.173,0.359c-0.046,0.043 -0.2,-0.048 -0.343,-0.203c-0.142,-0.155 -0.099,-0.184 -0.052,-0.227c0.047,-0.043 0.079,-0.084 0.222,0.071Z" style="fill:#e9b7b7;"/><path d="M22.141,13.12c0.188,0.095 0.318,0.218 0.289,0.275c-0.028,0.056 -0.204,0.025 -0.392,-0.069c-0.189,-0.095 -0.158,-0.138 -0.13,-0.194c0.029,-0.057 0.045,-0.107 0.233,-0.012Z" style="fill:#e9b7b7;"/><path d="M22.825,12.365c0.11,0.179 0.156,0.352 0.101,0.385c-0.054,0.033 -0.187,-0.085 -0.298,-0.265c-0.11,-0.179 -0.062,-0.199 -0.008,-0.233c0.054,-0.033 0.094,-0.067 0.205,0.113Z" style="fill:#e9b7b7;"/></g><g><path d="M21.936,15.376c0.186,-0.099 0.361,-0.134 0.391,-0.078c0.03,0.056 -0.097,0.182 -0.283,0.281c-0.186,0.099 -0.203,0.05 -0.233,-0.006c-0.03,-0.056 -0.061,-0.098 0.125,-0.197Z" style="fill:#e9b7b7;"/><path d="M21.715,14.386c0.211,0.009 0.38,0.067 0.377,0.13c-0.002,0.064 -0.175,0.109 -0.385,0.101c-0.211,-0.009 -0.201,-0.06 -0.199,-0.123c0.003,-0.064 -0.003,-0.116 0.207,-0.108Z" style="fill:#e9b7b7;"/><path d="M21.818,14.908c0.2,-0.067 0.378,-0.073 0.398,-0.012c0.021,0.06 -0.125,0.163 -0.325,0.23c-0.2,0.067 -0.209,0.015 -0.229,-0.045c-0.02,-0.06 -0.044,-0.107 0.156,-0.173Z" style="fill:#e9b7b7;"/><path d="M21.763,13.89c0.205,0.048 0.36,0.138 0.345,0.2c-0.014,0.061 -0.192,0.073 -0.397,0.025c-0.206,-0.049 -0.186,-0.097 -0.172,-0.159c0.015,-0.062 0.019,-0.114 0.224,-0.066Z" style="fill:#e9b7b7;"/></g></g></g><g><circle cx="30.74" cy="13.154" r="5.258" style="fill:#c34828;stroke:#e9b7b7;stroke-width:0.49px;"/><path d="M29.469,14.477c-0,0 -0.659,0.737 -1.211,1.354c-0.171,0.191 -0.24,0.454 -0.186,0.705c0.055,0.251 0.227,0.46 0.462,0.564c0.152,0.067 0.313,0.137 0.475,0.208c1.087,0.477 2.323,0.48 3.412,0.009c0.001,-0.001 0.001,-0.001 0.001,-0.001c0.358,-0.155 0.62,-0.471 0.706,-0.852c0.085,-0.38 -0.017,-0.779 -0.274,-1.072c-0.223,-0.254 -0.447,-0.509 -0.638,-0.726c-0.321,-0.366 -0.81,-0.537 -1.289,-0.451c-0.644,0.116 -1.458,0.262 -1.458,0.262Z" style="fill:#81321f;stroke:#793829;stroke-width:0.11px;"/><path d="M31.771,13.144c0.227,0.483 0.609,0.877 1.086,1.117c0.275,0.139 0.591,0.299 0.885,0.448c0.23,0.116 0.501,0.115 0.729,-0.003c0.228,-0.118 0.387,-0.338 0.425,-0.592c0.026,-0.164 0.052,-0.338 0.079,-0.513c0.179,-1.173 -0.138,-2.368 -0.875,-3.298c-0,-0 -0.001,-0 -0.001,-0.001c-0.242,-0.305 -0.616,-0.477 -1.005,-0.461c-0.39,0.016 -0.749,0.218 -0.965,0.542c-0.188,0.281 -0.376,0.564 -0.537,0.805c-0.27,0.404 -0.308,0.921 -0.101,1.361c0.09,0.192 0.188,0.401 0.28,0.595Z" style="fill:#81321f;stroke:#793829;stroke-width:0.11px;"/><path d="M30.193,11.419c0,0 -0.541,-0.827 -0.994,-1.52c-0.141,-0.215 -0.376,-0.349 -0.633,-0.362c-0.256,-0.012 -0.503,0.1 -0.664,0.3c-0.104,0.13 -0.214,0.267 -0.324,0.405c-0.742,0.927 -1.065,2.12 -0.892,3.294c0,0 0,0.001 0,0.001c0.057,0.386 0.295,0.721 0.641,0.902c0.345,0.181 0.756,0.186 1.106,0.013c0.779,-0.385 1.57,-0.776 1.57,-0.776l0.19,-2.257Z" style="fill:#81321f;stroke:#793829;stroke-width:0.11px;"/><g><g><path d="M30.463,16.969c0.011,-0.284 0.089,-0.511 0.175,-0.508c0.086,0.003 0.146,0.236 0.135,0.52c-0.011,0.284 -0.08,0.27 -0.165,0.267c-0.086,-0.003 -0.156,0.005 -0.145,-0.279Z" style="fill:#e9b7b7;"/><path d="M29.161,16.554c0.153,-0.239 0.335,-0.397 0.407,-0.351c0.073,0.046 0.008,0.278 -0.145,0.518c-0.152,0.24 -0.205,0.193 -0.277,0.147c-0.073,-0.046 -0.137,-0.074 0.015,-0.314Z" style="fill:#e9b7b7;"/><path d="M29.838,16.789c0.058,-0.278 0.172,-0.49 0.256,-0.473c0.084,0.018 0.105,0.258 0.048,0.536c-0.058,0.278 -0.124,0.253 -0.208,0.236c-0.084,-0.018 -0.154,-0.021 -0.096,-0.299Z" style="fill:#e9b7b7;"/><path d="M28.616,16.162c0.195,-0.206 0.404,-0.326 0.466,-0.267c0.062,0.059 -0.046,0.274 -0.241,0.48c-0.195,0.207 -0.238,0.151 -0.3,0.092c-0.063,-0.058 -0.12,-0.099 0.075,-0.305Z" style="fill:#e9b7b7;"/></g><g><path d="M32.847,16.269c-0.194,-0.208 -0.3,-0.424 -0.238,-0.482c0.063,-0.058 0.271,0.063 0.465,0.27c0.194,0.208 0.135,0.248 0.073,0.306c-0.063,0.059 -0.106,0.114 -0.3,-0.094Z" style="fill:#e9b7b7;"/><path d="M31.635,16.901c-0.062,-0.277 -0.046,-0.517 0.038,-0.536c0.083,-0.019 0.202,0.19 0.265,0.467c0.063,0.277 -0.007,0.282 -0.091,0.301c-0.083,0.019 -0.149,0.045 -0.212,-0.232Z" style="fill:#e9b7b7;"/><path d="M32.278,16.586c-0.156,-0.237 -0.226,-0.468 -0.154,-0.515c0.071,-0.047 0.256,0.107 0.413,0.344c0.157,0.236 0.093,0.266 0.022,0.313c-0.072,0.047 -0.124,0.095 -0.281,-0.142Z" style="fill:#e9b7b7;"/><path d="M30.973,17.012c-0.009,-0.284 0.053,-0.516 0.139,-0.519c0.085,-0.003 0.162,0.225 0.171,0.509c0.009,0.284 -0.061,0.276 -0.146,0.278c-0.086,0.003 -0.155,0.016 -0.164,-0.268Z" style="fill:#e9b7b7;"/></g></g><g><g><path d="M34.271,12.284c-0.277,0.063 -0.517,0.047 -0.536,-0.037c-0.019,-0.083 0.19,-0.202 0.467,-0.265c0.277,-0.063 0.282,0.007 0.301,0.09c0.019,0.084 0.045,0.149 -0.232,0.212Z" style="fill:#e9b7b7;"/><path d="M34.207,13.649c-0.271,-0.085 -0.47,-0.22 -0.444,-0.302c0.026,-0.082 0.266,-0.079 0.537,0.006c0.271,0.085 0.24,0.148 0.215,0.23c-0.026,0.082 -0.037,0.151 -0.308,0.066Z" style="fill:#e9b7b7;"/><path d="M34.258,12.935c-0.283,0.016 -0.517,-0.04 -0.522,-0.125c-0.005,-0.086 0.221,-0.168 0.505,-0.185c0.283,-0.016 0.277,0.054 0.282,0.14c0.004,0.085 0.019,0.154 -0.265,0.17Z" style="fill:#e9b7b7;"/><path d="M33.97,14.278c-0.25,-0.135 -0.42,-0.306 -0.379,-0.382c0.041,-0.075 0.277,-0.026 0.526,0.109c0.25,0.135 0.208,0.191 0.167,0.266c-0.041,0.076 -0.064,0.142 -0.314,0.007Z" style="fill:#e9b7b7;"/></g><g><path d="M32.978,10.163c-0.15,0.241 -0.332,0.4 -0.404,0.354c-0.073,-0.045 -0.01,-0.277 0.141,-0.518c0.15,-0.241 0.203,-0.195 0.276,-0.15c0.073,0.045 0.137,0.073 -0.013,0.314Z" style="fill:#e9b7b7;"/><path d="M33.902,11.17c-0.251,0.132 -0.488,0.178 -0.528,0.102c-0.04,-0.075 0.132,-0.244 0.383,-0.377c0.251,-0.132 0.274,-0.066 0.314,0.01c0.04,0.076 0.082,0.132 -0.169,0.265Z" style="fill:#e9b7b7;"/><path d="M33.431,10.63c-0.188,0.213 -0.393,0.34 -0.457,0.283c-0.064,-0.057 0.036,-0.276 0.225,-0.488c0.188,-0.213 0.233,-0.159 0.297,-0.102c0.064,0.057 0.123,0.095 -0.065,0.307Z" style="fill:#e9b7b7;"/><path d="M34.181,11.781c-0.272,0.082 -0.513,0.082 -0.538,0c-0.025,-0.082 0.176,-0.215 0.448,-0.297c0.272,-0.082 0.282,-0.013 0.306,0.069c0.025,0.082 0.055,0.146 -0.216,0.228Z" style="fill:#e9b7b7;"/></g></g><g><g><path d="M27.529,11.735c0.271,0.084 0.471,0.218 0.445,0.3c-0.025,0.082 -0.266,0.08 -0.537,-0.004c-0.271,-0.084 -0.241,-0.147 -0.215,-0.229c0.025,-0.082 0.035,-0.151 0.307,-0.067Z" style="fill:#e9b7b7;"/><path d="M28.266,10.584c0.192,0.21 0.297,0.426 0.234,0.484c-0.063,0.058 -0.27,-0.064 -0.462,-0.274c-0.192,-0.209 -0.134,-0.248 -0.071,-0.306c0.063,-0.058 0.107,-0.113 0.299,0.096Z" style="fill:#e9b7b7;"/><path d="M27.865,11.177c0.254,0.128 0.428,0.294 0.39,0.37c-0.039,0.077 -0.276,0.035 -0.53,-0.092c-0.253,-0.128 -0.213,-0.186 -0.174,-0.262c0.038,-0.077 0.06,-0.143 0.314,-0.016Z" style="fill:#e9b7b7;"/><path d="M28.786,10.159c0.149,0.242 0.211,0.475 0.138,0.52c-0.073,0.044 -0.253,-0.116 -0.402,-0.357c-0.149,-0.242 -0.084,-0.27 -0.011,-0.315c0.073,-0.044 0.127,-0.09 0.275,0.152Z" style="fill:#e9b7b7;"/></g><g><path d="M27.588,14.218c0.251,-0.133 0.487,-0.18 0.527,-0.105c0.04,0.076 -0.131,0.246 -0.381,0.379c-0.251,0.134 -0.274,0.067 -0.315,-0.008c-0.04,-0.076 -0.082,-0.132 0.169,-0.266Z" style="fill:#e9b7b7;"/><path d="M27.291,12.885c0.284,0.01 0.511,0.089 0.508,0.174c-0.003,0.086 -0.236,0.147 -0.52,0.136c-0.284,-0.011 -0.271,-0.08 -0.267,-0.166c0.003,-0.086 -0.005,-0.155 0.279,-0.144Z" style="fill:#e9b7b7;"/><path d="M27.429,13.587c0.269,-0.09 0.51,-0.097 0.537,-0.016c0.027,0.081 -0.169,0.22 -0.438,0.31c-0.27,0.09 -0.282,0.021 -0.309,-0.06c-0.027,-0.081 -0.059,-0.144 0.21,-0.234Z" style="fill:#e9b7b7;"/><path d="M27.355,12.216c0.277,0.065 0.485,0.185 0.466,0.268c-0.02,0.084 -0.26,0.099 -0.537,0.034c-0.276,-0.065 -0.25,-0.13 -0.23,-0.214c0.019,-0.083 0.025,-0.153 0.301,-0.088Z" style="fill:#e9b7b7;"/></g></g></g></g></svg>